<svg width="430" height="260" viewBox="0 0 430 260" fill="none" xmlns="http://www.w3.org/2000/svg">
<path d="M127.144 188.587C126.589 186.492 124.888 184.397 122.705 183.12C121.57 182.44 120.318 182.006 119.022 181.844C117.726 181.681 116.412 181.794 115.158 182.174C114.177 182.475 111.206 184.122 109.497 185.076L105.236 182.949C105.126 182.895 105.003 182.874 104.882 182.889C104.762 182.904 104.647 182.955 104.553 183.036C104.458 183.117 104.387 183.224 104.348 183.345C104.308 183.466 104.302 183.597 104.33 183.721L105.263 187.869C105.317 188.11 105.307 188.362 105.236 188.598C105.164 188.834 105.033 189.045 104.856 189.209L101.969 191.885C101.878 191.97 101.811 192.081 101.777 192.203C101.743 192.326 101.742 192.457 101.775 192.58C101.808 192.703 101.873 192.814 101.963 192.9C102.053 192.986 102.164 193.044 102.284 193.066L106.303 193.813C106.507 193.851 106.699 193.94 106.864 194.072C107.028 194.205 107.16 194.377 107.249 194.574L108.915 198.264C108.966 198.376 109.045 198.472 109.143 198.54C109.242 198.609 109.357 198.647 109.475 198.652C109.593 198.657 109.71 198.627 109.813 198.567C109.916 198.506 110.002 198.417 110.061 198.309L112.139 194.497C112.233 194.324 112.362 194.174 112.517 194.059C112.672 193.943 112.85 193.865 113.036 193.83L117.349 193.015C117.457 192.974 117.553 192.903 117.626 192.81C117.699 192.717 117.748 192.605 117.767 192.486C117.785 192.366 117.773 192.244 117.732 192.131C117.691 192.018 117.622 191.918 117.532 191.843L113.055 188.087C112.822 187.884 112.522 187.787 112.221 187.816C111.919 187.846 111.642 188.001 111.449 188.246C111.256 188.492 111.163 188.808 111.191 189.125C111.22 189.442 111.367 189.735 111.6 189.938L112.629 190.864C112.673 190.904 112.706 190.956 112.723 191.015C112.74 191.074 112.741 191.136 112.726 191.196C112.711 191.255 112.68 191.308 112.637 191.35C112.594 191.392 112.541 191.42 112.484 191.431L111.505 191.616C111.337 191.649 111.177 191.72 111.038 191.824C110.898 191.929 110.782 192.064 110.697 192.22L109.966 193.557C109.938 193.607 109.897 193.648 109.849 193.676C109.8 193.704 109.745 193.717 109.69 193.715C109.635 193.712 109.582 193.694 109.535 193.663C109.489 193.631 109.452 193.587 109.427 193.535L108.869 192.3C108.788 192.121 108.668 191.964 108.519 191.844C108.369 191.724 108.195 191.642 108.009 191.607L106.831 191.389C106.775 191.379 106.722 191.353 106.679 191.312C106.636 191.272 106.604 191.22 106.589 191.162C106.572 191.104 106.571 191.043 106.586 190.984C106.601 190.926 106.631 190.874 106.672 190.832L107.602 189.907C107.754 189.755 107.865 189.564 107.924 189.353C107.983 189.141 107.987 188.917 107.937 188.703L107.648 187.483C107.634 187.423 107.637 187.36 107.656 187.302C107.674 187.243 107.708 187.192 107.754 187.153C107.799 187.114 107.854 187.089 107.912 187.082C107.97 187.074 108.029 187.084 108.082 187.111L109.077 187.608C109.246 187.692 109.432 187.733 109.62 187.727C109.807 187.721 109.99 187.668 110.155 187.574C111.974 186.532 115.131 184.792 115.856 184.573C116.808 184.286 117.806 184.203 118.789 184.328C119.773 184.452 120.723 184.783 121.584 185.3C123.201 186.254 124.508 187.809 124.894 189.274C125.549 191.735 125.179 193.532 123.578 195.65C121.875 197.92 118.81 200.475 114.551 204.007C112.419 205.781 110.007 207.791 107.287 210.155C107.254 210.185 107.215 210.208 107.173 210.221C107.132 210.234 107.088 210.238 107.044 210.232C107.002 210.225 106.961 210.21 106.925 210.186C106.889 210.162 106.858 210.13 106.834 210.093C105.567 208.188 102.823 204.024 98.6884 197.56C97.1439 195.147 96.381 192.973 96.3568 190.915C96.3217 188.15 97.6802 185.558 100.4 183.208C100.58 183.054 100.714 182.848 100.783 182.616C100.853 182.383 100.856 182.134 100.792 181.899C100.728 181.664 100.599 181.455 100.423 181.297C100.246 181.139 100.029 181.039 99.7989 181.011C99.642 180.989 99.4825 181.001 99.3304 181.047C99.1783 181.093 99.0368 181.171 98.9148 181.277C95.6101 184.116 93.9551 187.383 94.0009 190.946C94.0333 193.501 94.9282 196.124 96.7341 198.948C102.699 208.273 105.812 212.875 105.842 212.92L106.179 213.414C106.23 213.491 106.296 213.555 106.372 213.604C106.448 213.653 106.533 213.685 106.621 213.698H106.705C106.856 213.697 107.003 213.641 107.12 213.539L107.562 213.15C110.775 210.311 113.562 208.001 116.036 205.943C120.373 202.281 123.53 199.666 125.4 197.171C126.337 195.998 127.004 194.614 127.349 193.126C127.642 191.619 127.571 190.058 127.144 188.587Z" fill="white"/>
<path d="M156.45 200.935C154.91 200.935 154.043 199.43 154.043 197.906C154.043 195.715 155.255 194.784 156.468 194.784C157.846 194.784 158.876 196.004 158.876 197.889C158.876 199.834 157.735 200.938 156.45 200.938M221.454 200.918C219.933 200.918 218.885 199.68 218.885 197.852C218.885 196.024 219.933 194.764 221.454 194.764C222.974 194.764 224.004 196.021 224.004 197.852C224.004 199.683 222.955 200.918 221.454 200.918ZM194.531 200.918C193.014 200.918 191.962 199.68 191.962 197.852C191.962 196.024 193.014 194.764 194.531 194.764C196.049 194.764 197.084 196.021 197.084 197.852C197.084 199.683 196.035 200.918 194.531 200.918ZM166.997 194.647C168.137 194.647 168.824 195.524 168.86 196.725H164.717C164.935 195.408 165.73 194.647 166.997 194.647ZM147.945 192.913C147.921 192.912 147.897 192.916 147.875 192.925C147.852 192.934 147.832 192.948 147.815 192.966C147.798 192.984 147.785 193.005 147.776 193.029C147.767 193.052 147.764 193.078 147.765 193.103V197.361C147.765 199.456 146.751 200.847 145.177 200.847C144.218 200.847 143.695 200.237 143.695 198.809V194.437C143.695 193.447 143.188 192.913 142.247 192.913H141.541C141.517 192.912 141.493 192.916 141.47 192.925C141.448 192.934 141.428 192.948 141.411 192.966C141.394 192.984 141.38 193.005 141.372 193.029C141.363 193.052 141.359 193.078 141.36 193.103V199.257C141.36 201.602 142.554 202.993 144.595 202.993C145.264 203.004 145.923 202.819 146.498 202.459C147.073 202.099 147.542 201.578 147.854 200.955H147.889V201.429C147.889 202.28 148.342 202.763 149.156 202.763H149.929C149.953 202.764 149.977 202.76 150 202.751C150.022 202.742 150.042 202.728 150.06 202.71C150.077 202.692 150.09 202.671 150.098 202.647C150.107 202.623 150.111 202.598 150.11 202.573V193.103C150.111 193.078 150.107 193.052 150.098 193.029C150.09 193.005 150.077 192.984 150.06 192.966C150.042 192.948 150.022 192.934 150 192.925C149.977 192.916 149.953 192.912 149.929 192.913H147.945ZM177.779 192.896C177.128 192.904 176.495 193.122 175.965 193.521C175.435 193.919 175.033 194.479 174.814 195.124H174.779V194.247C174.779 193.395 174.326 192.913 173.512 192.913H172.752C172.728 192.912 172.704 192.916 172.681 192.925C172.659 192.934 172.639 192.948 172.622 192.966C172.605 192.984 172.591 193.005 172.583 193.029C172.574 193.052 172.57 193.078 172.571 193.103V202.564C172.57 202.59 172.574 202.615 172.583 202.639C172.591 202.662 172.605 202.684 172.622 202.701C172.639 202.719 172.659 202.733 172.681 202.743C172.704 202.752 172.728 202.756 172.752 202.754H173.458C174.399 202.754 174.905 202.221 174.905 201.23V198.831C174.905 196.524 175.919 195.209 177.655 195.209H178.054C178.078 195.211 178.102 195.207 178.125 195.198C178.147 195.189 178.168 195.175 178.185 195.157C178.202 195.139 178.215 195.118 178.224 195.094C178.232 195.07 178.236 195.045 178.234 195.019V193.077C178.236 193.052 178.232 193.027 178.224 193.003C178.215 192.979 178.202 192.957 178.185 192.939C178.168 192.921 178.147 192.907 178.125 192.898C178.102 192.889 178.078 192.886 178.054 192.887L177.779 192.896ZM221.445 192.686C218.604 192.686 216.524 194.818 216.524 197.849C216.524 200.881 218.604 202.993 221.464 202.993C224.324 202.993 226.386 200.878 226.386 197.849C226.386 194.82 224.305 192.686 221.445 192.686ZM210.699 195.485C210.699 194.894 211.238 194.551 212.001 194.551C212.925 194.551 213.432 194.934 213.432 195.752C213.432 195.848 213.505 195.905 213.612 195.905H214.119C214.825 195.905 215.259 195.468 215.259 194.857C215.259 193.486 213.812 192.686 212.073 192.686C209.885 192.686 208.51 193.821 208.51 195.581C208.51 198.877 213.321 198.61 213.321 200.211C213.321 200.765 212.871 201.048 212.057 201.048C210.879 201.048 210.03 200.498 209.235 199.913C209.125 199.836 209.071 199.819 208.982 199.933L208.909 200.027C208.257 200.878 208.402 201.704 209.305 202.258C210.152 202.733 211.097 202.982 212.057 202.982C214.1 202.982 215.675 201.877 215.675 200.01C215.675 196.847 210.699 196.961 210.699 195.468M202.593 195.468C202.593 194.877 203.132 194.534 203.898 194.534C204.82 194.534 205.327 194.917 205.327 195.734C205.327 195.831 205.399 195.888 205.507 195.888H205.995C206.701 195.888 207.135 195.451 207.135 194.84C207.135 193.469 205.688 192.669 203.949 192.669C201.76 192.669 200.386 193.804 200.386 195.564C200.386 198.86 205.2 198.593 205.2 200.194C205.2 200.748 204.747 201.031 203.933 201.031C202.755 201.031 201.906 200.481 201.111 199.896C201 199.819 200.946 199.802 200.857 199.916L200.785 200.01C200.132 200.861 200.278 201.687 201.181 202.241C202.028 202.716 202.973 202.964 203.933 202.965C205.976 202.965 207.55 201.86 207.55 199.992C207.55 196.83 202.575 196.944 202.575 195.451M194.507 192.652C191.666 192.652 189.585 194.784 189.585 197.815C189.585 200.847 191.666 202.959 194.523 202.959C197.38 202.959 199.445 200.844 199.445 197.815C199.445 194.786 197.364 192.652 194.507 192.652ZM185.008 192.652C184.339 192.641 183.681 192.826 183.106 193.186C182.531 193.545 182.063 194.066 181.752 194.69H181.736V194.247C181.736 193.395 181.286 192.913 180.472 192.913H179.712C179.687 192.911 179.663 192.915 179.641 192.924C179.618 192.933 179.597 192.947 179.58 192.965C179.563 192.983 179.55 193.004 179.541 193.028C179.533 193.052 179.529 193.078 179.531 193.103V202.564C179.529 202.59 179.533 202.615 179.541 202.639C179.55 202.663 179.563 202.684 179.58 202.703C179.597 202.721 179.618 202.734 179.641 202.743C179.663 202.752 179.687 202.756 179.712 202.754H181.868V198.306C181.868 196.209 182.881 194.818 184.456 194.818C185.415 194.818 185.941 195.428 185.941 196.859V201.239C185.941 202.229 186.445 202.763 187.388 202.763H188.092C188.116 202.765 188.14 202.761 188.163 202.752C188.185 202.743 188.206 202.729 188.223 202.711C188.24 202.693 188.253 202.671 188.262 202.648C188.27 202.624 188.274 202.598 188.272 202.573V196.419C188.272 194.077 187.078 192.686 185.038 192.686M167.072 192.686C164.285 192.686 162.331 194.801 162.331 197.849C162.331 200.591 164.178 202.993 167.164 202.993C168.173 203.012 169.169 202.756 170.056 202.249C170.835 201.772 170.908 201.145 170.42 200.325L170.275 200.078C170.202 199.964 170.148 199.944 170.04 200.021C169.305 200.577 168.43 200.888 167.525 200.915C166.113 200.915 164.973 200.211 164.719 198.477H171.035C171.059 198.478 171.083 198.474 171.105 198.465C171.128 198.456 171.148 198.442 171.165 198.424C171.182 198.406 171.195 198.384 171.204 198.361C171.213 198.337 171.217 198.312 171.215 198.286V197.353C171.215 194.744 169.768 192.686 167.072 192.686ZM157.032 192.686C154.824 192.686 153.937 194.304 153.937 194.304H153.902V194.247C153.902 193.395 153.468 192.913 152.654 192.913H152.002C151.978 192.912 151.954 192.916 151.932 192.925C151.909 192.934 151.889 192.948 151.872 192.966C151.855 192.984 151.842 193.005 151.833 193.029C151.824 193.052 151.82 193.078 151.821 193.103V206.499C151.82 206.524 151.824 206.549 151.833 206.573C151.842 206.597 151.855 206.618 151.872 206.636C151.889 206.654 151.909 206.668 151.932 206.677C151.954 206.686 151.978 206.69 152.002 206.689H152.708C153.649 206.689 154.156 206.155 154.156 205.165V201.639H154.191C154.51 202.074 154.922 202.423 155.394 202.658C155.866 202.893 156.383 203.008 156.905 202.993C159.347 202.993 161.248 200.972 161.248 197.849C161.248 194.781 159.566 192.686 157.032 192.686ZM135.285 195.485C135.285 194.894 135.824 194.551 136.587 194.551C137.511 194.551 138.018 194.934 138.018 195.752C138.018 195.848 138.088 195.905 138.199 195.905H138.705C139.409 195.905 139.843 195.468 139.843 194.857C139.843 193.486 138.398 192.686 136.659 192.686C134.471 192.686 133.096 193.821 133.096 195.581C133.096 198.877 137.907 198.61 137.907 200.211C137.907 200.765 137.455 201.048 136.641 201.048C135.465 201.048 134.616 200.498 133.818 199.913C133.711 199.836 133.657 199.819 133.565 199.933L133.495 200.027C132.843 200.878 132.988 201.704 133.891 202.258C134.737 202.733 135.682 202.981 136.641 202.982C138.686 202.982 140.261 201.877 140.261 200.01C140.261 196.847 135.285 196.961 135.285 195.468" fill="white"/>
<g clip-path="url(#clip0_211_6203)">
<mask id="mask0_211_6203" style="mask-type:luminance" maskUnits="userSpaceOnUse" x="-110" y="35" width="540" height="246">
<path d="M430 35.9375H-110V280.47H430V35.9375Z" fill="white"/>
</mask>
<g mask="url(#mask0_211_6203)">
<path d="M458.109 118.579L-112.743 47.6777L-116.374 76.9173L454.477 147.818L458.109 118.579Z" fill="#F2BD49"/>
<path d="M-2.48046 74.7465C-2.64727 75.5184 -2.83953 76.6183 -2.9809 77.4099H-2.96677L-2.84236 77.4241C-2.07897 77.5174 -0.311849 77.5598 0.420445 76.9943L0.0981184 79.5842C-0.424948 78.9282 -2.18641 78.3826 -2.94698 78.2864L-3.09966 78.2695C-3.40876 80.1098 -3.57888 81.9707 -3.60858 83.8366C-2.27406 84.0713 -0.46736 83.9101 0.742763 82.9884L0.460024 85.2503L-6.04297 84.4445C-5.22469 80.903 -4.77556 77.2864 -4.70278 73.6523L1.80021 74.4581L1.51747 76.7201C0.533542 75.4873 -1.12614 74.8455 -2.48046 74.7465Z" fill="#F6EFE9"/>
<path d="M9.05284 83.616C8.81816 85.4905 7.07366 86.2596 4.85981 85.9853C3.21145 85.7818 1.52067 84.778 1.74969 82.9826C1.91085 81.6877 2.80148 81.0855 3.93809 81.2268C4.19453 81.2463 4.44206 81.3294 4.6583 81.4686C4.87453 81.6078 5.05263 81.7988 5.17649 82.0242C4.99201 81.9882 4.80209 81.9909 4.61871 82.0321C4.43533 82.0732 4.26246 82.152 4.11103 82.2633C3.9596 82.3746 3.83289 82.5161 3.73888 82.6788C3.64488 82.8416 3.58563 83.022 3.56487 83.2088C3.41785 84.3963 4.19255 84.9562 4.99553 85.0579C6.20283 85.205 6.95491 84.6847 7.09911 83.5368C7.43557 80.8112 2.21056 79.9573 2.62053 76.6521C2.76472 75.4929 3.82782 74.4185 6.01339 74.6899C8.50715 75.0009 9.53349 76.703 9.16028 78.0121L7.2122 78.2948C7.5628 77.5032 7.69569 75.7502 5.94836 75.5494C5.77649 75.5215 5.60071 75.5296 5.43213 75.5731C5.26354 75.6167 5.10582 75.6947 4.96896 75.8024C4.83209 75.91 4.71905 76.0449 4.637 76.1984C4.55495 76.352 4.50566 76.5209 4.49226 76.6945C4.13883 79.4456 9.45432 80.3701 9.05284 83.616Z" fill="#F6EFE9"/>
<path d="M12.1261 81.1082C11.7981 83.8593 12.7227 86.0448 14.5237 86.2682C15.4511 86.3841 16.3502 86.1805 16.6075 85.1146C16.6363 84.9618 16.642 84.8055 16.6245 84.6509L18.5075 84.8856C18.4199 86.6018 16.3135 87.368 14.4163 87.1305C11.1196 86.7206 9.60974 84.2212 10.048 80.8481C10.4862 77.475 12.5531 75.6259 15.7961 76.0274C17.9986 76.3101 19.548 77.5231 19.2144 79.2054L17.3002 78.9679C17.3657 78.8307 17.4078 78.6835 17.4246 78.5325C17.5406 77.6022 16.7404 77.0226 15.6886 76.8926C13.783 76.6551 12.4767 78.343 12.1261 81.1082Z" fill="#F6EFE9"/>
<path d="M29.9785 83.4351C29.5968 86.5113 27.2473 88.7675 24.1173 88.3774C20.9874 87.9872 19.2599 85.2276 19.6416 82.1571C20.0233 79.0866 22.3757 76.8105 25.5056 77.2007C28.6355 77.5909 30.363 80.3447 29.9785 83.4351ZM27.9004 83.175C28.2453 80.3985 27.1002 78.2836 25.3981 78.0857C23.6961 77.8877 22.0675 79.6436 21.7225 82.4229C21.3776 85.2022 22.5227 87.3171 24.2276 87.5291C25.9325 87.7412 27.5583 85.943 27.9004 83.175Z" fill="#F6EFE9"/>
<path d="M40.0547 79.2193C39.2448 82.7625 38.792 86.3779 38.7032 90.0114L36.4413 89.7287C36.567 89.3324 36.6615 88.9268 36.724 88.5157C36.2321 87.1529 34.4423 83.4264 33.2435 80.8507C32.7186 83.6119 32.4273 86.4124 32.3727 89.2226L30.0175 88.9398C30.8233 85.3962 31.2722 81.7808 31.3576 78.1477L33.7128 78.4304V78.4842H33.7553C34.414 80.7715 35.8956 83.9014 37.0266 86.1379C37.4297 83.7566 37.6536 81.3485 37.6966 78.9337L40.0547 79.2193Z" fill="#F6EFE9"/>
<path d="M49.7306 80.421L49.4479 82.6999C48.6858 81.8426 47.6826 81.2355 46.5696 80.9582C45.8593 84.2107 45.472 87.5254 45.4132 90.8541L43.0438 90.5713C43.7953 87.3325 44.2244 84.0272 44.3246 80.7037C43.2926 80.6302 41.715 80.9865 40.8441 81.6538L41.1269 79.3749L49.7306 80.421Z" fill="#F6EFE9"/>
<path d="M59.5697 87.1079C59.188 90.1841 56.8384 92.4404 53.7085 92.053C50.5786 91.6657 48.8511 88.9005 49.2328 85.8328C49.6145 82.765 51.9668 80.4862 55.0968 80.8735C58.2267 81.2609 59.9542 84.0204 59.5697 87.1079ZM57.4916 86.8506C57.8365 84.0713 56.6914 81.9564 54.9893 81.7444C53.2872 81.5323 51.6587 83.3051 51.3137 86.0844C50.9688 88.8637 52.111 90.9786 53.816 91.1907C55.5209 91.4027 57.1495 89.6158 57.4916 86.8506Z" fill="#F6EFE9"/>
<path d="M79.9438 89.6809C79.7233 91.4621 79.5678 93.2632 79.4575 95.0727L77.1956 94.79C77.3794 93.9757 77.5547 93.1501 77.6989 92.3302C76.586 91.9983 75.4274 91.8456 74.2665 91.8778C74.1871 92.7236 74.17 93.5741 74.2155 94.4224L71.931 94.1397C72.6011 91.5809 72.5333 88.8327 73.3249 86.3135C73.5722 85.4689 74.1112 84.7394 74.8461 84.2551C74.3767 84.3089 73.4804 84.716 73.062 84.9111L73.6727 83.3984L80.7949 84.2834C80.7638 84.5492 80.1672 87.8742 79.9438 89.6809ZM78.4821 84.8941L78.0806 84.8432C75.8639 84.5605 75.2221 86.3389 74.798 88.4086C74.6283 89.2087 74.5153 89.9608 74.4078 90.7581C75.5315 91.1069 76.7074 91.2571 77.8827 91.202C78.229 89.1159 78.4293 87.0081 78.4821 84.8941Z" fill="#F6EFE9"/>
<path d="M90.4675 85.4795L90.1847 87.7612C89.4211 86.9056 88.4169 86.3005 87.3036 86.0252C86.5946 89.2779 86.2072 92.5925 86.1472 95.921L83.7779 95.6383C84.5356 92.3906 84.9694 89.0758 85.0728 85.7424C84.0436 85.6689 82.4631 86.0252 81.5923 86.6924L81.875 84.4136L90.4675 85.4795Z" fill="#F6EFE9"/>
<path d="M93.7188 86.6921C93.552 87.4668 93.3597 88.5666 93.2212 89.3555L93.3456 89.3696C94.109 89.4657 95.8902 89.5081 96.6084 88.9398L96.2861 91.5297C95.763 90.8766 94.0016 90.3281 93.241 90.2348L93.0883 90.215C92.7795 92.0553 92.6093 93.9163 92.5794 95.7821C93.9139 96.0168 95.7206 95.8584 96.9336 94.9339L96.6508 97.1958L90.1478 96.3872C90.9678 92.846 91.417 89.2292 91.488 85.595L97.991 86.4008L97.7083 88.6627C96.7215 87.4385 95.0731 86.791 93.7188 86.6921ZM93.2721 85.1766L92.8791 84.9362L95.9213 82.9854L97.0834 83.7205L96.8911 84.0032C95.7291 84.3284 93.2721 85.1766 93.2721 85.1766Z" fill="#F6EFE9"/>
<path d="M115.382 95.0049C115 98.0896 112.634 99.4156 110.01 99.0905C106.521 98.6579 106.015 96.4129 106.145 94.7533L109.379 94.6119C109.097 95.7428 108.916 98.1716 110.143 98.3242C110.991 98.4289 111.438 97.2922 111.687 95.2905C112.21 91.0861 109.569 89.6979 106.951 89.336L107.641 83.6218L114.901 84.5238L114.494 88.1089C113.469 86.8271 112.192 85.7687 110.742 84.9988L110.208 88.533C112.116 88.9317 115.86 91.1681 115.382 95.0049Z" fill="#F6EFE9"/>
<path d="M127.512 93.546C126.992 97.7334 124.625 100.897 120.949 100.45C117.274 100.004 115.756 96.3366 116.273 92.1521C116.79 87.9676 119.182 84.7754 122.838 85.2307C126.494 85.6859 128.049 89.3417 127.512 93.546ZM123.457 93.0427C123.927 89.2625 123.52 86.5397 122.688 86.4408C121.69 86.3164 120.61 88.8497 120.144 92.6299C119.677 96.4101 120.096 99.1697 121.096 99.2913C121.922 99.3959 122.991 96.806 123.457 93.0427Z" fill="#F6EFE9"/>
<path d="M130.724 90.5489C129.743 90.4273 129.188 89.4999 129.344 88.2474C129.499 86.9949 130.254 86.2201 131.244 86.3417C132.233 86.4633 132.788 87.402 132.632 88.6574C132.477 89.9127 131.702 90.6563 130.724 90.5489ZM132.293 95.4403L129.895 95.1434C131.556 92.53 133.023 89.798 134.283 86.9694L136.678 87.2663C134.966 89.8443 133.497 92.576 132.29 95.4261L132.293 95.4403ZM130.8 89.9184C130.922 89.9325 131.156 89.2115 131.247 88.4849C131.337 87.7582 131.286 86.9892 131.168 86.9751C131.049 86.9609 130.82 87.7017 130.729 88.4199C130.639 89.138 130.69 89.8901 130.8 89.9042V89.9184ZM137.235 94.1086C137.08 95.3611 136.305 96.133 135.324 96.0114C134.343 95.8898 133.783 94.9511 133.938 93.6986C134.094 92.4461 134.871 91.6742 135.85 91.7958C136.828 91.9173 137.379 92.8419 137.235 94.0944V94.1086ZM135.838 93.9361C135.932 93.1868 135.892 92.4404 135.771 92.4263C135.649 92.4121 135.428 93.1218 135.335 93.8711C135.242 94.6203 135.284 95.3554 135.403 95.3696C135.522 95.3837 135.745 94.6712 135.838 93.922V93.9361Z" fill="#F6EFE9"/>
<path d="M151.372 98.3722C150.99 101.463 148.564 103.654 145.655 103.295L142.025 102.842C142.837 99.2999 143.286 95.6838 143.365 92.0502L146.732 92.4686C147.427 92.5459 148.099 92.7607 148.71 93.1005C149.321 93.4403 149.858 93.8983 150.289 94.4479C150.721 94.9974 151.04 95.6274 151.225 96.3012C151.411 96.975 151.461 97.679 151.372 98.3722ZM149.294 98.1149C149.639 95.3356 148.533 93.5911 146.427 93.3338C146.384 93.3338 145.805 93.2433 145.488 93.1896C144.923 96.179 144.545 99.2007 144.357 102.237C144.507 102.271 145.242 102.362 145.299 102.367C147.3 102.608 148.949 100.894 149.294 98.1149Z" fill="#F6EFE9"/>
<path d="M155.098 94.3148C154.932 95.0895 154.739 96.1894 154.598 96.9782H154.626L154.751 96.9923C155.511 97.0885 157.295 97.1309 158.011 96.5626L157.691 99.1525C157.165 98.4993 155.404 97.9508 154.643 97.8575L154.491 97.8377C154.183 99.6782 154.013 101.539 153.982 103.405C155.319 103.64 157.126 103.481 158.336 102.557L158.053 104.819L151.55 104.01C152.37 100.469 152.819 96.8519 152.89 93.2178L159.393 94.0264L159.11 96.2883C158.101 95.0725 156.45 94.4138 155.098 94.3148Z" fill="#F6EFE9"/>
<path d="M173.691 101.146C173.307 104.233 170.881 106.427 167.972 106.065L164.344 105.613C165.155 102.07 165.605 98.4544 165.684 94.8209L169.049 95.2394C169.744 95.317 170.416 95.5321 171.027 95.8722C171.638 96.2123 172.175 96.6705 172.607 97.2202C173.039 97.7699 173.358 98.4001 173.544 99.074C173.73 99.748 173.78 100.452 173.691 101.146ZM171.613 100.886C171.958 98.1092 170.853 96.3619 168.746 96.1074L167.808 95.9632C167.244 98.9528 166.866 101.974 166.677 105.011C166.829 105.042 167.565 105.132 167.618 105.141C169.612 105.378 171.268 103.665 171.613 100.886Z" fill="#F6EFE9"/>
<path d="M177.415 97.0887C177.248 97.8606 177.056 98.9605 176.914 99.7521L177.039 99.7691C177.802 99.8624 179.569 99.9048 180.302 99.3393L179.979 101.929C179.456 101.273 177.695 100.728 176.931 100.631L176.781 100.612C176.471 102.452 176.301 104.313 176.273 106.179C177.607 106.413 179.414 106.255 180.624 105.331L180.341 107.592L173.838 106.784C174.657 103.242 175.106 99.6257 175.178 95.9917L181.681 96.8003L181.399 99.0622C180.418 97.8295 178.766 97.1877 177.415 97.0887Z" fill="#F6EFE9"/>
<path d="M188.948 105.958C188.713 107.833 186.969 108.602 184.755 108.327C183.107 108.124 181.416 107.117 181.645 105.325C181.806 104.03 182.697 103.428 183.833 103.569C184.09 103.588 184.337 103.671 184.553 103.81C184.769 103.949 184.946 104.141 185.069 104.366C184.885 104.33 184.695 104.332 184.512 104.373C184.329 104.414 184.156 104.492 184.005 104.604C183.853 104.715 183.727 104.856 183.633 105.019C183.539 105.181 183.48 105.362 183.46 105.548C183.313 106.736 184.088 107.298 184.891 107.397C186.095 107.547 186.85 107.027 186.994 105.879C187.331 103.153 182.106 102.299 182.516 98.9943C182.66 97.8351 183.723 96.7606 185.909 97.0321C188.402 97.3431 189.429 99.0452 189.056 100.354L187.107 100.637C187.458 99.8425 187.591 98.1065 185.844 97.8888C185.671 97.86 185.494 97.8675 185.325 97.9108C185.155 97.9541 184.996 98.0322 184.858 98.1402C184.721 98.2481 184.607 98.3836 184.524 98.538C184.442 98.6923 184.392 98.8622 184.379 99.0367C184.031 101.785 189.35 102.707 188.948 105.958Z" fill="#F6EFE9"/>
<path d="M192.016 103.447C191.688 106.201 192.612 108.387 194.413 108.61C195.341 108.723 196.24 108.52 196.497 107.456C196.526 107.304 196.532 107.147 196.514 106.993L198.397 107.227C198.309 108.944 196.203 109.707 194.306 109.472C191.009 109.062 189.499 106.56 189.938 103.19C190.376 99.8197 192.443 97.9678 195.686 98.3834C197.888 98.6661 199.438 99.8763 199.101 101.561L197.19 101.324C197.255 101.187 197.297 101.04 197.314 100.888C197.43 99.9554 196.63 99.3787 195.578 99.2458C193.678 98.997 192.372 100.685 192.016 103.447Z" fill="#F6EFE9"/>
<path d="M209.874 105.777C209.492 108.851 207.142 111.107 204.012 110.72C200.883 110.332 199.155 107.567 199.537 104.499C199.918 101.432 202.271 99.1527 205.401 99.54C208.531 99.9274 210.258 102.687 209.874 105.777ZM207.795 105.517C208.14 102.738 206.995 100.623 205.29 100.411C203.585 100.199 201.96 101.972 201.615 104.751C201.27 107.53 202.415 109.645 204.12 109.857C205.825 110.069 207.451 108.282 207.795 105.517Z" fill="#F6EFE9"/>
<path d="M219.939 101.576C219.134 105.12 218.685 108.735 218.599 112.368L216.337 112.085C216.463 111.689 216.557 111.283 216.62 110.872C216.128 109.51 214.338 105.783 213.139 103.207C212.613 105.968 212.322 108.769 212.268 111.579L209.913 111.296C210.719 107.752 211.168 104.135 211.253 100.501L213.609 100.784V100.838H213.651C214.31 103.125 215.791 106.255 216.919 108.492C217.325 106.11 217.549 103.701 217.59 101.285L219.939 101.576Z" fill="#F6EFE9"/>
<path d="M229.617 102.763L229.334 105.042C228.572 104.185 227.569 103.578 226.456 103.301C225.746 106.553 225.358 109.868 225.3 113.196L222.93 112.914C223.681 109.675 224.11 106.37 224.211 103.046C223.179 102.973 221.601 103.329 220.731 103.996L221.013 101.717L229.617 102.763Z" fill="#F6EFE9"/>
<path d="M239.465 109.45C239.083 112.526 236.734 114.782 233.604 114.395C230.474 114.008 228.746 111.242 229.128 108.175C229.51 105.107 231.862 102.831 234.992 103.218C238.122 103.606 239.849 106.362 239.465 109.45ZM237.387 109.193C237.732 106.413 236.587 104.298 234.882 104.086C233.177 103.874 231.551 105.647 231.206 108.426C230.861 111.206 232.006 113.318 233.711 113.516C235.416 113.714 237.045 111.958 237.387 109.193Z" fill="#F6EFE9"/>
<path d="M259.839 112.037C259.615 113.818 259.463 115.619 259.35 117.429L257.088 117.146C257.272 116.335 257.447 115.506 257.588 114.689C256.476 114.356 255.317 114.203 254.156 114.237C254.077 115.083 254.061 115.933 254.108 116.781L251.823 116.499C252.493 113.954 252.425 111.192 253.217 108.672C253.464 107.828 254.003 107.098 254.738 106.614C254.269 106.665 253.373 107.075 252.954 107.27L253.565 105.757L260.684 106.642C260.653 106.891 260.062 110.213 259.839 112.037ZM258.391 107.231L257.99 107.18C255.773 106.897 255.131 108.675 254.704 110.745C254.537 111.545 254.422 112.297 254.317 113.095C255.441 113.443 256.617 113.594 257.792 113.538C258.137 111.452 258.337 109.344 258.391 107.231Z" fill="#F6EFE9"/>
<path d="M270.362 107.822L270.08 110.103C269.319 109.244 268.315 108.637 267.201 108.362C266.492 111.614 266.105 114.929 266.045 118.258L263.676 117.975C264.427 114.736 264.856 111.431 264.956 108.107C263.924 108.034 262.347 108.39 261.476 109.06L261.759 106.778L270.362 107.822Z" fill="#F6EFE9"/>
<path d="M273.614 109.034C273.447 109.809 273.255 110.909 273.113 111.698L273.238 111.712C274.001 111.808 275.782 111.848 276.501 111.282L276.204 113.875C275.681 113.222 273.919 112.673 273.159 112.58L273.006 112.56C272.696 114.4 272.525 116.261 272.497 118.127C273.832 118.362 275.638 118.204 276.848 117.279L276.566 119.541L270.063 118.735C270.881 115.194 271.33 111.577 271.403 107.943L277.906 108.749L277.623 111.011C276.617 109.775 274.965 109.133 273.614 109.034ZM273.156 107.524L272.763 107.284L275.805 105.333L276.964 106.068L276.775 106.351C275.638 106.682 273.156 107.513 273.156 107.513V107.524Z" fill="#F6EFE9"/>
<path d="M295.277 117.347C294.895 120.429 292.529 121.757 289.905 121.432C286.416 121 285.91 118.755 286.04 117.092L289.272 116.954C288.989 118.085 288.811 120.513 290.038 120.666C290.886 120.771 291.333 119.634 291.582 117.632C292.105 113.428 289.461 112.037 286.846 111.675L287.536 105.964L294.796 106.866L294.389 110.451C293.364 109.172 292.087 108.119 290.637 107.355L290.103 110.886C292.011 111.273 295.755 113.51 295.277 117.347Z" fill="#F6EFE9"/>
<path d="M307.407 115.888C306.887 120.072 304.52 123.239 300.845 122.79C297.169 122.34 295.651 118.678 296.168 114.491C296.686 110.304 299.078 107.117 302.733 107.573C306.389 108.028 307.93 111.684 307.407 115.888ZM303.347 115.385C303.816 111.602 303.409 108.882 302.578 108.783C301.58 108.658 300.5 111.192 300.033 114.972C299.567 118.752 299.985 121.509 300.986 121.633C301.817 121.738 302.886 119.148 303.347 115.385Z" fill="#F6EFE9"/>
<path d="M310.616 112.885C309.638 112.764 309.083 111.836 309.239 110.584C309.394 109.331 310.149 108.557 311.139 108.678C312.129 108.8 312.683 109.739 312.527 110.991C312.372 112.244 311.594 112.999 310.616 112.885ZM312.188 117.777L309.79 117.494C311.451 114.881 312.917 112.149 314.176 109.32L316.573 109.617C314.862 112.192 313.394 114.921 312.188 117.768V117.777ZM310.698 112.246C310.819 112.261 311.054 111.54 311.145 110.813C311.235 110.086 311.184 109.317 311.063 109.3C310.941 109.283 310.718 110.03 310.627 110.748C310.537 111.466 310.585 112.232 310.698 112.246ZM317.133 116.437C316.978 117.689 316.2 118.461 315.222 118.339C314.243 118.218 313.681 117.279 313.836 116.027C313.992 114.774 314.767 114.002 315.745 114.124C316.723 114.245 317.286 115.184 317.13 116.437H317.133ZM315.736 116.261C315.83 115.512 315.787 114.768 315.668 114.754C315.55 114.74 315.324 115.45 315.23 116.199C315.137 116.948 315.182 117.684 315.301 117.698C315.42 117.712 315.64 117.011 315.733 116.261H315.736Z" fill="#F6EFE9"/>
<path d="M331.267 120.714C330.883 123.804 328.46 125.996 325.55 125.634L321.92 125.184C322.733 121.642 323.182 118.026 323.26 114.392L326.628 114.811C327.322 114.888 327.995 115.103 328.605 115.442C329.216 115.782 329.753 116.24 330.185 116.79C330.617 117.339 330.935 117.969 331.121 118.643C331.307 119.317 331.356 120.021 331.267 120.714ZM329.189 120.457C329.534 117.678 328.429 115.933 326.322 115.676C326.28 115.676 325.7 115.585 325.384 115.532C324.818 118.521 324.441 121.543 324.253 124.579C324.402 124.61 325.138 124.704 325.194 124.709C327.196 124.95 328.844 123.236 329.189 120.457Z" fill="#F6EFE9"/>
<path d="M334.994 116.657C334.827 117.432 334.632 118.532 334.493 119.32L334.618 119.334C335.378 119.431 337.145 119.47 337.878 118.905L337.558 121.495C337.032 120.841 335.271 120.293 334.51 120.2L334.357 120.18C334.05 122.02 333.88 123.881 333.848 125.747C335.183 125.982 336.99 125.821 338.203 124.899L337.92 127.161L331.417 126.355C332.237 122.814 332.686 119.197 332.757 115.563L339.26 116.369L338.977 118.63C337.996 117.409 336.345 116.756 334.994 116.657Z" fill="#F6EFE9"/>
<path d="M353.587 123.488C353.202 126.575 350.776 128.766 347.867 128.407L344.237 127.955C345.051 124.413 345.5 120.797 345.577 117.163L348.944 117.581C349.639 117.659 350.311 117.874 350.922 118.214C351.533 118.554 352.07 119.012 352.503 119.562C352.935 120.112 353.253 120.742 353.439 121.416C353.625 122.09 353.675 122.794 353.587 123.488ZM351.509 123.228C351.853 120.448 350.745 118.704 348.639 118.446C348.599 118.446 348.017 118.356 347.7 118.302C347.138 121.292 346.76 124.314 346.569 127.35C346.722 127.384 347.454 127.474 347.511 127.48C349.515 127.72 351.161 126.007 351.509 123.228Z" fill="#F6EFE9"/>
<path d="M357.311 119.428C357.144 120.202 356.951 121.302 356.81 122.094H356.824L356.949 122.111C357.712 122.204 359.493 122.247 360.211 121.678L359.889 124.268C359.366 123.615 357.605 123.069 356.841 122.973L356.689 122.953C356.381 124.794 356.211 126.655 356.182 128.521C357.517 128.755 359.324 128.597 360.534 127.672L360.251 129.934L353.748 129.126C354.567 125.584 355.016 121.968 355.088 118.333L361.591 119.142L361.308 121.404C360.313 120.171 358.662 119.529 357.311 119.428Z" fill="#F6EFE9"/>
<path d="M368.843 128.3C368.608 130.175 366.864 130.944 364.65 130.669C363.002 130.466 361.311 129.459 361.54 127.667C361.701 126.372 362.592 125.77 363.728 125.911C363.985 125.929 364.232 126.012 364.448 126.151C364.664 126.291 364.841 126.482 364.964 126.708C364.78 126.672 364.59 126.674 364.407 126.715C364.224 126.756 364.051 126.834 363.9 126.946C363.748 127.057 363.622 127.198 363.528 127.361C363.434 127.523 363.375 127.704 363.355 127.89C363.208 129.078 363.983 129.64 364.786 129.739C365.99 129.889 366.745 129.366 366.886 128.221C367.226 125.495 362.001 124.642 362.411 121.336C362.555 120.174 363.615 119.103 365.804 119.374C368.297 119.682 369.324 121.387 368.95 122.696L367.002 122.979C367.353 122.187 367.483 120.451 365.739 120.234C365.566 120.205 365.389 120.212 365.22 120.256C365.05 120.299 364.891 120.377 364.753 120.485C364.616 120.593 364.502 120.728 364.419 120.883C364.337 121.037 364.287 121.207 364.274 121.382C363.929 124.127 369.245 125.043 368.843 128.3Z" fill="#F6EFE9"/>
<path d="M371.911 125.789C371.583 128.543 372.508 130.726 374.309 130.949C375.236 131.065 376.132 130.862 376.392 129.799C376.422 129.646 376.427 129.489 376.407 129.335L378.292 129.57C378.205 131.283 376.098 132.049 374.201 131.815C370.904 131.405 369.395 128.902 369.833 125.532C370.271 122.162 372.338 120.31 375.581 120.711C377.783 120.994 379.333 122.204 378.996 123.889L377.085 123.652C377.149 123.514 377.191 123.367 377.209 123.216C377.325 122.283 376.525 121.707 375.473 121.574C373.573 121.339 372.267 123.027 371.911 125.789Z" fill="#F6EFE9"/>
<path d="M389.769 128.116C389.387 131.193 387.037 133.449 383.908 133.061C380.778 132.674 379.05 129.909 379.432 126.841C379.813 123.773 382.163 121.497 385.296 121.885C388.428 122.272 390.148 125.043 389.769 128.116ZM387.691 127.859C388.036 125.08 386.89 122.965 385.185 122.753C383.481 122.541 381.855 124.314 381.51 127.093C381.165 129.872 382.31 131.984 384.015 132.196C385.72 132.408 387.346 130.624 387.691 127.87V127.859Z" fill="#F6EFE9"/>
<path d="M399.843 123.912C399.036 127.456 398.587 131.071 398.502 134.704L396.24 134.421C396.367 134.025 396.462 133.62 396.523 133.208C396.031 131.846 394.244 128.119 393.046 125.543C392.519 128.304 392.228 131.105 392.175 133.915L389.819 133.633C390.624 130.089 391.073 126.473 391.16 122.84L393.515 123.123V123.177H393.56C394.219 125.464 395.7 128.594 396.829 130.828C397.233 128.447 397.457 126.039 397.499 123.624L399.843 123.912Z" fill="#F6EFE9"/>
<path d="M409.512 125.105L409.23 127.384C408.468 126.526 407.465 125.919 406.351 125.642C405.641 128.895 405.254 132.21 405.195 135.538L402.826 135.256C403.575 132.016 404.004 128.711 404.106 125.388C403.074 125.314 401.497 125.671 400.626 126.338L400.909 124.059L409.512 125.105Z" fill="#F6EFE9"/>
<path d="M419.36 131.792C418.979 134.868 416.629 137.125 413.499 136.737C410.369 136.35 408.642 133.585 409.023 130.517C409.405 127.449 411.755 125.17 414.887 125.561C418.02 125.951 419.745 128.719 419.36 131.792ZM417.291 131.546C417.636 128.767 416.49 126.652 414.786 126.44C413.081 126.228 411.455 128.001 411.11 130.777C410.765 133.554 411.91 135.671 413.615 135.883C415.32 136.095 416.937 134.3 417.291 131.546Z" fill="#F6EFE9"/>
<path d="M509.136 80.9417L-227.406 132.704L-225.441 160.66L511.101 108.898L509.136 80.9417Z" fill="#E78941"/>
<path d="M302.321 105.8C302.34 106.057 302.394 109.269 302.516 110.997C302.637 112.724 302.821 114.409 303.047 116.117L300.89 116.27C300.912 115.478 300.924 114.672 300.907 113.883C299.807 113.778 298.697 113.847 297.619 114.09C297.701 114.893 297.841 115.688 298.04 116.47L295.854 116.626C296.01 114.112 295.444 111.559 295.721 109.063C295.8 108.23 296.169 107.451 296.765 106.863C296.215 107.113 295.696 107.428 295.221 107.802L295.504 106.278L302.312 105.8H302.321ZM300.276 106.798L299.892 106.826C297.771 106.973 297.497 108.743 297.477 110.753C297.477 111.534 297.477 112.258 297.545 113.015C298.658 113.136 299.783 113.062 300.87 112.795C300.811 110.784 300.613 108.781 300.276 106.798Z" fill="#F6EFE9"/>
<path d="M311.569 105.149L311.722 107.329C310.854 106.668 309.806 106.285 308.716 106.229C308.648 109.392 308.892 112.553 309.446 115.667L307.184 115.828C307.29 112.667 307.085 109.503 306.57 106.382C305.592 106.501 304.187 107.131 303.494 107.906L303.341 105.726L311.569 105.149Z" fill="#F6EFE9"/>
<path d="M314.826 105.684C314.826 106.436 314.826 107.499 314.849 108.262H314.968C315.694 108.212 317.354 107.929 317.931 107.264L318.106 109.741C317.498 109.227 315.754 109.037 315.024 109.091H314.88C314.93 110.865 315.112 112.634 315.426 114.381C316.715 114.355 318.372 113.875 319.333 112.798L319.486 114.963L313.266 115.402C313.381 111.946 313.138 108.487 312.539 105.082L318.759 104.643L318.912 106.812C317.767 105.817 316.107 105.534 314.826 105.684ZM314.122 104.361L313.712 104.208L316.192 101.827L317.411 102.299L317.286 102.608C316.271 103.119 314.122 104.361 314.122 104.361Z" fill="#F6EFE9"/>
<path d="M336.572 109.472C336.778 112.421 334.813 114.095 332.305 114.279C328.972 114.514 328.087 112.512 327.903 110.937L330.897 110.216C330.829 111.347 331.118 113.623 332.291 113.541C333.102 113.482 333.312 112.339 333.176 110.431C332.893 106.41 330.173 105.596 327.665 105.738L327.261 100.281L334.202 99.7915L334.485 103.213C333.295 102.207 331.909 101.459 330.416 101.013L330.566 104.406C332.41 104.403 336.311 105.817 336.572 109.472Z" fill="#F6EFE9"/>
<path d="M347.624 105.89C347.907 109.894 346.278 113.289 342.764 113.524C339.249 113.759 337.162 110.637 336.88 106.634C336.597 102.63 338.243 99.2175 341.74 98.9716C345.237 98.7256 347.341 101.858 347.624 105.89ZM343.747 106.173C343.493 102.56 342.616 100.097 341.822 100.153C340.866 100.221 340.321 102.783 340.575 106.396C340.83 110.01 341.729 112.509 342.687 112.441C343.479 112.373 344.002 109.775 343.747 106.162V106.173Z" fill="#F6EFE9"/>
<path d="M350.069 102.492C349.134 102.557 348.447 101.793 348.373 100.595C348.299 99.3957 348.851 98.5362 349.787 98.4683C350.723 98.4005 351.421 99.178 351.506 100.374C351.591 101.57 351.005 102.424 350.069 102.492ZM350.027 101.887C350.143 101.887 350.231 101.163 350.18 100.473C350.129 99.7831 349.945 99.0593 349.829 99.0791C349.713 99.0988 349.64 99.8227 349.688 100.507C349.736 101.191 349.922 101.895 350.027 101.887ZM352.43 106.77L350.14 106.931C351.211 104.187 352.079 101.368 352.736 98.4966L355.029 98.3354C353.904 101.061 353.034 103.884 352.43 106.77ZM356.801 104.621C356.886 105.817 356.301 106.682 355.368 106.747C354.435 106.812 353.731 106.04 353.649 104.841C353.567 103.642 354.147 102.78 355.082 102.715C356.018 102.65 356.717 103.422 356.801 104.621ZM355.467 104.714C355.416 103.999 355.241 103.3 355.125 103.317C355.009 103.334 354.933 104.033 354.983 104.748C355.034 105.463 355.207 106.142 355.323 106.133C355.439 106.125 355.518 105.429 355.467 104.714Z" fill="#F6EFE9"/>
<path d="M370.78 106.026C370.989 108.978 369.129 111.469 366.347 111.664L362.875 111.91C362.984 108.454 362.741 104.996 362.148 101.59L365.368 101.364C366.031 101.309 366.698 101.386 367.331 101.591C367.963 101.797 368.548 102.126 369.052 102.56C369.556 102.994 369.968 103.524 370.265 104.119C370.561 104.714 370.737 105.363 370.78 106.026ZM368.801 106.165C368.614 103.507 367.263 102.085 365.247 102.226C365.207 102.226 364.65 102.257 364.345 102.266C364.369 105.156 364.572 108.041 364.953 110.906C365.1 110.906 365.801 110.861 365.855 110.858C367.758 110.722 368.982 108.822 368.795 106.165H368.801Z" fill="#F6EFE9"/>
<path d="M373.514 101.553C373.5 102.308 373.514 103.368 373.537 104.132H373.655C374.382 104.081 376.042 103.795 376.621 103.134L376.794 105.61C376.186 105.096 374.441 104.906 373.712 104.957H373.568C373.618 106.731 373.8 108.498 374.113 110.244C375.403 110.219 377.06 109.741 378.021 108.661L378.174 110.83L371.953 111.265C372.069 107.809 371.825 104.351 371.227 100.945L377.447 100.51L377.6 102.676C376.454 101.697 374.795 101.4 373.514 101.553Z" fill="#F6EFE9"/>
<path d="M392.127 104.522C392.336 107.476 390.473 109.967 387.69 110.162L384.221 110.408C384.329 106.953 384.086 103.495 383.495 100.088L386.712 99.8622C387.375 99.8067 388.042 99.8837 388.674 100.089C389.307 100.294 389.892 100.623 390.396 101.057C390.9 101.49 391.313 102.02 391.61 102.615C391.907 103.21 392.083 103.858 392.127 104.522ZM390.147 104.663C389.961 102.005 388.609 100.583 386.596 100.725C386.557 100.725 386 100.756 385.694 100.764C385.718 103.654 385.921 106.54 386.302 109.405C386.449 109.405 387.15 109.359 387.204 109.357C389.096 109.21 390.32 107.321 390.147 104.663Z" fill="#F6EFE9"/>
<path d="M394.855 100.052C394.841 100.807 394.855 101.867 394.878 102.63H394.996C395.726 102.58 397.383 102.294 397.962 101.63L398.137 104.106C397.527 103.592 395.785 103.405 395.056 103.456H394.909C394.958 105.23 395.141 106.997 395.454 108.743C396.744 108.718 398.4 108.24 399.365 107.16L399.517 109.329L393.297 109.764C393.413 106.308 393.171 102.85 392.573 99.444L398.793 99.0085L398.946 101.174C397.781 100.196 396.136 99.8992 394.855 100.052Z" fill="#F6EFE9"/>
<path d="M407.245 106.221C407.369 108.014 405.87 109.049 403.764 109.201C402.189 109.312 400.428 108.684 400.306 106.968C400.219 105.729 400.939 105.005 402.028 104.929C402.271 104.899 402.517 104.931 402.744 105.022C402.972 105.112 403.173 105.258 403.329 105.447C403.15 105.446 402.973 105.483 402.809 105.555C402.646 105.627 402.498 105.732 402.378 105.863C402.257 105.995 402.164 106.15 402.107 106.319C402.049 106.489 402.027 106.668 402.042 106.846C402.041 107.057 402.085 107.266 402.172 107.458C402.258 107.651 402.385 107.822 402.544 107.961C402.703 108.1 402.89 108.203 403.092 108.264C403.294 108.324 403.507 108.34 403.716 108.311C404.87 108.229 405.477 107.601 405.412 106.507C405.231 103.9 400.196 104.061 399.973 100.9C399.896 99.789 400.691 98.593 402.783 98.446C405.166 98.2791 406.439 99.6787 406.328 100.971L404.561 101.587C404.745 100.784 404.561 99.1387 402.865 99.2546C402.698 99.2593 402.535 99.2987 402.384 99.3702C402.234 99.4416 402.1 99.5437 401.991 99.6698C401.882 99.7958 401.801 99.9432 401.752 100.102C401.704 100.262 401.689 100.429 401.709 100.595C401.892 103.227 407.024 103.111 407.245 106.221Z" fill="#F6EFE9"/>
<path d="M409.657 103.315C409.855 105.947 411.119 107.816 412.84 107.694C413.728 107.632 414.537 107.276 414.576 106.235C414.574 106.088 414.55 105.941 414.506 105.8L416.307 105.673C416.539 107.29 414.715 108.393 412.914 108.52C409.759 108.741 407.898 106.682 407.683 103.456C407.468 100.23 409.066 98.1208 412.165 97.9031C414.271 97.7561 415.942 98.61 415.939 100.244L414.11 100.371C414.145 100.231 414.157 100.086 414.147 99.9417C414.085 99.051 413.231 98.658 412.224 98.7287C410.386 98.856 409.476 100.671 409.657 103.315Z" fill="#F6EFE9"/>
<path d="M426.742 102.218C426.952 105.158 425.173 107.694 422.179 107.903C419.185 108.113 417.067 105.854 416.861 102.913C416.654 99.9727 418.433 97.4223 421.427 97.2103C424.421 96.9982 426.536 99.263 426.742 102.218ZM424.763 102.356C424.577 99.6984 423.121 97.9341 421.492 98.05C419.863 98.166 418.665 100.114 418.854 102.772C419.043 105.43 420.497 107.194 422.125 107.078C423.754 106.962 424.944 105 424.758 102.356H424.763Z" fill="#F6EFE9"/>
<path d="M435.386 96.4353C435.282 99.8908 435.525 103.348 436.109 106.755L433.952 106.908C433.995 106.516 434.007 106.12 433.989 105.726C433.279 104.544 430.927 101.392 429.335 99.209C429.35 101.882 429.591 104.55 430.056 107.182L427.794 107.341C427.895 103.885 427.652 100.428 427.067 97.0206L429.329 96.8622V96.9131L429.366 96.899C430.401 98.9121 432.357 101.561 433.822 103.442C433.762 101.145 433.53 98.8556 433.126 96.5936L435.386 96.4353Z" fill="#F6EFE9"/>
<path d="M5.28113 130.101C5.56387 134.105 3.9353 137.5 0.420854 137.735C-3.09359 137.97 -5.18303 134.848 -5.46294 130.848C-5.74285 126.847 -4.10014 123.431 -0.602659 123.185C2.89482 122.939 4.9984 126.083 5.28113 130.101ZM1.40478 130.384C1.15031 126.768 0.273825 124.308 -0.520671 124.362C-1.47633 124.429 -2.02202 126.991 -1.76755 130.607C-1.51309 134.224 -0.61397 136.717 0.341687 136.649C1.13618 136.587 1.6649 133.975 1.40478 130.375V130.384Z" fill="#F6EFE9"/>
<path d="M7.72628 126.703C6.79042 126.771 6.10336 126.004 6.02985 124.808C5.95634 123.612 6.50768 122.747 7.44355 122.682C8.37941 122.617 9.07777 123.389 9.16259 124.585C9.24742 125.781 8.66215 126.638 7.72628 126.703ZM7.68388 126.101C7.7998 126.101 7.88744 125.377 7.83655 124.687C7.78566 123.997 7.60188 123.273 7.48595 123.293C7.37003 123.313 7.29652 124.037 7.34459 124.724C7.39265 125.411 7.57926 126.106 7.68388 126.101ZM10.0872 130.981L7.79697 131.142C8.86757 128.399 9.73508 125.581 10.3925 122.71L12.6855 122.549C11.5604 125.273 10.6905 128.096 10.0872 130.981ZM14.4583 128.832C14.5431 130.031 13.9579 130.893 13.022 130.961C12.0861 131.029 11.3878 130.251 11.3058 129.055C11.2238 127.859 11.8034 126.994 12.7392 126.926C13.6751 126.858 14.3876 127.636 14.4583 128.832ZM13.1238 128.925C13.0729 128.21 12.8976 127.511 12.7817 127.531C12.6657 127.551 12.5894 128.244 12.6403 128.959C12.6912 129.674 12.8636 130.353 12.9796 130.344C13.0955 130.336 13.1747 129.643 13.1238 128.925Z" fill="#F6EFE9"/>
<path d="M28.4371 130.237C28.6464 133.191 26.7831 135.679 24.001 135.877L20.5318 136.121C20.6412 132.665 20.3977 129.207 19.8051 125.801L23.0255 125.574C23.6882 125.519 24.3551 125.597 24.9876 125.802C25.62 126.008 26.2051 126.337 26.7089 126.771C27.2127 127.205 27.6249 127.735 27.9217 128.33C28.2184 128.925 28.3936 129.573 28.4371 130.237ZM26.458 130.375C26.2685 127.718 24.917 126.298 22.9039 126.44C22.8643 126.44 22.3074 126.468 22.002 126.476C22.0258 129.367 22.2288 132.254 22.6099 135.12C22.7569 135.12 23.4581 135.072 23.5118 135.069C25.4146 134.939 26.6389 133.033 26.4523 130.375H26.458Z" fill="#F6EFE9"/>
<path d="M31.1713 125.767C31.1572 126.519 31.1714 127.582 31.194 128.345H31.2081H31.3269C32.0535 128.294 33.7103 128.009 34.29 127.347L34.4653 129.824C33.8574 129.309 32.1129 129.12 31.3834 129.171H31.2392C31.2881 130.945 31.4696 132.714 31.7821 134.461C33.0742 134.435 34.731 133.955 35.6923 132.878L35.845 135.043L29.6248 135.482C29.7405 132.026 29.497 128.567 28.8981 125.162L35.1184 124.723L35.2711 126.892C34.1118 125.911 32.4522 125.608 31.1713 125.767Z" fill="#F6EFE9"/>
<path d="M49.7784 128.736C49.9877 131.69 48.1244 134.178 45.3423 134.376L41.8702 134.619C41.9806 131.164 41.7381 127.706 41.1464 124.299L44.364 124.073C45.0268 124.018 45.6939 124.095 46.3265 124.301C46.9591 124.506 47.5444 124.836 48.0484 125.269C48.5524 125.703 48.9649 126.233 49.262 126.829C49.559 127.424 49.7346 128.072 49.7784 128.736ZM47.7993 128.874C47.6127 126.216 46.2612 124.797 44.2481 124.938C44.2085 124.938 43.6515 124.967 43.3461 124.975C43.3685 127.866 43.5715 130.753 43.954 133.618C44.0982 133.618 44.8022 133.57 44.856 133.568C46.7531 133.432 47.9774 131.546 47.7908 128.874H47.7993Z" fill="#F6EFE9"/>
<path d="M52.5127 124.265C52.4985 125.017 52.5127 126.078 52.5324 126.844H52.5579H52.6766C53.4061 126.793 55.063 126.507 55.6426 125.846L55.8179 128.323C55.2072 127.808 53.4627 127.619 52.736 127.669H52.589C52.6351 129.444 52.8137 131.212 53.1234 132.959C54.4127 132.934 56.0695 132.453 57.0337 131.373L57.1863 133.542L50.9661 133.98C51.0832 130.524 50.8397 127.066 50.2394 123.66L56.4597 123.222L56.6124 125.391C55.4503 124.409 53.7935 124.11 52.5127 124.265Z" fill="#F6EFE9"/>
<path d="M64.899 130.432C65.0263 132.225 63.5277 133.259 61.4213 133.412C59.8465 133.522 58.085 132.895 57.9634 131.178C57.8758 129.94 58.5968 129.216 59.6825 129.14C59.9257 129.11 60.1723 129.142 60.4 129.233C60.6277 129.323 60.8291 129.469 60.9859 129.657C60.8073 129.657 60.6306 129.695 60.4671 129.767C60.3035 129.838 60.1567 129.943 60.0358 130.075C59.9149 130.206 59.8226 130.362 59.7647 130.531C59.7068 130.7 59.6846 130.879 59.6995 131.057C59.7786 132.188 60.6042 132.575 61.3733 132.521C62.5268 132.439 63.1347 131.815 63.0697 130.718C62.8887 128.111 57.8532 128.272 57.6298 125.111C57.5535 124.002 58.348 122.806 60.4402 122.657C62.8237 122.49 64.096 123.892 63.9858 125.181L62.2186 125.801C62.4024 124.995 62.2186 123.349 60.5222 123.468C60.3559 123.472 60.1923 123.511 60.0418 123.583C59.8914 123.654 59.7575 123.756 59.6487 123.881C59.5399 124.007 59.4585 124.154 59.4098 124.314C59.3611 124.473 59.3461 124.64 59.3658 124.805C59.5496 127.438 64.6813 127.322 64.899 130.432Z" fill="#F6EFE9"/>
<path d="M67.3055 127.528C67.5034 130.158 68.7673 132.027 70.4891 131.905C71.3769 131.843 72.1856 131.489 72.2223 130.449C72.2225 130.301 72.1986 130.154 72.1516 130.013L73.9555 129.886C74.1874 131.503 72.3609 132.603 70.5457 132.731C67.3932 132.954 65.5299 130.893 65.3179 127.667C65.1058 124.441 66.6948 122.334 69.8049 122.114C71.9113 121.967 73.5823 122.821 73.5795 124.455L71.7502 124.585C71.7836 124.443 71.796 124.297 71.7869 124.152C71.7247 123.264 70.8708 122.869 69.8643 122.942C68.0435 123.064 67.133 124.882 67.3055 127.528Z" fill="#F6EFE9"/>
<path d="M84.3998 126.428C84.609 129.369 82.8306 131.905 79.8364 132.117C76.8422 132.329 74.7244 130.064 74.518 127.124C74.3116 124.183 76.0901 121.633 79.0843 121.424C82.0785 121.215 84.1934 123.474 84.3998 126.428ZM82.4206 126.57C82.2312 123.912 80.7779 122.148 79.1465 122.261C77.5151 122.374 76.3191 124.328 76.5113 126.985C76.7036 129.643 78.1541 131.405 79.7826 131.291C81.4112 131.178 82.5987 129.213 82.4149 126.57H82.4206Z" fill="#F6EFE9"/>
<path d="M93.032 120.649C92.9296 124.105 93.173 127.562 93.7586 130.969L91.6014 131.119C91.6446 130.726 91.6559 130.331 91.6353 129.937C90.9284 128.755 88.576 125.603 86.9842 123.42C86.9994 126.093 87.2406 128.76 87.7052 131.393L85.4433 131.551C85.5469 128.096 85.3045 124.639 84.7195 121.231L86.9814 121.073V121.127L87.021 121.11C88.0558 123.126 90.0124 125.775 91.4769 127.655C91.4176 125.357 91.1851 123.066 90.7814 120.802L93.032 120.649Z" fill="#F6EFE9"/>
<path d="M102.28 119.999L102.433 122.179C101.565 121.518 100.517 121.136 99.4275 121.084C99.3594 124.247 99.6037 127.408 100.157 130.522L97.8951 130.681C98.0022 127.519 97.7977 124.355 97.2844 121.234C96.3061 121.356 94.9009 121.986 94.2082 122.758L94.0555 120.578L102.28 119.999Z" fill="#F6EFE9"/>
<path d="M112.696 124.438C112.902 127.378 111.124 129.914 108.13 130.127C105.136 130.339 103.021 128.074 102.811 125.133C102.602 122.193 104.383 119.643 107.378 119.431C110.372 119.218 112.498 121.483 112.696 124.438ZM110.717 124.576C110.53 121.921 109.074 120.157 107.446 120.27C105.817 120.383 104.618 122.337 104.808 124.992C104.997 127.647 106.45 129.414 108.079 129.301C109.707 129.188 110.895 127.223 110.708 124.576H110.717Z" fill="#F6EFE9"/>
<path d="M131.99 117.907C132.01 118.167 132.061 121.376 132.182 123.106C132.304 124.837 132.491 126.519 132.717 128.227L130.557 128.379C130.582 127.588 130.591 126.782 130.576 125.993C129.476 125.886 128.366 125.956 127.288 126.199C127.37 127.002 127.511 127.798 127.709 128.58L125.524 128.733C125.679 126.222 125.114 123.669 125.391 121.172C125.466 120.338 125.836 119.559 126.434 118.973C125.884 119.222 125.365 119.537 124.891 119.911L125.173 118.387L131.982 117.907H131.99ZM129.943 118.908L129.561 118.933C127.441 119.083 127.167 120.853 127.147 122.863C127.147 123.641 127.161 124.367 127.215 125.125C128.327 125.246 129.453 125.171 130.54 124.905C130.48 122.894 130.28 120.89 129.943 118.908Z" fill="#F6EFE9"/>
<path d="M141.236 117.256L141.392 119.436C140.522 118.776 139.474 118.393 138.383 118.339C138.317 121.502 138.563 124.663 139.116 127.777L136.854 127.935C136.963 124.774 136.76 121.61 136.249 118.489C135.273 118.611 133.865 119.241 133.175 120.016L133.023 117.836L141.236 117.256Z" fill="#F6EFE9"/>
<path d="M144.496 117.794C144.496 118.546 144.496 119.606 144.518 120.369H144.637C145.367 120.318 147.023 120.033 147.603 119.371L147.778 121.848C147.168 121.333 145.426 121.144 144.697 121.195H144.549C144.599 122.969 144.782 124.738 145.095 126.485C146.384 126.46 148.041 125.979 149.005 124.899L149.158 127.067L142.938 127.503C143.054 124.047 142.812 120.589 142.214 117.183L148.434 116.747L148.587 118.913C147.433 117.935 145.777 117.638 144.496 117.794ZM143.789 116.468L143.379 116.315L145.861 113.937L147.08 114.409L146.956 114.715C145.941 115.229 143.789 116.468 143.789 116.468Z" fill="#F6EFE9"/>
<path d="M166.239 121.582C166.448 124.531 164.48 126.205 161.975 126.389C158.639 126.624 157.756 124.622 157.573 123.047L160.564 122.317C160.496 123.431 160.785 125.71 161.955 125.64C162.767 125.583 162.976 124.441 162.843 122.529C162.56 118.509 159.84 117.695 157.33 117.836L156.928 112.379L163.869 111.89L164.152 115.311C162.96 114.308 161.575 113.558 160.083 113.109L160.233 116.501C162.077 116.513 165.981 117.912 166.239 121.582Z" fill="#F6EFE9"/>
<path d="M177.294 118C177.577 122.001 175.948 125.396 172.433 125.634C168.919 125.871 166.83 122.747 166.55 118.743C166.27 114.74 167.912 111.327 171.41 111.081C174.907 110.835 177.011 113.979 177.294 118ZM173.417 118.282C173.163 114.666 172.286 112.206 171.489 112.263C170.533 112.328 169.991 114.89 170.245 118.506C170.5 122.122 171.399 124.616 172.354 124.551C173.149 124.477 173.672 121.87 173.417 118.271V118.282Z" fill="#F6EFE9"/>
<path d="M179.739 114.601C178.803 114.666 178.116 113.9 178.042 112.704C177.969 111.508 178.52 110.643 179.456 110.578C180.392 110.513 181.09 111.285 181.175 112.484C181.26 113.682 180.675 114.533 179.739 114.601ZM179.696 113.996C179.812 113.996 179.9 113.272 179.849 112.583C179.798 111.893 179.614 111.169 179.499 111.186C179.383 111.203 179.306 111.929 179.354 112.617C179.402 113.304 179.592 114.016 179.696 113.996ZM182.1 118.876L179.807 119.038C180.88 116.295 181.749 113.477 182.405 110.606L184.698 110.445C183.572 113.169 182.702 115.991 182.1 118.876ZM186.471 116.728C186.556 117.926 185.97 118.792 185.035 118.857C184.099 118.922 183.4 118.147 183.315 116.951C183.231 115.755 183.816 114.89 184.752 114.822C185.688 114.754 186.386 115.532 186.471 116.728ZM185.136 116.824C185.085 116.105 184.91 115.41 184.794 115.427C184.678 115.444 184.602 116.139 184.653 116.858C184.704 117.576 184.876 118.251 184.992 118.243C185.108 118.235 185.187 117.539 185.136 116.824Z" fill="#F6EFE9"/>
<path d="M200.45 118.133C200.659 121.087 198.796 123.578 196.014 123.773L192.545 124.017C192.654 120.561 192.41 117.103 191.818 113.697L195.036 113.47C195.698 113.415 196.366 113.493 196.998 113.698C197.631 113.903 198.216 114.233 198.72 114.667C199.224 115.101 199.637 115.631 199.934 116.226C200.231 116.821 200.406 117.469 200.45 118.133ZM198.471 118.274C198.284 115.616 196.933 114.194 194.92 114.336C194.88 114.336 194.323 114.364 194.018 114.372C194.042 117.263 194.245 120.15 194.626 123.016C194.773 123.016 195.474 122.97 195.528 122.965C197.428 122.832 198.652 120.929 198.451 118.274H198.471Z" fill="#F6EFE9"/>
<path d="M203.184 113.663C203.184 114.415 203.184 115.478 203.207 116.241H203.326C204.055 116.19 205.712 115.905 206.291 115.24L206.467 117.717C205.859 117.203 204.114 117.016 203.385 117.067H203.241C203.289 118.841 203.471 120.61 203.784 122.357C205.073 122.332 206.733 121.851 207.694 120.774L207.847 122.939L201.626 123.378C201.743 119.922 201.5 116.463 200.902 113.058L207.123 112.62L207.275 114.788C206.122 113.807 204.465 113.507 203.184 113.663Z" fill="#F6EFE9"/>
<path d="M221.791 116.632C221.997 119.586 220.137 122.077 217.355 122.272L213.883 122.515C213.993 119.06 213.751 115.602 213.159 112.195L216.377 111.969C217.039 111.914 217.706 111.991 218.339 112.197C218.972 112.402 219.557 112.732 220.061 113.165C220.565 113.599 220.977 114.129 221.275 114.725C221.572 115.32 221.747 115.968 221.791 116.632ZM219.812 116.773C219.625 114.115 218.274 112.693 216.261 112.834C216.221 112.834 215.664 112.863 215.356 112.871C215.381 115.762 215.584 118.648 215.964 121.514C216.111 121.514 216.812 121.469 216.866 121.464C218.766 121.331 219.99 119.428 219.803 116.773H219.812Z" fill="#F6EFE9"/>
<path d="M224.525 112.161C224.525 112.913 224.525 113.977 224.545 114.74H224.664C225.393 114.689 227.05 114.403 227.63 113.739L227.802 116.216C227.194 115.701 225.45 115.515 224.723 115.566H224.576C224.626 117.34 224.808 119.108 225.122 120.856C226.411 120.83 228.068 120.349 229.032 119.272L229.185 121.438L222.965 121.876C223.082 118.42 222.838 114.962 222.238 111.556L228.458 111.118L228.611 113.287C227.463 112.32 225.806 112.006 224.525 112.161Z" fill="#F6EFE9"/>
<path d="M236.903 118.328C237.031 120.123 235.532 121.155 233.426 121.308C231.851 121.421 230.089 120.793 229.968 119.077C229.88 117.839 230.601 117.112 231.687 117.036C231.93 117.006 232.177 117.038 232.404 117.129C232.632 117.219 232.834 117.365 232.99 117.553C232.812 117.553 232.635 117.591 232.471 117.663C232.308 117.734 232.161 117.839 232.04 117.971C231.919 118.103 231.827 118.258 231.769 118.427C231.711 118.596 231.689 118.775 231.704 118.953C231.783 120.084 232.609 120.471 233.378 120.417C234.528 120.335 235.139 119.711 235.074 118.614C234.89 116.01 229.858 116.168 229.634 113.007C229.558 111.899 230.352 110.703 232.445 110.556C234.828 110.386 236.098 111.788 235.99 113.08L234.223 113.697C234.407 112.894 234.223 111.248 232.527 111.364C232.36 111.369 232.196 111.408 232.046 111.48C231.896 111.551 231.762 111.653 231.653 111.779C231.544 111.905 231.463 112.053 231.414 112.212C231.365 112.371 231.351 112.539 231.37 112.704C231.563 115.334 236.694 115.221 236.903 118.328Z" fill="#F6EFE9"/>
<path d="M239.318 115.43C239.516 118.059 240.78 119.928 242.502 119.806C243.389 119.744 244.198 119.391 244.235 118.35C244.235 118.202 244.211 118.055 244.164 117.915L245.965 117.788C246.2 119.405 244.373 120.505 242.572 120.635C239.42 120.855 237.557 118.797 237.345 115.571C237.132 112.345 238.727 110.236 241.826 110.018C243.932 109.868 245.603 110.725 245.598 112.356L243.771 112.486C243.805 112.346 243.817 112.201 243.808 112.057C243.743 111.166 242.892 110.773 241.885 110.844C240.056 110.965 239.146 112.78 239.318 115.43Z" fill="#F6EFE9"/>
<path d="M256.412 114.324C256.619 117.268 254.84 119.804 251.846 120.013C248.852 120.222 246.737 117.963 246.531 115.02C246.324 112.077 248.1 109.529 251.094 109.32C254.088 109.111 256.206 111.37 256.412 114.324ZM254.433 114.466C254.247 111.808 252.79 110.044 251.162 110.16C249.533 110.275 248.334 112.224 248.527 114.881C248.719 117.539 250.169 119.303 251.798 119.187C253.427 119.071 254.611 117.109 254.433 114.466Z" fill="#F6EFE9"/>
<path d="M265.044 108.545C264.942 112.001 265.185 115.458 265.771 118.865L263.611 119.018C263.655 118.625 263.667 118.23 263.647 117.836C262.941 116.654 260.588 113.501 258.996 111.319C259.012 113.992 259.253 116.659 259.717 119.292L257.455 119.45C257.559 115.995 257.317 112.538 256.732 109.13L258.994 108.972V109.023H259.033C260.068 111.036 262.025 113.685 263.489 115.565C263.429 113.269 263.197 110.979 262.794 108.718L265.044 108.545Z" fill="#F6EFE9"/>
<path d="M274.29 107.895L274.445 110.075C273.576 109.414 272.527 109.032 271.437 108.978C271.371 112.14 271.616 115.301 272.169 118.415L269.907 118.574C270.015 115.413 269.809 112.248 269.294 109.128C268.318 109.249 266.91 109.88 266.22 110.654L266.068 108.474L274.29 107.895Z" fill="#F6EFE9"/>
<path d="M284.708 112.334C284.915 115.274 283.136 117.81 280.142 118.023C277.148 118.235 275.03 115.97 274.824 113.029C274.618 110.089 276.396 107.539 279.39 107.329C282.384 107.12 284.499 109.379 284.708 112.334ZM282.729 112.475C282.543 109.817 281.087 108.053 279.455 108.166C277.824 108.279 276.628 110.233 276.82 112.891C277.012 115.549 278.463 117.313 280.091 117.197C281.72 117.081 282.907 115.119 282.721 112.475H282.729Z" fill="#F6EFE9"/>
<path d="M537.807 53.9641L-159.453 87.9438L-157.822 121.406L539.438 87.4261L537.807 53.9641Z" fill="#CA2128"/>
<path d="M9.90382 99.636C10.0763 103.17 7.78893 106.099 4.45827 106.263L0.302003 106.464C0.523143 102.338 0.321346 98.1994 -0.300232 94.1141L3.5535 93.9246C4.34701 93.8758 5.14229 93.9855 5.89297 94.2472C6.64365 94.509 7.3347 94.9176 7.9258 95.4492C8.51691 95.9808 8.99625 96.6248 9.33586 97.3437C9.67546 98.0625 9.86854 98.8417 9.90382 99.636ZM7.52599 99.7519C7.37048 96.5711 5.7928 94.8379 3.38103 94.9453C3.33297 94.9453 2.6657 94.9623 2.30097 94.9651C2.25112 98.4243 2.41637 101.883 2.79576 105.322C2.97106 105.322 3.81079 105.288 3.873 105.285C6.16884 105.172 7.68149 102.933 7.52599 99.7519Z" fill="#F6EFE9"/>
<path d="M13.285 94.3631C13.2482 95.2622 13.2482 96.5317 13.2454 97.4449H13.2567H13.4009C14.2717 97.4025 16.2622 97.1056 16.9691 96.3281L17.1133 99.2912C16.4008 98.6607 14.3198 98.3921 13.4377 98.443H13.2624C13.2773 100.565 13.4502 102.683 13.7798 104.779C15.3207 104.779 17.314 104.25 18.4902 102.987L18.6174 105.579L11.1814 105.941C11.409 101.815 11.2071 97.6759 10.5792 93.5912L18.0152 93.2264L18.1424 95.822C16.7938 94.6119 14.8202 94.2245 13.285 94.3631Z" fill="#F6EFE9"/>
<path d="M27.9341 102.053C28.0387 104.199 26.2207 105.401 23.693 105.525C21.8071 105.616 19.7177 104.821 19.6187 102.769C19.5452 101.284 20.4274 100.436 21.7251 100.374C22.0166 100.345 22.3107 100.389 22.5804 100.503C22.8502 100.617 23.0869 100.797 23.2689 101.027C22.333 101.072 21.6488 101.725 21.694 102.667C21.7619 104.024 22.7373 104.502 23.6591 104.459C25.0388 104.392 25.7796 103.656 25.7174 102.345C25.5647 99.2344 19.5424 99.2881 19.3586 95.5051C19.2936 94.179 20.2747 92.7682 22.7797 92.6466C25.6326 92.508 27.117 94.213 26.953 95.7567L24.824 96.4494C25.0643 95.4938 24.872 93.5203 22.8759 93.622C22.6771 93.6239 22.4808 93.667 22.2995 93.7488C22.1183 93.8305 21.956 93.9491 21.8231 94.0969C21.6901 94.2448 21.5894 94.4187 21.5273 94.6075C21.4651 94.7964 21.443 94.9962 21.4622 95.1941C21.6177 98.3381 27.7503 98.3325 27.9341 102.053Z" fill="#F6EFE9"/>
<path d="M30.88 98.6435C31.0496 101.79 32.5114 104.058 34.5726 103.956C35.6357 103.905 36.6026 103.501 36.6846 102.26C36.6868 102.083 36.662 101.906 36.6111 101.737L38.7684 101.632C39.0059 103.569 36.7892 104.838 34.6206 104.946C30.8489 105.129 28.6831 102.619 28.5022 98.7594C28.3212 94.9 30.2919 92.4204 34.0014 92.2394C36.5235 92.115 38.497 93.1781 38.4517 95.1319L36.2633 95.2393C36.3072 95.0715 36.3253 94.898 36.3171 94.7247C36.2633 93.6588 35.254 93.1668 34.0552 93.2262C31.8781 93.3308 30.7415 95.4768 30.88 98.6435Z" fill="#F6EFE9"/>
<path d="M51.3417 97.7671C51.5142 101.287 49.323 104.27 45.7378 104.448C42.1527 104.626 39.6844 101.867 39.5176 98.3468C39.3508 94.8267 41.5363 91.824 45.1186 91.6487C48.7009 91.4734 51.1693 94.2244 51.3417 97.7671ZM48.9639 97.8831C48.8084 94.7023 47.1119 92.5591 45.1639 92.6524C43.2158 92.7457 41.7343 95.0472 41.8898 98.2308C42.0453 101.414 43.7389 103.555 45.6898 103.462C47.6407 103.368 49.1166 101.05 48.9639 97.8831Z" fill="#F6EFE9"/>
<path d="M61.8061 91.0833C61.5943 95.2097 61.796 99.347 62.4083 103.433L59.8241 103.561C59.8868 103.092 59.9114 102.619 59.8976 102.147C59.0805 100.733 56.3521 96.8879 54.5058 94.2301C54.4553 97.4256 54.6747 100.62 55.1617 103.778L52.4672 103.911C52.6777 99.7837 52.476 95.6456 51.865 91.5583L54.5595 91.4282V91.4904L54.6076 91.4706C55.7894 93.905 58.0626 97.1254 59.7619 99.4071C59.7501 96.6614 59.5317 93.9206 59.1088 91.2077L61.8061 91.0833Z" fill="#F6EFE9"/>
<path d="M72.8727 90.5487L72.9999 93.1556C71.9787 92.3438 70.7359 91.8598 69.4346 91.7673C69.2739 95.5488 69.486 99.3369 70.0679 103.077L67.3565 103.21C67.5643 99.433 67.4005 95.6449 66.8673 91.9002C65.6968 92.0161 64.0003 92.7343 63.1521 93.6419L63.0249 91.035L72.8727 90.5487Z" fill="#F6EFE9"/>
<path d="M85.2084 96.1159C85.3809 99.636 83.1897 102.619 79.6045 102.797C76.0194 102.975 73.5511 100.213 73.3843 96.6927C73.2175 93.1726 75.403 90.1699 78.9853 89.9974C82.5676 89.825 85.0359 92.5788 85.2084 96.1159ZM82.8306 96.2318C82.6751 93.051 80.9787 90.905 79.0306 91.0011C77.0825 91.0973 75.601 93.3959 75.7565 96.5768C75.912 99.7576 77.6056 101.904 79.5565 101.807C81.5074 101.711 82.9833 99.3957 82.8306 96.2318Z" fill="#F6EFE9"/>
<path d="M108.54 95.0217C108.642 97.0602 108.823 99.1101 109.046 101.157L106.462 101.284C106.513 100.337 106.544 99.3758 106.547 98.4315C105.235 98.277 103.906 98.3314 102.611 98.5927C102.688 99.5552 102.836 100.511 103.055 101.451L100.437 101.578C100.689 98.5785 100.078 95.5136 100.474 92.5307C100.586 91.5365 101.048 90.6146 101.777 89.9295C101.26 90.0766 100.338 90.7099 99.9053 91.0096L100.296 89.1944L108.444 88.7986C108.453 89.1153 108.433 92.9548 108.54 95.0217ZM105.973 89.9493L105.512 89.972C102.967 90.0935 102.603 92.2028 102.529 94.6032C102.495 95.5362 102.504 96.4014 102.549 97.3119C103.876 97.4844 105.223 97.4241 106.53 97.1337C106.509 94.7287 106.32 92.3281 105.964 89.9493H105.973Z" fill="#F6EFE9"/>
<path d="M119.502 88.2672L119.629 90.8741C118.608 90.0628 117.367 89.5789 116.066 89.4858C115.905 93.2672 116.116 97.0554 116.697 100.795L113.985 100.928C114.195 97.1515 114.031 93.3633 113.496 89.6187C112.326 89.7375 110.629 90.4528 109.784 91.3604L109.657 88.7535L119.502 88.2672Z" fill="#F6EFE9"/>
<path d="M123.384 88.9909C123.347 89.89 123.347 91.1595 123.344 92.0727H123.488C124.359 92.0303 126.347 91.7306 127.056 90.9418L127.201 93.9077C126.488 93.2772 124.407 93.0057 123.525 93.0595H123.35C123.363 95.1815 123.536 97.2995 123.867 99.3956C125.408 99.3956 127.401 98.8669 128.577 97.6031L128.705 100.196L121.269 100.561C121.506 96.4342 121.315 92.2944 120.698 88.2077L128.134 87.8458L128.261 90.4385C126.892 89.2368 124.919 88.8523 123.384 88.9909ZM122.575 87.3877L122.089 87.1955L125.114 84.4161L126.559 85.0127L126.4 85.3746C125.173 85.9627 122.575 87.3877 122.575 87.3877Z" fill="#F6EFE9"/>
<path d="M149.271 94.0772C149.443 97.6058 147.051 99.5567 144.052 99.7009C140.059 99.8959 139.056 97.4814 138.877 95.5955L142.468 94.8095C142.358 96.1412 142.643 98.8866 144.046 98.8159C145.018 98.7706 145.298 97.4022 145.177 95.1177C144.942 90.3111 141.71 89.2621 138.711 89.3668L138.368 82.8355L146.678 82.4283L146.921 86.5252C145.523 85.2934 143.887 84.3618 142.115 83.7883L142.205 87.8513C144.428 87.9107 149.059 89.7004 149.271 94.0772Z" fill="#F6EFE9"/>
<path d="M162.577 90.0795C162.809 94.8691 160.779 98.8868 156.569 99.0904C152.359 99.294 149.947 95.4968 149.715 90.7072C149.483 85.9176 151.533 81.8773 155.721 81.6737C159.908 81.4701 162.342 85.2673 162.577 90.0795ZM157.937 90.3057C157.725 85.977 156.736 83.0139 155.788 83.0591C154.643 83.1157 153.928 86.1693 154.137 90.4895C154.347 94.8098 155.362 97.8238 156.504 97.7672C157.454 97.722 158.147 94.6118 157.937 90.3057Z" fill="#F6EFE9"/>
<path d="M165.586 86.0787C164.455 86.1353 163.663 85.2023 163.606 83.7688C163.55 82.3353 164.231 81.3203 165.365 81.2637C166.499 81.2072 167.302 82.1515 167.37 83.585C167.438 85.0185 166.705 86.025 165.586 86.0787ZM165.552 85.3578C165.69 85.3578 165.812 84.5095 165.769 83.6613C165.727 82.8131 165.523 81.9649 165.385 81.9847C165.246 82.0045 165.139 82.8697 165.178 83.6811C165.218 84.4926 165.424 85.3634 165.552 85.3578ZM168.297 91.2529L165.554 91.3858C166.906 88.1345 168.016 84.7882 168.877 81.374L171.619 81.2411C170.203 84.468 169.091 87.8197 168.297 91.2529ZM173.57 88.7959C173.641 90.2294 172.923 91.2472 171.8 91.3009C170.678 91.3547 169.866 90.4131 169.796 88.9796C169.725 87.5462 170.446 86.5283 171.566 86.4746C172.685 86.4209 173.508 87.3624 173.57 88.7959ZM171.973 88.875C171.93 88.0268 171.741 87.1786 171.602 87.1984C171.464 87.2182 171.351 88.0466 171.393 88.8948C171.435 89.743 171.628 90.5658 171.766 90.5573C171.905 90.5488 172.021 89.7317 171.978 88.875H171.973Z" fill="#F6EFE9"/>
<path d="M190.252 90.8315C190.424 94.3657 188.134 97.2949 184.803 97.456L180.65 97.6596C180.87 93.5332 180.668 89.3951 180.048 85.3096L183.901 85.1201C184.695 85.0717 185.49 85.1816 186.24 85.4435C186.991 85.7054 187.682 86.1141 188.273 86.6456C188.864 87.1772 189.343 87.821 189.683 88.5397C190.023 89.2583 190.216 90.0374 190.252 90.8315ZM187.871 90.9474C187.715 87.7666 186.138 86.0334 183.729 86.1408C183.681 86.1408 183.014 86.1606 182.649 86.1635C182.604 89.619 182.772 93.074 183.152 96.5089C183.327 96.5089 184.167 96.4749 184.232 96.4721C186.511 96.3703 188.024 94.131 187.868 90.9502L187.871 90.9474Z" fill="#F6EFE9"/>
<path d="M193.627 85.5612C193.593 86.4603 193.591 87.7298 193.588 88.643H193.605H193.746C194.62 88.6006 196.607 88.3037 197.317 87.5262L197.461 90.4893C196.746 89.8588 194.668 89.5902 193.786 89.6411H193.613C193.627 91.763 193.799 93.8809 194.128 95.9773C195.671 95.9773 197.662 95.4486 198.841 94.1819L198.968 96.7774L191.529 97.1393C191.76 93.0129 191.558 88.8737 190.927 84.7893L198.366 84.4246L198.49 87.0201C197.139 85.8072 195.163 85.4085 193.627 85.5612Z" fill="#F6EFE9"/>
<path d="M215.791 89.5873C215.964 93.1215 213.674 96.0507 210.343 96.2118L206.19 96.4154C206.409 92.289 206.208 88.1509 205.587 84.0654L209.438 83.8759C210.232 83.8271 211.027 83.9367 211.778 84.1985C212.529 84.4602 213.22 84.8687 213.812 85.4003C214.403 85.9319 214.882 86.5759 215.222 87.2948C215.562 88.0136 215.756 88.7929 215.791 89.5873ZM213.411 89.7032C213.255 86.5224 211.677 84.7892 209.269 84.8966C209.22 84.8966 208.553 84.9164 208.188 84.9192C208.142 88.3748 208.31 91.8299 208.692 95.2647C208.867 95.2647 209.707 95.2307 209.772 95.2279C212.054 95.1233 213.566 92.884 213.411 89.7004V89.7032Z" fill="#F6EFE9"/>
<path d="M219.173 84.3285C219.136 85.2276 219.133 86.4971 219.13 87.4104H219.147H219.289C220.162 87.3679 222.15 87.0711 222.86 86.2935L223.004 89.2566C222.289 88.6261 220.211 88.3575 219.328 88.4084H219.156C219.17 90.5303 219.342 92.6482 219.671 94.7446C221.214 94.7446 223.205 94.2159 224.384 92.9492L224.511 95.5448L217.075 95.9067C217.302 91.7801 217.099 87.6412 216.47 83.5566L223.909 83.1919L224.033 85.7874C222.682 84.5604 220.705 84.1617 219.173 84.3285Z" fill="#F6EFE9"/>
<path d="M233.819 92.002C233.924 94.1508 232.123 95.3524 229.578 95.4768C227.692 95.5673 225.603 94.7728 225.501 92.7173C225.43 91.2357 226.309 90.3875 227.61 90.3253C227.901 90.296 228.195 90.3405 228.464 90.4547C228.733 90.5688 228.97 90.7489 229.151 90.9784C228.215 91.0237 227.534 91.674 227.579 92.6155C227.644 93.9755 228.622 94.4533 229.541 94.4081C230.921 94.343 231.664 93.6079 231.599 92.296C231.447 89.1859 225.427 89.2396 225.244 85.4566C225.178 84.1305 226.157 82.7196 228.662 82.5981C231.517 82.4567 232.999 84.1644 232.835 85.7082L230.709 86.4009C230.946 85.4452 230.757 83.4717 228.758 83.5735C228.559 83.5745 228.363 83.617 228.181 83.6983C228 83.7796 227.837 83.8979 227.704 84.0456C227.571 84.1934 227.47 84.3672 227.408 84.5562C227.346 84.7451 227.325 84.9449 227.344 85.1427C227.503 88.2868 233.638 88.2868 233.819 92.002Z" fill="#F6EFE9"/>
<path d="M236.768 88.5924C236.938 91.7421 238.399 94.0097 240.46 93.9079C241.524 93.857 242.488 93.4527 242.57 92.2114C242.575 92.0342 242.55 91.8573 242.496 91.6884L244.654 91.5838C244.891 93.5205 242.674 94.79 240.509 94.8975C236.734 95.0812 234.571 92.5705 234.39 88.7111C234.209 84.8518 236.177 82.3693 239.889 82.1884C242.409 82.0668 244.385 83.1299 244.337 85.0836L242.148 85.1882C242.194 85.0216 242.212 84.8488 242.202 84.6765C242.151 83.6105 241.142 83.1186 239.94 83.1779C237.752 83.2826 236.621 85.4285 236.768 88.5924Z" fill="#F6EFE9"/>
<path d="M257.227 87.7212C257.399 91.2413 255.208 94.2242 251.626 94.4024C248.043 94.5805 245.569 91.8181 245.405 88.298C245.241 84.7779 247.424 81.7781 251.009 81.6028C254.594 81.4275 257.054 84.1842 257.227 87.7212ZM254.849 87.8372C254.693 84.6563 253 82.5104 251.049 82.6065C249.098 82.7026 247.622 85.0013 247.778 88.1821C247.933 91.3629 249.627 93.5089 251.578 93.4156C253.529 93.3223 254.999 91.001 254.849 87.8343V87.8372Z" fill="#F6EFE9"/>
<path d="M267.691 81.0345C267.477 85.158 267.677 89.2924 268.287 93.3761L265.703 93.5033C265.764 93.0347 265.789 92.5621 265.776 92.0896C264.959 90.6759 262.228 86.8307 260.382 84.1729C260.333 87.3685 260.553 90.5625 261.041 93.721L258.343 93.8539C258.557 89.7265 258.355 85.5881 257.741 81.5011L260.435 81.371V81.4332L260.481 81.4134C261.665 83.8478 263.936 87.0682 265.638 89.3499C265.625 86.6042 265.406 83.8633 264.982 81.1505L267.691 81.0345Z" fill="#F6EFE9"/>
<path d="M278.749 80.4944L278.876 83.1012C277.854 82.2899 276.612 81.806 275.311 81.713C275.149 85.4944 275.36 89.2825 275.941 93.0225L273.23 93.1554C273.44 89.3787 273.276 85.5904 272.74 81.8459C271.573 81.9646 269.873 82.6941 269.028 83.5904L268.901 80.9835L278.749 80.4944Z" fill="#F6EFE9"/>
<path d="M291.093 86.0677C291.266 89.5878 289.074 92.5707 285.492 92.7488C281.91 92.9269 279.436 90.1646 279.272 86.6445C279.108 83.1244 281.288 80.1217 284.873 79.9464C288.458 79.7711 290.921 82.5306 291.093 86.0677ZM288.715 86.1836C288.56 83.0028 286.866 80.8568 284.915 80.9529C282.964 81.0491 281.489 83.3477 281.644 86.5285C281.8 89.7094 283.493 91.8553 285.444 91.7592C287.395 91.6631 288.871 89.3475 288.715 86.1836Z" fill="#F6EFE9"/>
<path d="M314.418 84.9733C314.517 87.0119 314.701 89.0617 314.925 91.1087L312.34 91.236C312.388 90.2888 312.422 89.3275 312.422 88.3831C311.111 88.2287 309.784 88.2831 308.489 88.5443C308.565 89.5068 308.713 90.4622 308.931 91.4028L306.315 91.53C306.564 88.5302 305.953 85.4653 306.349 82.4824C306.463 81.4887 306.925 80.5674 307.653 79.8812C307.135 80.031 306.213 80.6644 305.784 80.9641L306.171 79.1489L314.322 78.7531C314.336 79.0669 314.317 82.915 314.418 84.9733ZM311.848 79.901L311.39 79.9208C308.846 80.0452 308.478 82.1544 308.405 84.5549C308.371 85.4851 308.382 86.3531 308.427 87.2635C309.754 87.4359 311.102 87.3756 312.408 87.0854C312.389 84.6805 312.202 82.2798 311.848 79.901Z" fill="#F6EFE9"/>
<path d="M325.401 78.2184L325.528 80.8252C324.506 80.0139 323.264 79.53 321.963 79.437C321.801 83.2184 322.012 87.0065 322.593 90.7465L319.882 90.8794C320.092 87.1028 319.929 83.3146 319.395 79.5699C318.225 79.6858 316.525 80.404 315.68 81.3115L315.553 78.7047L325.401 78.2184Z" fill="#F6EFE9"/>
<path d="M329.268 78.9396C329.234 79.8415 329.231 81.1082 329.229 82.0214H329.246H329.387C330.261 81.979 332.248 81.6793 332.958 80.8905L333.102 83.8564C332.387 83.2259 330.309 82.9545 329.426 83.0082H329.251C329.266 85.1301 329.439 87.2481 329.769 89.3444C331.312 89.3444 333.303 88.8156 334.482 87.5518L334.609 90.1445L327.17 90.5092C327.398 86.3819 327.196 82.242 326.568 78.1564L334.004 77.7945L334.131 80.3872C332.777 79.1884 330.803 78.7897 329.268 78.9396ZM328.459 77.3393L327.973 77.147L331.001 74.3677L332.446 74.9643L332.288 75.3262C331.055 75.9143 328.459 77.3393 328.459 77.3393Z" fill="#F6EFE9"/>
<path d="M355.159 84.0287C355.331 87.5573 352.939 89.5054 349.94 89.6524C345.947 89.8475 344.944 87.4329 344.763 85.547L348.359 84.761C348.252 86.0927 348.537 88.8381 349.94 88.7674C350.909 88.7222 351.189 87.3537 351.071 85.0692C350.836 80.2626 347.604 79.2137 344.602 79.3183L344.262 72.787L352.569 72.3799L352.812 76.4739C351.413 75.2441 349.778 74.3137 348.006 73.7399L348.096 77.8C350.316 77.8622 354.944 79.6378 355.159 84.0287Z" fill="#F6EFE9"/>
<path d="M368.461 80.0311C368.696 84.8207 366.663 88.8356 362.456 89.042C358.249 89.2484 355.834 85.4597 355.6 80.6532C355.365 75.8466 357.418 71.8232 361.605 71.6055C365.792 71.3878 368.227 75.2189 368.461 80.0311ZM363.822 80.2573C363.61 75.9286 362.623 72.9655 361.673 73.0107C360.542 73.0673 359.812 76.1209 360.024 80.4411C360.237 84.7614 361.246 87.7754 362.391 87.7188C363.341 87.6736 364.031 84.5634 363.822 80.2573Z" fill="#F6EFE9"/>
<path d="M371.487 76.0302C370.356 76.0839 369.564 75.1537 369.507 73.7202C369.451 72.2867 370.132 71.2717 371.263 71.2151C372.394 71.1586 373.2 72.1029 373.271 73.5364C373.341 74.9699 372.592 75.9765 371.487 76.0302ZM371.45 75.3064C371.588 75.3064 371.71 74.4582 371.67 73.6099C371.631 72.7617 371.424 71.9135 371.286 71.9333C371.147 71.9531 371.037 72.8154 371.08 73.6297C371.122 74.444 371.311 75.3149 371.436 75.3064H371.45ZM374.198 81.2015L371.456 81.3372C372.801 78.0846 373.906 74.7373 374.761 71.3226L377.503 71.1897C376.089 74.4167 374.977 77.7684 374.184 81.2015H374.198ZM379.477 78.7473C379.545 80.1808 378.827 81.1987 377.707 81.2524C376.587 81.3061 375.77 80.3646 375.702 78.9311C375.634 77.4976 376.35 76.4797 377.472 76.426C378.595 76.3723 379.403 77.3138 379.463 78.7473H379.477ZM377.879 78.8265C377.837 77.9783 377.645 77.13 377.506 77.1498C377.368 77.1696 377.257 77.998 377.3 78.8463C377.342 79.6945 377.532 80.5173 377.67 80.5088C377.809 80.5003 377.905 79.6832 377.865 78.8265H377.879Z" fill="#F6EFE9"/>
<path d="M396.133 80.7857C396.306 84.32 394.018 87.2491 390.688 87.4103L386.534 87.6139C386.753 83.4873 386.55 79.3492 385.929 75.2639L389.783 75.0744C390.576 75.0256 391.372 75.1352 392.122 75.397C392.873 75.6588 393.564 76.0674 394.155 76.599C394.746 77.1306 395.226 77.7746 395.565 78.4934C395.905 79.2123 396.098 79.9915 396.133 80.7857ZM393.755 80.9017C393.6 77.7209 392.022 75.9877 389.61 76.0951C389.562 76.0951 388.898 76.1149 388.53 76.1177C388.485 79.5724 388.654 83.0266 389.036 86.4603C389.212 86.4603 390.052 86.4264 390.114 86.4236C392.41 86.3218 393.911 84.0825 393.755 80.9017Z" fill="#F6EFE9"/>
<path d="M399.515 75.5126C399.478 76.4117 399.478 77.6812 399.475 78.5944H399.619C400.49 78.552 402.481 78.2552 403.187 77.4776L403.334 80.4407C402.619 79.8102 400.538 79.5416 399.659 79.5925H399.483C399.499 81.7145 399.671 83.8324 400.001 85.9287C401.542 85.9287 403.535 85.3971 404.711 84.1333L404.839 86.7288L397.403 87.0907C397.63 82.9634 397.428 78.8236 396.8 74.7379L404.236 74.376L404.364 76.9715C403.023 75.7586 401.05 75.3599 399.515 75.5126Z" fill="#F6EFE9"/>
<path d="M421.676 79.5388C421.848 83.073 419.561 86.0022 416.23 86.1634L412.074 86.3669C412.294 82.2405 412.092 78.1024 411.472 74.0169L415.325 73.8275C416.119 73.7786 416.914 73.8883 417.665 74.1501C418.416 74.4118 419.107 74.8204 419.698 75.352C420.289 75.8837 420.768 76.5277 421.108 77.2465C421.447 77.9653 421.64 78.7446 421.676 79.5388ZM419.298 79.6547C419.142 76.4739 417.565 74.7407 415.153 74.8482C415.105 74.8482 414.44 74.8679 414.073 74.8708C414.027 78.3264 414.196 81.7815 414.579 85.2162C414.754 85.2162 415.594 85.1823 415.656 85.1794C417.941 85.0748 419.453 82.8355 419.298 79.6547Z" fill="#F6EFE9"/>
<path d="M425.057 74.266C425.02 75.1651 425.02 76.4346 425.018 77.3479H425.032H425.176C426.047 77.3054 428.034 77.0086 428.744 76.231L428.891 79.1941C428.176 78.5636 426.095 78.295 425.216 78.3459H425.04C425.055 80.4679 425.228 82.5858 425.558 84.6821C427.099 84.6821 429.092 84.1506 430.268 82.8867L430.395 85.4823L422.959 85.8442C423.187 81.7177 422.985 77.5788 422.357 73.4941L429.793 73.1294L429.92 75.7249C428.566 74.512 426.592 74.1133 425.057 74.266Z" fill="#F6EFE9"/>
</g>
<path d="M236.789 97.6267L88.561 106.9C81.1674 107.363 75.5486 113.732 76.0112 121.125L77.1596 139.481C77.6222 146.875 83.9909 152.494 91.3846 152.031L239.612 142.757C247.006 142.295 252.625 135.926 252.162 128.532L251.014 110.176C250.551 102.783 244.182 97.1641 236.789 97.6267Z" fill="#F2BD49"/>
<path d="M229.587 62.2097L97.7465 55.0926C90.2204 54.6863 83.79 60.458 83.3838 67.984L82.3751 86.6679C81.9689 94.194 87.7406 100.624 95.2666 101.031L227.107 108.148C234.633 108.554 241.064 102.782 241.47 95.2563L242.478 76.5724C242.885 69.0464 237.113 62.616 229.587 62.2097Z" fill="#E78941"/>
<path d="M232.909 57.5139L101.069 50.3968C93.5428 49.9905 87.1124 55.7622 86.7061 63.2882L85.6975 81.9721C85.2912 89.4982 91.0629 95.9286 98.589 96.3348L230.429 103.452C237.956 103.858 244.386 98.0866 244.792 90.5605L245.801 71.8766C246.207 64.3506 240.435 57.9202 232.909 57.5139Z" fill="white"/>
<path d="M236.789 95.1963L88.561 104.47C81.1674 104.933 75.5486 111.301 76.0112 118.695L77.1596 137.051C77.6222 144.445 83.9909 150.063 91.3846 149.601L239.612 140.327C247.006 139.864 252.625 133.496 252.162 126.102L251.014 107.746C250.551 100.352 244.182 94.7337 236.789 95.1963Z" fill="white"/>
<path d="M88.6476 112.077L107.572 110.901L107.969 117.211L96.6094 117.914L97.0057 124.224L106.425 123.634L106.819 129.944L97.3998 130.535L98.0978 141.682L90.5301 142.167L88.6476 112.077Z" fill="#141515"/>
<path d="M112.368 110.593L123.129 109.919C126.282 109.721 127.807 109.838 129.179 110.258C132.759 111.344 135.157 114.276 135.43 118.652C135.631 121.849 134.294 125.438 131.319 127.144V127.228C131.782 127.779 132.209 128.359 132.599 128.965L139.264 139.093L130.837 139.622L124.723 129.837L121.178 130.057L121.814 140.196L114.251 140.67L112.368 110.593ZM124.069 123.544C126.491 123.392 127.918 122.003 127.768 119.596C127.625 117.324 126.667 116.031 122.875 116.269L120.326 116.43L120.784 123.749L124.069 123.544Z" fill="#141515"/>
<path d="M141.837 108.748L149.398 108.274L151.281 138.354L143.729 138.827L141.837 108.748Z" fill="#141515"/>
<path d="M156.658 107.818L167.632 107.131C177.355 106.522 183.925 111.643 184.515 121.109C185.105 130.574 179.231 136.601 169.516 137.211L158.54 137.898L156.658 107.818ZM168.829 130.92C174.057 130.594 177.064 127.364 176.705 121.602C176.346 115.877 172.835 113.142 167.735 113.455L164.626 113.651L165.727 131.109L168.829 130.92Z" fill="#141515"/>
<path d="M205.675 128.615L196.04 129.218L194.578 135.643L186.798 136.13L195.416 105.397L203.367 104.899L215.748 134.322L207.971 134.809L205.675 128.615ZM199.778 112.002C199.778 112.002 199.292 115.325 198.849 117.253L197.453 123.216L203.546 122.835L201.452 117.097C200.756 115.239 199.875 112.002 199.875 112.002H199.778Z" fill="#141515"/>
<path d="M222.884 121.498L211.576 104.383L220.163 103.844L224.126 110.861C225.249 112.861 226.255 115.078 226.255 115.078H226.343C226.343 115.078 227.066 112.75 227.929 110.628L230.934 103.175L239.521 102.637L230.445 121.029L231.218 133.36L223.655 133.824L222.884 121.498Z" fill="#141515"/>
<path d="M98.8488 79.2078C98.8488 79.2078 102.202 82.6184 106.115 82.8298C107.683 82.9157 109.418 82.3894 109.514 80.5245C109.715 76.8254 95.687 76.1979 96.2044 66.62C96.5148 60.8732 101.553 57.3459 107.735 57.6784C114.44 58.0394 117.558 61.7451 117.558 61.7451L114.004 67.7979C114.004 67.7979 111.018 64.8827 107.273 64.6846C105.705 64.5987 103.926 65.202 103.834 66.9436C103.614 70.8629 117.679 70.9223 117.148 80.7623C116.869 85.9432 112.665 90.2147 105.655 89.836C98.3402 89.4419 94.531 84.7718 94.531 84.7718L98.8488 79.2078Z" fill="#141515"/>
<path d="M123.342 59.0435L130.958 59.4552L129.895 79.1351C129.719 82.4004 131.76 84.2588 135.025 84.4349C138.29 84.6111 140.516 82.9839 140.693 79.7186L141.76 60.0387L149.379 60.4482L148.317 80.1281C147.939 87.1388 142.533 91.8264 134.697 91.4037C126.77 90.9743 121.902 85.734 122.281 78.7234L123.342 59.0435Z" fill="#141515"/>
<path d="M156.477 60.8315L169.408 61.5295C175.459 61.8554 179.317 66.5189 178.975 72.7875C178.634 79.0561 174.299 83.3562 168.248 83.0392L162.935 82.7529L162.415 92.3749L154.797 91.9654L156.477 60.8315ZM167.033 76.4227C169.688 76.5658 171.091 74.8528 171.216 72.3691C171.342 69.8855 170.135 68.1196 167.61 67.9831L163.734 67.7629L163.279 76.2113L167.033 76.4227Z" fill="#141515"/>
<path d="M184.3 62.3333L203.806 63.3857L203.453 69.9163L191.563 69.2756L191.26 74.9365L200.756 75.4517L200.404 81.9823L190.914 81.4715L190.592 87.3416L203.088 88.0176L202.736 94.5482L182.62 93.4627L184.3 62.3333Z" fill="#141515"/>
<path d="M210.118 63.7271L220.96 64.3105C224.139 64.4823 225.65 64.7839 226.973 65.3784C230.425 66.9197 232.478 70.2224 232.231 74.745C232.053 78.0477 230.291 81.5839 227.114 82.9842V83.0701C227.512 83.6924 227.87 84.3388 228.188 85.0055L233.653 96.2172L225.163 95.7592L220.2 84.9703L216.629 84.7787L216.058 95.2682L208.44 94.8587L210.118 63.7271ZM220.286 78.422C222.726 78.5541 224.322 77.2881 224.456 74.8044C224.582 72.4551 223.796 71.0129 219.956 70.8081L217.386 70.6694L216.977 78.2437L220.286 78.422Z" fill="#141515"/>
</g>
<defs>
<clipPath id="clip0_211_6203">
<rect width="540" height="145.125" fill="white" transform="translate(-110 28.4375)"/>
</clipPath>
</defs>
</svg>
