<svg width="120" height="120" viewBox="0 0 120 120" fill="none" xmlns="http://www.w3.org/2000/svg">
<g id="qr-code-clube-sn" clip-path="url(#clip0_211_5713)">
<path id="Vector" d="M110.122 0.365967H9.87806C4.82668 0.365967 0.73172 4.46092 0.73172 9.51231V109.756C0.73172 114.808 4.82668 118.903 9.87806 118.903H110.122C115.173 118.903 119.268 114.808 119.268 109.756V9.51231C119.268 4.46092 115.173 0.365967 110.122 0.365967Z" fill="white"/>
<path id="Vector_2" d="M110.122 0.365967H9.87806C4.82668 0.365967 0.73172 4.46092 0.73172 9.51231V109.756C0.73172 114.808 4.82668 118.903 9.87806 118.903H110.122C115.173 118.903 119.268 114.808 119.268 109.756V9.51231C119.268 4.46092 115.173 0.365967 110.122 0.365967Z" stroke="#F2F3F5" stroke-width="0.731707"/>
<g id="Clip path group">
<mask id="mask0_211_5713" style="mask-type:luminance" maskUnits="userSpaceOnUse" x="6" y="6" width="108" height="107">
<g id="clip0_223_2130">
<path id="Vector_3" d="M113.049 6.58545H6.95123V112.683H113.049V6.58545Z" fill="white"/>
</g>
</mask>
<g mask="url(#mask0_211_5713)">
<g id="Group">
<path id="Vector_4" d="M113.049 6.58545H6.95123V112.683H113.049V6.58545Z" fill="white"/>
<path id="Vector_5" d="M48.1266 16.0977H45.488V18.7363H48.1266V16.0977Z" fill="#222222"/>
<path id="Vector_6" d="M50.7651 16.0977H48.1265V18.7363H50.7651V16.0977Z" fill="#222222"/>
<path id="Vector_7" d="M53.4033 16.0977H50.7647V18.7363H53.4033V16.0977Z" fill="#222222"/>
<path id="Vector_8" d="M63.958 16.0977H61.3194V18.7363H63.958V16.0977Z" fill="#222222"/>
<path id="Vector_9" d="M66.5966 16.0977H63.958V18.7363H66.5966V16.0977Z" fill="#222222"/>
<path id="Vector_10" d="M69.235 16.0977H66.5964V18.7363H69.235V16.0977Z" fill="#222222"/>
<path id="Vector_11" d="M71.8739 16.0977H69.2353V18.7363H71.8739V16.0977Z" fill="#222222"/>
<path id="Vector_12" d="M79.7898 16.0977H77.1512V18.7363H79.7898V16.0977Z" fill="#222222"/>
<path id="Vector_13" d="M40.2108 18.7363H37.5721V21.3749H40.2108V18.7363Z" fill="#222222"/>
<path id="Vector_14" d="M48.1266 18.7363H45.488V21.3749H48.1266V18.7363Z" fill="#222222"/>
<path id="Vector_15" d="M50.7651 18.7363H48.1265V21.3749H50.7651V18.7363Z" fill="#222222"/>
<path id="Vector_16" d="M53.4033 18.7363H50.7647V21.3749H53.4033V18.7363Z" fill="#222222"/>
<path id="Vector_17" d="M56.0421 18.7363H53.4036V21.3749H56.0421V18.7363Z" fill="#222222"/>
<path id="Vector_18" d="M61.3191 18.7363H58.6806V21.3749H61.3191V18.7363Z" fill="#222222"/>
<path id="Vector_19" d="M66.5966 18.7363H63.958V21.3749H66.5966V18.7363Z" fill="#222222"/>
<path id="Vector_20" d="M71.8739 18.7363H69.2353V21.3749H71.8739V18.7363Z" fill="#222222"/>
<path id="Vector_21" d="M74.512 18.7363H71.8735V21.3749H74.512V18.7363Z" fill="#222222"/>
<path id="Vector_22" d="M77.1512 18.7363H74.512V21.3749H77.1512V18.7363Z" fill="#222222"/>
<path id="Vector_23" d="M79.7898 18.7363H77.1512V21.3749H79.7898V18.7363Z" fill="#222222"/>
<path id="Vector_24" d="M40.2108 21.375H37.5721V24.0136H40.2108V21.375Z" fill="#222222"/>
<path id="Vector_25" d="M42.8493 21.375H40.2107V24.0136H42.8493V21.375Z" fill="#222222"/>
<path id="Vector_26" d="M45.4878 21.375H42.8492V24.0136H45.4878V21.375Z" fill="#222222"/>
<path id="Vector_27" d="M48.1266 21.375H45.488V24.0136H48.1266V21.375Z" fill="#222222"/>
<path id="Vector_28" d="M50.7651 21.375H48.1265V24.0136H50.7651V21.375Z" fill="#222222"/>
<path id="Vector_29" d="M56.0421 21.375H53.4036V24.0136H56.0421V21.375Z" fill="#222222"/>
<path id="Vector_30" d="M58.6807 21.375H56.0421V24.0136H58.6807V21.375Z" fill="#222222"/>
<path id="Vector_31" d="M61.3191 21.375H58.6806V24.0136H61.3191V21.375Z" fill="#222222"/>
<path id="Vector_32" d="M63.958 21.375H61.3194V24.0136H63.958V21.375Z" fill="#222222"/>
<path id="Vector_33" d="M77.1512 21.375H74.512V24.0136H77.1512V21.375Z" fill="#222222"/>
<path id="Vector_34" d="M82.4276 21.375H79.789V24.0136H82.4276V21.375Z" fill="#222222"/>
<path id="Vector_35" d="M48.1266 24.0137H45.488V26.6522H48.1266V24.0137Z" fill="#222222"/>
<path id="Vector_36" d="M50.7651 24.0137H48.1265V26.6522H50.7651V24.0137Z" fill="#222222"/>
<path id="Vector_37" d="M56.0421 24.0137H53.4036V26.6522H56.0421V24.0137Z" fill="#222222"/>
<path id="Vector_38" d="M71.8739 24.0137H69.2353V26.6522H71.8739V24.0137Z" fill="#222222"/>
<path id="Vector_39" d="M77.1512 24.0137H74.512V26.6522H77.1512V24.0137Z" fill="#222222"/>
<path id="Vector_40" d="M82.4276 24.0137H79.789V26.6522H82.4276V24.0137Z" fill="#222222"/>
<path id="Vector_41" d="M42.8493 26.6521H40.2107V29.2907H42.8493V26.6521Z" fill="#222222"/>
<path id="Vector_42" d="M48.1266 26.6521H45.488V29.2907H48.1266V26.6521Z" fill="#222222"/>
<path id="Vector_43" d="M50.7651 26.6521H48.1265V29.2907H50.7651V26.6521Z" fill="#222222"/>
<path id="Vector_44" d="M61.3191 26.6521H58.6806V29.2907H61.3191V26.6521Z" fill="#222222"/>
<path id="Vector_45" d="M71.8739 26.6521H69.2353V29.2907H71.8739V26.6521Z" fill="#222222"/>
<path id="Vector_46" d="M77.1512 26.6521H74.512V29.2907H77.1512V26.6521Z" fill="#222222"/>
<path id="Vector_47" d="M45.4878 29.2905H42.8492V31.9291H45.4878V29.2905Z" fill="#222222"/>
<path id="Vector_48" d="M48.1266 29.2905H45.488V31.9291H48.1266V29.2905Z" fill="#222222"/>
<path id="Vector_49" d="M50.7651 29.2905H48.1265V31.9291H50.7651V29.2905Z" fill="#222222"/>
<path id="Vector_50" d="M53.4033 29.2905H50.7647V31.9291H53.4033V29.2905Z" fill="#222222"/>
<path id="Vector_51" d="M58.6807 29.2905H56.0421V31.9291H58.6807V29.2905Z" fill="#222222"/>
<path id="Vector_52" d="M63.958 29.2905H61.3194V31.9291H63.958V29.2905Z" fill="#222222"/>
<path id="Vector_53" d="M66.5966 29.2905H63.958V31.9291H66.5966V29.2905Z" fill="#222222"/>
<path id="Vector_54" d="M69.235 29.2905H66.5964V31.9291H69.235V29.2905Z" fill="#222222"/>
<path id="Vector_55" d="M71.8739 29.2905H69.2353V31.9291H71.8739V29.2905Z" fill="#222222"/>
<path id="Vector_56" d="M77.1512 29.2905H74.512V31.9291H77.1512V29.2905Z" fill="#222222"/>
<path id="Vector_57" d="M82.4276 29.2905H79.789V31.9291H82.4276V29.2905Z" fill="#222222"/>
<path id="Vector_58" d="M40.2108 31.9292H37.5721V34.5678H40.2108V31.9292Z" fill="#222222"/>
<path id="Vector_59" d="M45.4878 31.9292H42.8492V34.5678H45.4878V31.9292Z" fill="#222222"/>
<path id="Vector_60" d="M50.7651 31.9292H48.1265V34.5678H50.7651V31.9292Z" fill="#222222"/>
<path id="Vector_61" d="M56.0421 31.9292H53.4036V34.5678H56.0421V31.9292Z" fill="#222222"/>
<path id="Vector_62" d="M61.3191 31.9292H58.6806V34.5678H61.3191V31.9292Z" fill="#222222"/>
<path id="Vector_63" d="M66.5966 31.9292H63.958V34.5678H66.5966V31.9292Z" fill="#222222"/>
<path id="Vector_64" d="M71.8739 31.9292H69.2353V34.5678H71.8739V31.9292Z" fill="#222222"/>
<path id="Vector_65" d="M77.1512 31.9292H74.512V34.5678H77.1512V31.9292Z" fill="#222222"/>
<path id="Vector_66" d="M82.4276 31.9292H79.789V34.5678H82.4276V31.9292Z" fill="#222222"/>
<path id="Vector_67" d="M42.8493 34.5676H40.2107V37.2062H42.8493V34.5676Z" fill="#222222"/>
<path id="Vector_68" d="M45.4878 34.5676H42.8492V37.2062H45.4878V34.5676Z" fill="#222222"/>
<path id="Vector_69" d="M48.1266 34.5676H45.488V37.2062H48.1266V34.5676Z" fill="#222222"/>
<path id="Vector_70" d="M53.4033 34.5676H50.7647V37.2062H53.4033V34.5676Z" fill="#222222"/>
<path id="Vector_71" d="M63.958 34.5676H61.3194V37.2062H63.958V34.5676Z" fill="#222222"/>
<path id="Vector_72" d="M71.8739 34.5676H69.2353V37.2062H71.8739V34.5676Z" fill="#222222"/>
<path id="Vector_73" d="M77.1512 34.5676H74.512V37.2062H77.1512V34.5676Z" fill="#222222"/>
<path id="Vector_74" d="M79.7898 34.5676H77.1512V37.2062H79.7898V34.5676Z" fill="#222222"/>
<path id="Vector_75" d="M82.4276 34.5676H79.789V37.2062H82.4276V34.5676Z" fill="#222222"/>
<path id="Vector_76" d="M21.7405 37.2064H19.102V39.845H21.7405V37.2064Z" fill="#222222"/>
<path id="Vector_77" d="M24.3794 37.2064H21.7408V39.845H24.3794V37.2064Z" fill="#222222"/>
<path id="Vector_78" d="M27.0179 37.2064H24.3793V39.845H27.0179V37.2064Z" fill="#222222"/>
<path id="Vector_79" d="M32.2949 37.2064H29.6563V39.845H32.2949V37.2064Z" fill="#222222"/>
<path id="Vector_80" d="M34.9334 37.2064H32.2948V39.845H34.9334V37.2064Z" fill="#222222"/>
<path id="Vector_81" d="M42.8493 37.2064H40.2107V39.845H42.8493V37.2064Z" fill="#222222"/>
<path id="Vector_82" d="M50.7651 37.2064H48.1265V39.845H50.7651V37.2064Z" fill="#222222"/>
<path id="Vector_83" d="M53.4033 37.2064H50.7647V39.845H53.4033V37.2064Z" fill="#222222"/>
<path id="Vector_84" d="M56.0421 37.2064H53.4036V39.845H56.0421V37.2064Z" fill="#222222"/>
<path id="Vector_85" d="M58.6807 37.2064H56.0421V39.845H58.6807V37.2064Z" fill="#222222"/>
<path id="Vector_86" d="M61.3191 37.2064H58.6806V39.845H61.3191V37.2064Z" fill="#222222"/>
<path id="Vector_87" d="M63.958 37.2064H61.3194V39.845H63.958V37.2064Z" fill="#222222"/>
<path id="Vector_88" d="M66.5966 37.2064H63.958V39.845H66.5966V37.2064Z" fill="#222222"/>
<path id="Vector_89" d="M69.235 37.2064H66.5964V39.845H69.235V37.2064Z" fill="#222222"/>
<path id="Vector_90" d="M71.8739 37.2064H69.2353V39.845H71.8739V37.2064Z" fill="#222222"/>
<path id="Vector_91" d="M74.512 37.2064H71.8735V39.845H74.512V37.2064Z" fill="#222222"/>
<path id="Vector_92" d="M82.4276 37.2064H79.789V39.845H82.4276V37.2064Z" fill="#222222"/>
<path id="Vector_93" d="M98.2595 37.2064H95.621V39.845H98.2595V37.2064Z" fill="#222222"/>
<path id="Vector_94" d="M100.898 37.2064H98.2595V39.845H100.898V37.2064Z" fill="#222222"/>
<path id="Vector_95" d="M19.102 39.845H16.4634V42.4836H19.102V39.845Z" fill="#222222"/>
<path id="Vector_96" d="M27.0179 39.845H24.3793V42.4836H27.0179V39.845Z" fill="#222222"/>
<path id="Vector_97" d="M37.5719 39.845H34.9333V42.4836H37.5719V39.845Z" fill="#222222"/>
<path id="Vector_98" d="M40.2108 39.845H37.5721V42.4836H40.2108V39.845Z" fill="#222222"/>
<path id="Vector_99" d="M50.7651 39.845H48.1265V42.4836H50.7651V39.845Z" fill="#222222"/>
<path id="Vector_100" d="M66.5966 39.845H63.958V42.4836H66.5966V39.845Z" fill="#222222"/>
<path id="Vector_101" d="M69.235 39.845H66.5964V42.4836H69.235V39.845Z" fill="#222222"/>
<path id="Vector_102" d="M71.8739 39.845H69.2353V42.4836H71.8739V39.845Z" fill="#222222"/>
<path id="Vector_103" d="M74.512 39.845H71.8735V42.4836H74.512V39.845Z" fill="#222222"/>
<path id="Vector_104" d="M77.1512 39.845H74.512V42.4836H77.1512V39.845Z" fill="#222222"/>
<path id="Vector_105" d="M79.7898 39.845H77.1512V42.4836H79.7898V39.845Z" fill="#222222"/>
<path id="Vector_106" d="M87.7054 39.845H85.0668V42.4836H87.7054V39.845Z" fill="#222222"/>
<path id="Vector_107" d="M90.3439 39.845H87.7054V42.4836H90.3439V39.845Z" fill="#222222"/>
<path id="Vector_108" d="M95.621 39.845H92.9824V42.4836H95.621V39.845Z" fill="#222222"/>
<path id="Vector_109" d="M98.2595 39.845H95.621V42.4836H98.2595V39.845Z" fill="#222222"/>
<path id="Vector_110" d="M103.537 39.845H100.899V42.4836H103.537V39.845Z" fill="#222222"/>
<path id="Vector_111" d="M21.7405 42.4835H19.102V45.1221H21.7405V42.4835Z" fill="#222222"/>
<path id="Vector_112" d="M27.0179 42.4835H24.3793V45.1221H27.0179V42.4835Z" fill="#222222"/>
<path id="Vector_113" d="M32.2949 42.4835H29.6563V45.1221H32.2949V42.4835Z" fill="#222222"/>
<path id="Vector_114" d="M34.9334 42.4835H32.2948V45.1221H34.9334V42.4835Z" fill="#222222"/>
<path id="Vector_115" d="M48.1266 42.4835H45.488V45.1221H48.1266V42.4835Z" fill="#222222"/>
<path id="Vector_116" d="M50.7651 42.4835H48.1265V45.1221H50.7651V42.4835Z" fill="#222222"/>
<path id="Vector_117" d="M53.4033 42.4835H50.7647V45.1221H53.4033V42.4835Z" fill="#222222"/>
<path id="Vector_118" d="M61.3191 42.4835H58.6806V45.1221H61.3191V42.4835Z" fill="#222222"/>
<path id="Vector_119" d="M63.958 42.4835H61.3194V45.1221H63.958V42.4835Z" fill="#222222"/>
<path id="Vector_120" d="M79.7898 42.4835H77.1512V45.1221H79.7898V42.4835Z" fill="#222222"/>
<path id="Vector_121" d="M85.0661 42.4835H82.4276V45.1221H85.0661V42.4835Z" fill="#222222"/>
<path id="Vector_122" d="M90.3439 42.4835H87.7054V45.1221H90.3439V42.4835Z" fill="#222222"/>
<path id="Vector_123" d="M92.9824 42.4835H90.3439V45.1221H92.9824V42.4835Z" fill="#222222"/>
<path id="Vector_124" d="M95.621 42.4835H92.9824V45.1221H95.621V42.4835Z" fill="#222222"/>
<path id="Vector_125" d="M100.898 42.4835H98.2595V45.1221H100.898V42.4835Z" fill="#222222"/>
<path id="Vector_126" d="M103.537 42.4835H100.899V45.1221H103.537V42.4835Z" fill="#222222"/>
<path id="Vector_127" d="M19.102 45.1223H16.4634V47.7609H19.102V45.1223Z" fill="#222222"/>
<path id="Vector_128" d="M24.3794 45.1223H21.7408V47.7609H24.3794V45.1223Z" fill="#222222"/>
<path id="Vector_129" d="M29.6564 45.1223H27.0178V47.7609H29.6564V45.1223Z" fill="#222222"/>
<path id="Vector_130" d="M37.5719 45.1223H34.9333V47.7609H37.5719V45.1223Z" fill="#222222"/>
<path id="Vector_131" d="M40.2108 45.1223H37.5721V47.7609H40.2108V45.1223Z" fill="#222222"/>
<path id="Vector_132" d="M45.4878 45.1223H42.8492V47.7609H45.4878V45.1223Z" fill="#222222"/>
<path id="Vector_133" d="M50.7651 45.1223H48.1265V47.7609H50.7651V45.1223Z" fill="#222222"/>
<path id="Vector_134" d="M53.4033 45.1223H50.7647V47.7609H53.4033V45.1223Z" fill="#222222"/>
<path id="Vector_135" d="M56.0421 45.1223H53.4036V47.7609H56.0421V45.1223Z" fill="#222222"/>
<path id="Vector_136" d="M58.6807 45.1223H56.0421V47.7609H58.6807V45.1223Z" fill="#222222"/>
<path id="Vector_137" d="M61.3191 45.1223H58.6806V47.7609H61.3191V45.1223Z" fill="#222222"/>
<path id="Vector_138" d="M66.5966 45.1223H63.958V47.7609H66.5966V45.1223Z" fill="#222222"/>
<path id="Vector_139" d="M69.235 45.1223H66.5964V47.7609H69.235V45.1223Z" fill="#222222"/>
<path id="Vector_140" d="M71.8739 45.1223H69.2353V47.7609H71.8739V45.1223Z" fill="#222222"/>
<path id="Vector_141" d="M77.1512 45.1223H74.512V47.7609H77.1512V45.1223Z" fill="#222222"/>
<path id="Vector_142" d="M79.7898 45.1223H77.1512V47.7609H79.7898V45.1223Z" fill="#222222"/>
<path id="Vector_143" d="M87.7054 45.1223H85.0668V47.7609H87.7054V45.1223Z" fill="#222222"/>
<path id="Vector_144" d="M90.3439 45.1223H87.7054V47.7609H90.3439V45.1223Z" fill="#222222"/>
<path id="Vector_145" d="M95.621 45.1223H92.9824V47.7609H95.621V45.1223Z" fill="#222222"/>
<path id="Vector_146" d="M103.537 45.1223H100.899V47.7609H103.537V45.1223Z" fill="#222222"/>
<path id="Vector_147" d="M24.3794 47.7609H21.7408V50.3995H24.3794V47.7609Z" fill="#222222"/>
<path id="Vector_148" d="M27.0179 47.7609H24.3793V50.3995H27.0179V47.7609Z" fill="#222222"/>
<path id="Vector_149" d="M29.6564 47.7609H27.0178V50.3995H29.6564V47.7609Z" fill="#222222"/>
<path id="Vector_150" d="M32.2949 47.7609H29.6563V50.3995H32.2949V47.7609Z" fill="#222222"/>
<path id="Vector_151" d="M34.9334 47.7609H32.2948V50.3995H34.9334V47.7609Z" fill="#222222"/>
<path id="Vector_152" d="M40.2108 47.7609H37.5721V50.3995H40.2108V47.7609Z" fill="#222222"/>
<path id="Vector_153" d="M45.4878 47.7609H42.8492V50.3995H45.4878V47.7609Z" fill="#222222"/>
<path id="Vector_154" d="M56.0421 47.7609H53.4036V50.3995H56.0421V47.7609Z" fill="#222222"/>
<path id="Vector_155" d="M66.5966 47.7609H63.958V50.3995H66.5966V47.7609Z" fill="#222222"/>
<path id="Vector_156" d="M77.1512 47.7609H74.512V50.3995H77.1512V47.7609Z" fill="#222222"/>
<path id="Vector_157" d="M82.4276 47.7609H79.789V50.3995H82.4276V47.7609Z" fill="#222222"/>
<path id="Vector_158" d="M85.0661 47.7609H82.4276V50.3995H85.0661V47.7609Z" fill="#222222"/>
<path id="Vector_159" d="M90.3439 47.7609H87.7054V50.3995H90.3439V47.7609Z" fill="#222222"/>
<path id="Vector_160" d="M92.9824 47.7609H90.3439V50.3995H92.9824V47.7609Z" fill="#222222"/>
<path id="Vector_161" d="M95.621 47.7609H92.9824V50.3995H95.621V47.7609Z" fill="#222222"/>
<path id="Vector_162" d="M29.6564 50.3989H27.0178V53.0375H29.6564V50.3989Z" fill="#222222"/>
<path id="Vector_163" d="M40.2108 50.3989H37.5721V53.0375H40.2108V50.3989Z" fill="#222222"/>
<path id="Vector_164" d="M42.8493 50.3989H40.2107V53.0375H42.8493V50.3989Z" fill="#222222"/>
<path id="Vector_165" d="M58.6807 50.3989H56.0421V53.0375H58.6807V50.3989Z" fill="#222222"/>
<path id="Vector_166" d="M61.3191 50.3989H58.6806V53.0375H61.3191V50.3989Z" fill="#222222"/>
<path id="Vector_167" d="M63.958 50.3989H61.3194V53.0375H63.958V50.3989Z" fill="#222222"/>
<path id="Vector_168" d="M66.5966 50.3989H63.958V53.0375H66.5966V50.3989Z" fill="#222222"/>
<path id="Vector_169" d="M82.4276 50.3989H79.789V53.0375H82.4276V50.3989Z" fill="#222222"/>
<path id="Vector_170" d="M98.2595 50.3989H95.621V53.0375H98.2595V50.3989Z" fill="#222222"/>
<path id="Vector_171" d="M100.898 50.3989H98.2595V53.0375H100.898V50.3989Z" fill="#222222"/>
<path id="Vector_172" d="M21.7405 53.0378H19.102V55.6764H21.7405V53.0378Z" fill="#222222"/>
<path id="Vector_173" d="M27.0179 53.0378H24.3793V55.6764H27.0179V53.0378Z" fill="#222222"/>
<path id="Vector_174" d="M34.9334 53.0378H32.2948V55.6764H34.9334V53.0378Z" fill="#222222"/>
<path id="Vector_175" d="M40.2108 53.0378H37.5721V55.6764H40.2108V53.0378Z" fill="#222222"/>
<path id="Vector_176" d="M45.4878 53.0378H42.8492V55.6764H45.4878V53.0378Z" fill="#222222"/>
<path id="Vector_177" d="M48.1266 53.0378H45.488V55.6764H48.1266V53.0378Z" fill="#222222"/>
<path id="Vector_178" d="M50.7651 53.0378H48.1265V55.6764H50.7651V53.0378Z" fill="#222222"/>
<path id="Vector_179" d="M53.4033 53.0378H50.7647V55.6764H53.4033V53.0378Z" fill="#222222"/>
<path id="Vector_180" d="M58.6807 53.0378H56.0421V55.6764H58.6807V53.0378Z" fill="#222222"/>
<path id="Vector_181" d="M61.3191 53.0378H58.6806V55.6764H61.3191V53.0378Z" fill="#222222"/>
<path id="Vector_182" d="M63.958 53.0378H61.3194V55.6764H63.958V53.0378Z" fill="#222222"/>
<path id="Vector_183" d="M66.5966 53.0378H63.958V55.6764H66.5966V53.0378Z" fill="#222222"/>
<path id="Vector_184" d="M74.512 53.0378H71.8735V55.6764H74.512V53.0378Z" fill="#222222"/>
<path id="Vector_185" d="M77.1512 53.0378H74.512V55.6764H77.1512V53.0378Z" fill="#222222"/>
<path id="Vector_186" d="M87.7054 53.0378H85.0668V55.6764H87.7054V53.0378Z" fill="#222222"/>
<path id="Vector_187" d="M90.3439 53.0378H87.7054V55.6764H90.3439V53.0378Z" fill="#222222"/>
<path id="Vector_188" d="M92.9824 53.0378H90.3439V55.6764H92.9824V53.0378Z" fill="#222222"/>
<path id="Vector_189" d="M95.621 53.0378H92.9824V55.6764H95.621V53.0378Z" fill="#222222"/>
<path id="Vector_190" d="M98.2595 53.0378H95.621V55.6764H98.2595V53.0378Z" fill="#222222"/>
<path id="Vector_191" d="M19.102 55.6764H16.4634V58.315H19.102V55.6764Z" fill="#222222"/>
<path id="Vector_192" d="M21.7405 55.6764H19.102V58.315H21.7405V55.6764Z" fill="#222222"/>
<path id="Vector_193" d="M24.3794 55.6764H21.7408V58.315H24.3794V55.6764Z" fill="#222222"/>
<path id="Vector_194" d="M27.0179 55.6764H24.3793V58.315H27.0179V55.6764Z" fill="#222222"/>
<path id="Vector_195" d="M29.6564 55.6764H27.0178V58.315H29.6564V55.6764Z" fill="#222222"/>
<path id="Vector_196" d="M32.2949 55.6764H29.6563V58.315H32.2949V55.6764Z" fill="#222222"/>
<path id="Vector_197" d="M37.5719 55.6764H34.9333V58.315H37.5719V55.6764Z" fill="#222222"/>
<path id="Vector_198" d="M48.1266 55.6764H45.488V58.315H48.1266V55.6764Z" fill="#222222"/>
<path id="Vector_199" d="M50.7651 55.6764H48.1265V58.315H50.7651V55.6764Z" fill="#222222"/>
<path id="Vector_200" d="M53.4033 55.6764H50.7647V58.315H53.4033V55.6764Z" fill="#222222"/>
<path id="Vector_201" d="M58.6807 55.6764H56.0421V58.315H58.6807V55.6764Z" fill="#222222"/>
<path id="Vector_202" d="M66.5966 55.6764H63.958V58.315H66.5966V55.6764Z" fill="#222222"/>
<path id="Vector_203" d="M69.235 55.6764H66.5964V58.315H69.235V55.6764Z" fill="#222222"/>
<path id="Vector_204" d="M71.8739 55.6764H69.2353V58.315H71.8739V55.6764Z" fill="#222222"/>
<path id="Vector_205" d="M74.512 55.6764H71.8735V58.315H74.512V55.6764Z" fill="#222222"/>
<path id="Vector_206" d="M77.1512 55.6764H74.512V58.315H77.1512V55.6764Z" fill="#222222"/>
<path id="Vector_207" d="M79.7898 55.6764H77.1512V58.315H79.7898V55.6764Z" fill="#222222"/>
<path id="Vector_208" d="M82.4276 55.6764H79.789V58.315H82.4276V55.6764Z" fill="#222222"/>
<path id="Vector_209" d="M85.0661 55.6764H82.4276V58.315H85.0661V55.6764Z" fill="#222222"/>
<path id="Vector_210" d="M87.7054 55.6764H85.0668V58.315H87.7054V55.6764Z" fill="#222222"/>
<path id="Vector_211" d="M92.9824 55.6764H90.3439V58.315H92.9824V55.6764Z" fill="#222222"/>
<path id="Vector_212" d="M98.2595 55.6764H95.621V58.315H98.2595V55.6764Z" fill="#222222"/>
<path id="Vector_213" d="M19.102 58.3148H16.4634V60.9534H19.102V58.3148Z" fill="#222222"/>
<path id="Vector_214" d="M27.0179 58.3148H24.3793V60.9534H27.0179V58.3148Z" fill="#222222"/>
<path id="Vector_215" d="M32.2949 58.3148H29.6563V60.9534H32.2949V58.3148Z" fill="#222222"/>
<path id="Vector_216" d="M34.9334 58.3148H32.2948V60.9534H34.9334V58.3148Z" fill="#222222"/>
<path id="Vector_217" d="M45.4878 58.3148H42.8492V60.9534H45.4878V58.3148Z" fill="#222222"/>
<path id="Vector_218" d="M50.7651 58.3148H48.1265V60.9534H50.7651V58.3148Z" fill="#222222"/>
<path id="Vector_219" d="M53.4033 58.3148H50.7647V60.9534H53.4033V58.3148Z" fill="#222222"/>
<path id="Vector_220" d="M56.0421 58.3148H53.4036V60.9534H56.0421V58.3148Z" fill="#222222"/>
<path id="Vector_221" d="M61.3191 58.3148H58.6806V60.9534H61.3191V58.3148Z" fill="#222222"/>
<path id="Vector_222" d="M66.5966 58.3148H63.958V60.9534H66.5966V58.3148Z" fill="#222222"/>
<path id="Vector_223" d="M69.235 58.3148H66.5964V60.9534H69.235V58.3148Z" fill="#222222"/>
<path id="Vector_224" d="M71.8739 58.3148H69.2353V60.9534H71.8739V58.3148Z" fill="#222222"/>
<path id="Vector_225" d="M74.512 58.3148H71.8735V60.9534H74.512V58.3148Z" fill="#222222"/>
<path id="Vector_226" d="M79.7898 58.3148H77.1512V60.9534H79.7898V58.3148Z" fill="#222222"/>
<path id="Vector_227" d="M82.4276 58.3148H79.789V60.9534H82.4276V58.3148Z" fill="#222222"/>
<path id="Vector_228" d="M85.0661 58.3148H82.4276V60.9534H85.0661V58.3148Z" fill="#222222"/>
<path id="Vector_229" d="M87.7054 58.3148H85.0668V60.9534H87.7054V58.3148Z" fill="#222222"/>
<path id="Vector_230" d="M92.9824 58.3148H90.3439V60.9534H92.9824V58.3148Z" fill="#222222"/>
<path id="Vector_231" d="M95.621 58.3148H92.9824V60.9534H95.621V58.3148Z" fill="#222222"/>
<path id="Vector_232" d="M98.2595 58.3148H95.621V60.9534H98.2595V58.3148Z" fill="#222222"/>
<path id="Vector_233" d="M19.102 60.9537H16.4634V63.5923H19.102V60.9537Z" fill="#222222"/>
<path id="Vector_234" d="M21.7405 60.9537H19.102V63.5923H21.7405V60.9537Z" fill="#222222"/>
<path id="Vector_235" d="M27.0179 60.9537H24.3793V63.5923H27.0179V60.9537Z" fill="#222222"/>
<path id="Vector_236" d="M32.2949 60.9537H29.6563V63.5923H32.2949V60.9537Z" fill="#222222"/>
<path id="Vector_237" d="M42.8493 60.9537H40.2107V63.5923H42.8493V60.9537Z" fill="#222222"/>
<path id="Vector_238" d="M45.4878 60.9537H42.8492V63.5923H45.4878V60.9537Z" fill="#222222"/>
<path id="Vector_239" d="M50.7651 60.9537H48.1265V63.5923H50.7651V60.9537Z" fill="#222222"/>
<path id="Vector_240" d="M56.0421 60.9537H53.4036V63.5923H56.0421V60.9537Z" fill="#222222"/>
<path id="Vector_241" d="M58.6807 60.9537H56.0421V63.5923H58.6807V60.9537Z" fill="#222222"/>
<path id="Vector_242" d="M61.3191 60.9537H58.6806V63.5923H61.3191V60.9537Z" fill="#222222"/>
<path id="Vector_243" d="M63.958 60.9537H61.3194V63.5923H63.958V60.9537Z" fill="#222222"/>
<path id="Vector_244" d="M71.8739 60.9537H69.2353V63.5923H71.8739V60.9537Z" fill="#222222"/>
<path id="Vector_245" d="M74.512 60.9537H71.8735V63.5923H74.512V60.9537Z" fill="#222222"/>
<path id="Vector_246" d="M77.1512 60.9537H74.512V63.5923H77.1512V60.9537Z" fill="#222222"/>
<path id="Vector_247" d="M79.7898 60.9537H77.1512V63.5923H79.7898V60.9537Z" fill="#222222"/>
<path id="Vector_248" d="M82.4276 60.9537H79.789V63.5923H82.4276V60.9537Z" fill="#222222"/>
<path id="Vector_249" d="M85.0661 60.9537H82.4276V63.5923H85.0661V60.9537Z" fill="#222222"/>
<path id="Vector_250" d="M87.7054 60.9537H85.0668V63.5923H87.7054V60.9537Z" fill="#222222"/>
<path id="Vector_251" d="M92.9824 60.9537H90.3439V63.5923H92.9824V60.9537Z" fill="#222222"/>
<path id="Vector_252" d="M95.621 60.9537H92.9824V63.5923H95.621V60.9537Z" fill="#222222"/>
<path id="Vector_253" d="M103.537 60.9537H100.899V63.5923H103.537V60.9537Z" fill="#222222"/>
<path id="Vector_254" d="M19.102 63.5923H16.4634V66.2309H19.102V63.5923Z" fill="#222222"/>
<path id="Vector_255" d="M21.7405 63.5923H19.102V66.2309H21.7405V63.5923Z" fill="#222222"/>
<path id="Vector_256" d="M27.0179 63.5923H24.3793V66.2309H27.0179V63.5923Z" fill="#222222"/>
<path id="Vector_257" d="M29.6564 63.5923H27.0178V66.2309H29.6564V63.5923Z" fill="#222222"/>
<path id="Vector_258" d="M34.9334 63.5923H32.2948V66.2309H34.9334V63.5923Z" fill="#222222"/>
<path id="Vector_259" d="M37.5719 63.5923H34.9333V66.2309H37.5719V63.5923Z" fill="#222222"/>
<path id="Vector_260" d="M48.1266 63.5923H45.488V66.2309H48.1266V63.5923Z" fill="#222222"/>
<path id="Vector_261" d="M56.0421 63.5923H53.4036V66.2309H56.0421V63.5923Z" fill="#222222"/>
<path id="Vector_262" d="M58.6807 63.5923H56.0421V66.2309H58.6807V63.5923Z" fill="#222222"/>
<path id="Vector_263" d="M61.3191 63.5923H58.6806V66.2309H61.3191V63.5923Z" fill="#222222"/>
<path id="Vector_264" d="M63.958 63.5923H61.3194V66.2309H63.958V63.5923Z" fill="#222222"/>
<path id="Vector_265" d="M74.512 63.5923H71.8735V66.2309H74.512V63.5923Z" fill="#222222"/>
<path id="Vector_266" d="M90.3439 63.5923H87.7054V66.2309H90.3439V63.5923Z" fill="#222222"/>
<path id="Vector_267" d="M92.9824 63.5923H90.3439V66.2309H92.9824V63.5923Z" fill="#222222"/>
<path id="Vector_268" d="M98.2595 63.5923H95.621V66.2309H98.2595V63.5923Z" fill="#222222"/>
<path id="Vector_269" d="M100.898 63.5923H98.2595V66.2309H100.898V63.5923Z" fill="#222222"/>
<path id="Vector_270" d="M24.3794 66.2307H21.7408V68.8693H24.3794V66.2307Z" fill="#222222"/>
<path id="Vector_271" d="M27.0179 66.2307H24.3793V68.8693H27.0179V66.2307Z" fill="#222222"/>
<path id="Vector_272" d="M29.6564 66.2307H27.0178V68.8693H29.6564V66.2307Z" fill="#222222"/>
<path id="Vector_273" d="M32.2949 66.2307H29.6563V68.8693H32.2949V66.2307Z" fill="#222222"/>
<path id="Vector_274" d="M45.4878 66.2307H42.8492V68.8693H45.4878V66.2307Z" fill="#222222"/>
<path id="Vector_275" d="M53.4033 66.2307H50.7647V68.8693H53.4033V66.2307Z" fill="#222222"/>
<path id="Vector_276" d="M61.3191 66.2307H58.6806V68.8693H61.3191V66.2307Z" fill="#222222"/>
<path id="Vector_277" d="M63.958 66.2307H61.3194V68.8693H63.958V66.2307Z" fill="#222222"/>
<path id="Vector_278" d="M71.8739 66.2307H69.2353V68.8693H71.8739V66.2307Z" fill="#222222"/>
<path id="Vector_279" d="M79.7898 66.2307H77.1512V68.8693H79.7898V66.2307Z" fill="#222222"/>
<path id="Vector_280" d="M82.4276 66.2307H79.789V68.8693H82.4276V66.2307Z" fill="#222222"/>
<path id="Vector_281" d="M85.0661 66.2307H82.4276V68.8693H85.0661V66.2307Z" fill="#222222"/>
<path id="Vector_282" d="M92.9824 66.2307H90.3439V68.8693H92.9824V66.2307Z" fill="#222222"/>
<path id="Vector_283" d="M100.898 66.2307H98.2595V68.8693H100.898V66.2307Z" fill="#222222"/>
<path id="Vector_284" d="M32.2949 68.8696H29.6563V71.5082H32.2949V68.8696Z" fill="#222222"/>
<path id="Vector_285" d="M34.9334 68.8696H32.2948V71.5082H34.9334V68.8696Z" fill="#222222"/>
<path id="Vector_286" d="M40.2108 68.8696H37.5721V71.5082H40.2108V68.8696Z" fill="#222222"/>
<path id="Vector_287" d="M48.1266 68.8696H45.488V71.5082H48.1266V68.8696Z" fill="#222222"/>
<path id="Vector_288" d="M56.0421 68.8696H53.4036V71.5082H56.0421V68.8696Z" fill="#222222"/>
<path id="Vector_289" d="M61.3191 68.8696H58.6806V71.5082H61.3191V68.8696Z" fill="#222222"/>
<path id="Vector_290" d="M63.958 68.8696H61.3194V71.5082H63.958V68.8696Z" fill="#222222"/>
<path id="Vector_291" d="M69.235 68.8696H66.5964V71.5082H69.235V68.8696Z" fill="#222222"/>
<path id="Vector_292" d="M71.8739 68.8696H69.2353V71.5082H71.8739V68.8696Z" fill="#222222"/>
<path id="Vector_293" d="M74.512 68.8696H71.8735V71.5082H74.512V68.8696Z" fill="#222222"/>
<path id="Vector_294" d="M95.621 68.8696H92.9824V71.5082H95.621V68.8696Z" fill="#222222"/>
<path id="Vector_295" d="M98.2595 68.8696H95.621V71.5082H98.2595V68.8696Z" fill="#222222"/>
<path id="Vector_296" d="M100.898 68.8696H98.2595V71.5082H100.898V68.8696Z" fill="#222222"/>
<path id="Vector_297" d="M19.102 71.5077H16.4634V74.1462H19.102V71.5077Z" fill="#222222"/>
<path id="Vector_298" d="M24.3794 71.5077H21.7408V74.1462H24.3794V71.5077Z" fill="#222222"/>
<path id="Vector_299" d="M42.8493 71.5077H40.2107V74.1462H42.8493V71.5077Z" fill="#222222"/>
<path id="Vector_300" d="M50.7651 71.5077H48.1265V74.1462H50.7651V71.5077Z" fill="#222222"/>
<path id="Vector_301" d="M53.4033 71.5077H50.7647V74.1462H53.4033V71.5077Z" fill="#222222"/>
<path id="Vector_302" d="M58.6807 71.5077H56.0421V74.1462H58.6807V71.5077Z" fill="#222222"/>
<path id="Vector_303" d="M63.958 71.5077H61.3194V74.1462H63.958V71.5077Z" fill="#222222"/>
<path id="Vector_304" d="M77.1512 71.5081H74.512V74.147H77.1512V71.5081Z" fill="#222222"/>
<path id="Vector_305" d="M79.7898 71.5081H77.1512V74.147H79.7898V71.5081Z" fill="#222222"/>
<path id="Vector_306" d="M87.7054 71.5081H85.0668V74.147H87.7054V71.5081Z" fill="#222222"/>
<path id="Vector_307" d="M95.621 71.5081H92.9824V74.147H95.621V71.5081Z" fill="#222222"/>
<path id="Vector_308" d="M103.537 71.5081H100.899V74.147H103.537V71.5081Z" fill="#222222"/>
<path id="Vector_309" d="M29.6564 74.1462H27.0178V76.7855H29.6564V74.1462Z" fill="#222222"/>
<path id="Vector_310" d="M34.9334 74.1462H32.2948V76.7855H34.9334V74.1462Z" fill="#222222"/>
<path id="Vector_311" d="M37.5719 74.1462H34.9333V76.7855H37.5719V74.1462Z" fill="#222222"/>
<path id="Vector_312" d="M40.2108 74.1462H37.5721V76.7855H40.2108V74.1462Z" fill="#222222"/>
<path id="Vector_313" d="M42.8493 74.1462H40.2107V76.7855H42.8493V74.1462Z" fill="#222222"/>
<path id="Vector_314" d="M45.4878 74.1462H42.8492V76.7855H45.4878V74.1462Z" fill="#222222"/>
<path id="Vector_315" d="M56.0421 74.1462H53.4036V76.7855H56.0421V74.1462Z" fill="#222222"/>
<path id="Vector_316" d="M58.6807 74.1462H56.0421V76.7855H58.6807V74.1462Z" fill="#222222"/>
<path id="Vector_317" d="M61.3191 74.1462H58.6806V76.7855H61.3191V74.1462Z" fill="#222222"/>
<path id="Vector_318" d="M63.958 74.1462H61.3194V76.7855H63.958V74.1462Z" fill="#222222"/>
<path id="Vector_319" d="M66.5966 74.1462H63.958V76.7855H66.5966V74.1462Z" fill="#222222"/>
<path id="Vector_320" d="M74.5127 74.1462H71.8738V76.7855H74.5127V74.1462Z" fill="#222222"/>
<path id="Vector_321" d="M77.1512 74.1462H74.512V76.7855H77.1512V74.1462Z" fill="#222222"/>
<path id="Vector_322" d="M79.7898 74.1462H77.1512V76.7855H79.7898V74.1462Z" fill="#222222"/>
<path id="Vector_323" d="M82.4276 74.1462H79.789V76.7855H82.4276V74.1462Z" fill="#222222"/>
<path id="Vector_324" d="M85.0661 74.1462H82.4276V76.7855H85.0661V74.1462Z" fill="#222222"/>
<path id="Vector_325" d="M90.3439 74.1462H87.7054V76.7855H90.3439V74.1462Z" fill="#222222"/>
<path id="Vector_326" d="M92.9824 74.1462H90.3439V76.7855H92.9824V74.1462Z" fill="#222222"/>
<path id="Vector_327" d="M95.621 74.1462H92.9824V76.7855H95.621V74.1462Z" fill="#222222"/>
<path id="Vector_328" d="M98.2595 74.1462H95.621V76.7855H98.2595V74.1462Z" fill="#222222"/>
<path id="Vector_329" d="M100.898 74.1462H98.2595V76.7855H100.898V74.1462Z" fill="#222222"/>
<path id="Vector_330" d="M103.537 74.1462H100.899V76.7855H103.537V74.1462Z" fill="#222222"/>
<path id="Vector_331" d="M21.7405 76.7855H19.102V79.4241H21.7405V76.7855Z" fill="#222222"/>
<path id="Vector_332" d="M24.3794 76.7855H21.7408V79.4241H24.3794V76.7855Z" fill="#222222"/>
<path id="Vector_333" d="M29.6564 76.7855H27.0178V79.4241H29.6564V76.7855Z" fill="#222222"/>
<path id="Vector_334" d="M32.2949 76.7855H29.6563V79.4241H32.2949V76.7855Z" fill="#222222"/>
<path id="Vector_335" d="M37.5719 76.7855H34.9333V79.4241H37.5719V76.7855Z" fill="#222222"/>
<path id="Vector_336" d="M40.2108 76.7855H37.5721V79.4241H40.2108V76.7855Z" fill="#222222"/>
<path id="Vector_337" d="M45.4878 76.7855H42.8492V79.4241H45.4878V76.7855Z" fill="#222222"/>
<path id="Vector_338" d="M48.1266 76.7855H45.488V79.4241H48.1266V76.7855Z" fill="#222222"/>
<path id="Vector_339" d="M53.4033 76.7855H50.7647V79.4241H53.4033V76.7855Z" fill="#222222"/>
<path id="Vector_340" d="M56.0421 76.7855H53.4036V79.4241H56.0421V76.7855Z" fill="#222222"/>
<path id="Vector_341" d="M63.958 76.7855H61.3194V79.4241H63.958V76.7855Z" fill="#222222"/>
<path id="Vector_342" d="M69.235 76.7855H66.5964V79.4241H69.235V76.7855Z" fill="#222222"/>
<path id="Vector_343" d="M77.1512 76.7855H74.512V79.4241H77.1512V76.7855Z" fill="#222222"/>
<path id="Vector_344" d="M82.4276 76.7855H79.789V79.4241H82.4276V76.7855Z" fill="#222222"/>
<path id="Vector_345" d="M87.7054 76.7855H85.0668V79.4241H87.7054V76.7855Z" fill="#222222"/>
<path id="Vector_346" d="M90.3439 76.7855H87.7054V79.4241H90.3439V76.7855Z" fill="#222222"/>
<path id="Vector_347" d="M95.621 76.7855H92.9824V79.4241H95.621V76.7855Z" fill="#222222"/>
<path id="Vector_348" d="M100.898 76.7855H98.2595V79.4241H100.898V76.7855Z" fill="#222222"/>
<path id="Vector_349" d="M19.102 79.4233H16.4634V82.0619H19.102V79.4233Z" fill="#222222"/>
<path id="Vector_350" d="M24.3794 79.4233H21.7408V82.0619H24.3794V79.4233Z" fill="#222222"/>
<path id="Vector_351" d="M29.6564 79.4233H27.0178V82.0619H29.6564V79.4233Z" fill="#222222"/>
<path id="Vector_352" d="M34.9334 79.4233H32.2948V82.0619H34.9334V79.4233Z" fill="#222222"/>
<path id="Vector_353" d="M40.2108 79.4233H37.5721V82.0619H40.2108V79.4233Z" fill="#222222"/>
<path id="Vector_354" d="M48.1266 79.4233H45.488V82.0619H48.1266V79.4233Z" fill="#222222"/>
<path id="Vector_355" d="M53.4033 79.4233H50.7647V82.0619H53.4033V79.4233Z" fill="#222222"/>
<path id="Vector_356" d="M56.0421 79.4233H53.4036V82.0619H56.0421V79.4233Z" fill="#222222"/>
<path id="Vector_357" d="M71.8739 79.4233H69.2353V82.0619H71.8739V79.4233Z" fill="#222222"/>
<path id="Vector_358" d="M77.1512 79.4233H74.512V82.0619H77.1512V79.4233Z" fill="#222222"/>
<path id="Vector_359" d="M82.4276 79.4233H79.789V82.0619H82.4276V79.4233Z" fill="#222222"/>
<path id="Vector_360" d="M85.0661 79.4233H82.4276V82.0619H85.0661V79.4233Z" fill="#222222"/>
<path id="Vector_361" d="M87.7054 79.4233H85.0668V82.0619H87.7054V79.4233Z" fill="#222222"/>
<path id="Vector_362" d="M90.3439 79.4233H87.7054V82.0619H90.3439V79.4233Z" fill="#222222"/>
<path id="Vector_363" d="M92.9824 79.4233H90.3439V82.0619H92.9824V79.4233Z" fill="#222222"/>
<path id="Vector_364" d="M103.537 79.4233H100.899V82.0619H103.537V79.4233Z" fill="#222222"/>
<path id="Vector_365" d="M40.2108 82.0619H37.5721V84.7004H40.2108V82.0619Z" fill="#222222"/>
<path id="Vector_366" d="M42.8493 82.0619H40.2107V84.7004H42.8493V82.0619Z" fill="#222222"/>
<path id="Vector_367" d="M45.4878 82.0619H42.8492V84.7004H45.4878V82.0619Z" fill="#222222"/>
<path id="Vector_368" d="M50.7651 82.0619H48.1265V84.7004H50.7651V82.0619Z" fill="#222222"/>
<path id="Vector_369" d="M53.4033 82.0619H50.7647V84.7004H53.4033V82.0619Z" fill="#222222"/>
<path id="Vector_370" d="M56.0421 82.0619H53.4036V84.7004H56.0421V82.0619Z" fill="#222222"/>
<path id="Vector_371" d="M58.6807 82.0619H56.0421V84.7004H58.6807V82.0619Z" fill="#222222"/>
<path id="Vector_372" d="M61.3191 82.0619H58.6806V84.7004H61.3191V82.0619Z" fill="#222222"/>
<path id="Vector_373" d="M63.958 82.0619H61.3194V84.7004H63.958V82.0619Z" fill="#222222"/>
<path id="Vector_374" d="M69.235 82.0619H66.5964V84.7004H69.235V82.0619Z" fill="#222222"/>
<path id="Vector_375" d="M77.1512 82.0619H74.512V84.7004H77.1512V82.0619Z" fill="#222222"/>
<path id="Vector_376" d="M79.7898 82.0619H77.1512V84.7004H79.7898V82.0619Z" fill="#222222"/>
<path id="Vector_377" d="M82.4276 82.0619H79.789V84.7004H82.4276V82.0619Z" fill="#222222"/>
<path id="Vector_378" d="M92.9824 82.0619H90.3439V84.7004H92.9824V82.0619Z" fill="#222222"/>
<path id="Vector_379" d="M95.621 82.0619H92.9824V84.7004H95.621V82.0619Z" fill="#222222"/>
<path id="Vector_380" d="M100.898 82.0619H98.2595V84.7004H100.898V82.0619Z" fill="#222222"/>
<path id="Vector_381" d="M50.7651 84.7012H48.1265V87.3397H50.7651V84.7012Z" fill="#222222"/>
<path id="Vector_382" d="M56.0421 84.7012H53.4036V87.3397H56.0421V84.7012Z" fill="#222222"/>
<path id="Vector_383" d="M66.5966 84.7012H63.958V87.3397H66.5966V84.7012Z" fill="#222222"/>
<path id="Vector_384" d="M69.235 84.7012H66.5964V87.3397H69.235V84.7012Z" fill="#222222"/>
<path id="Vector_385" d="M71.8739 84.7012H69.2353V87.3397H71.8739V84.7012Z" fill="#222222"/>
<path id="Vector_386" d="M77.1512 84.7012H74.512V87.3397H77.1512V84.7012Z" fill="#222222"/>
<path id="Vector_387" d="M79.7898 84.7012H77.1512V87.3397H79.7898V84.7012Z" fill="#222222"/>
<path id="Vector_388" d="M82.4276 84.7012H79.789V87.3397H82.4276V84.7012Z" fill="#222222"/>
<path id="Vector_389" d="M87.7054 84.7012H85.0668V87.3397H87.7054V84.7012Z" fill="#222222"/>
<path id="Vector_390" d="M92.9824 84.7012H90.3439V87.3397H92.9824V84.7012Z" fill="#222222"/>
<path id="Vector_391" d="M40.2108 87.3397H37.5721V89.9783H40.2108V87.3397Z" fill="#222222"/>
<path id="Vector_392" d="M42.8493 87.3397H40.2107V89.9783H42.8493V87.3397Z" fill="#222222"/>
<path id="Vector_393" d="M56.0421 87.3397H53.4036V89.9783H56.0421V87.3397Z" fill="#222222"/>
<path id="Vector_394" d="M61.3191 87.3397H58.6806V89.9783H61.3191V87.3397Z" fill="#222222"/>
<path id="Vector_395" d="M63.958 87.3397H61.3194V89.9783H63.958V87.3397Z" fill="#222222"/>
<path id="Vector_396" d="M71.8739 87.3397H69.2353V89.9783H71.8739V87.3397Z" fill="#222222"/>
<path id="Vector_397" d="M74.5127 87.3397H71.8738V89.9783H74.5127V87.3397Z" fill="#222222"/>
<path id="Vector_398" d="M79.7898 87.3397H77.1512V89.9783H79.7898V87.3397Z" fill="#222222"/>
<path id="Vector_399" d="M82.4276 87.3397H79.789V89.9783H82.4276V87.3397Z" fill="#222222"/>
<path id="Vector_400" d="M92.9824 87.3397H90.3439V89.9783H92.9824V87.3397Z" fill="#222222"/>
<path id="Vector_401" d="M95.621 87.3397H92.9824V89.9783H95.621V87.3397Z" fill="#222222"/>
<path id="Vector_402" d="M98.2595 87.3397H95.621V89.9783H98.2595V87.3397Z" fill="#222222"/>
<path id="Vector_403" d="M100.898 87.3397H98.2595V89.9783H100.898V87.3397Z" fill="#222222"/>
<path id="Vector_404" d="M103.537 87.3397H100.899V89.9783H103.537V87.3397Z" fill="#222222"/>
<path id="Vector_405" d="M42.8493 89.9781H40.2107V92.6167H42.8493V89.9781Z" fill="#222222"/>
<path id="Vector_406" d="M50.7651 89.9781H48.1265V92.6167H50.7651V89.9781Z" fill="#222222"/>
<path id="Vector_407" d="M56.0421 89.9781H53.4036V92.6167H56.0421V89.9781Z" fill="#222222"/>
<path id="Vector_408" d="M58.6807 89.9781H56.0421V92.6167H58.6807V89.9781Z" fill="#222222"/>
<path id="Vector_409" d="M66.5966 89.9781H63.958V92.6167H66.5966V89.9781Z" fill="#222222"/>
<path id="Vector_410" d="M71.8739 89.9781H69.2353V92.6167H71.8739V89.9781Z" fill="#222222"/>
<path id="Vector_411" d="M79.7898 89.9781H77.1512V92.6167H79.7898V89.9781Z" fill="#222222"/>
<path id="Vector_412" d="M82.4276 89.9781H79.789V92.6167H82.4276V89.9781Z" fill="#222222"/>
<path id="Vector_413" d="M85.0661 89.9781H82.4276V92.6167H85.0661V89.9781Z" fill="#222222"/>
<path id="Vector_414" d="M87.7054 89.9781H85.0668V92.6167H87.7054V89.9781Z" fill="#222222"/>
<path id="Vector_415" d="M90.3439 89.9781H87.7054V92.6167H90.3439V89.9781Z" fill="#222222"/>
<path id="Vector_416" d="M92.9824 89.9781H90.3439V92.6167H92.9824V89.9781Z" fill="#222222"/>
<path id="Vector_417" d="M98.2595 89.9781H95.621V92.6167H98.2595V89.9781Z" fill="#222222"/>
<path id="Vector_418" d="M100.898 89.9781H98.2595V92.6167H100.898V89.9781Z" fill="#222222"/>
<path id="Vector_419" d="M40.2108 92.6168H37.5721V95.2554H40.2108V92.6168Z" fill="#222222"/>
<path id="Vector_420" d="M45.4878 92.6168H42.8492V95.2554H45.4878V92.6168Z" fill="#222222"/>
<path id="Vector_421" d="M48.1266 92.6168H45.488V95.2554H48.1266V92.6168Z" fill="#222222"/>
<path id="Vector_422" d="M50.7651 92.6168H48.1265V95.2554H50.7651V92.6168Z" fill="#222222"/>
<path id="Vector_423" d="M58.6807 92.6168H56.0421V95.2554H58.6807V92.6168Z" fill="#222222"/>
<path id="Vector_424" d="M69.235 92.6168H66.5964V95.2554H69.235V92.6168Z" fill="#222222"/>
<path id="Vector_425" d="M71.8739 92.6168H69.2353V95.2554H71.8739V92.6168Z" fill="#222222"/>
<path id="Vector_426" d="M77.1512 92.6168H74.512V95.2554H77.1512V92.6168Z" fill="#222222"/>
<path id="Vector_427" d="M82.4276 92.6168H79.789V95.2554H82.4276V92.6168Z" fill="#222222"/>
<path id="Vector_428" d="M90.3439 92.6168H87.7054V95.2554H90.3439V92.6168Z" fill="#222222"/>
<path id="Vector_429" d="M100.898 92.6168H98.2595V95.2554H100.898V92.6168Z" fill="#222222"/>
<path id="Vector_430" d="M103.537 92.6168H100.899V95.2554H103.537V92.6168Z" fill="#222222"/>
<path id="Vector_431" d="M40.2108 95.2552H37.5721V97.8938H40.2108V95.2552Z" fill="#222222"/>
<path id="Vector_432" d="M42.8493 95.2552H40.2107V97.8938H42.8493V95.2552Z" fill="#222222"/>
<path id="Vector_433" d="M48.1266 95.2552H45.488V97.8938H48.1266V95.2552Z" fill="#222222"/>
<path id="Vector_434" d="M50.7651 95.2552H48.1265V97.8938H50.7651V95.2552Z" fill="#222222"/>
<path id="Vector_435" d="M53.4033 95.2552H50.7647V97.8938H53.4033V95.2552Z" fill="#222222"/>
<path id="Vector_436" d="M61.3191 95.2552H58.6806V97.8938H61.3191V95.2552Z" fill="#222222"/>
<path id="Vector_437" d="M63.958 95.2552H61.3194V97.8938H63.958V95.2552Z" fill="#222222"/>
<path id="Vector_438" d="M69.235 95.2552H66.5964V97.8938H69.235V95.2552Z" fill="#222222"/>
<path id="Vector_439" d="M79.7898 95.2552H77.1512V97.8938H79.7898V95.2552Z" fill="#222222"/>
<path id="Vector_440" d="M82.4276 95.2552H79.789V97.8938H82.4276V95.2552Z" fill="#222222"/>
<path id="Vector_441" d="M87.7054 95.2552H85.0668V97.8938H87.7054V95.2552Z" fill="#222222"/>
<path id="Vector_442" d="M90.3439 95.2552H87.7054V97.8938H90.3439V95.2552Z" fill="#222222"/>
<path id="Vector_443" d="M95.621 95.2552H92.9824V97.8938H95.621V95.2552Z" fill="#222222"/>
<path id="Vector_444" d="M40.2108 97.8938H37.5721V100.532H40.2108V97.8938Z" fill="#222222"/>
<path id="Vector_445" d="M42.8493 97.8938H40.2107V100.532H42.8493V97.8938Z" fill="#222222"/>
<path id="Vector_446" d="M45.4878 97.8938H42.8492V100.532H45.4878V97.8938Z" fill="#222222"/>
<path id="Vector_447" d="M48.1266 97.8938H45.488V100.532H48.1266V97.8938Z" fill="#222222"/>
<path id="Vector_448" d="M58.6807 97.8938H56.0421V100.532H58.6807V97.8938Z" fill="#222222"/>
<path id="Vector_449" d="M61.3191 97.8938H58.6806V100.532H61.3191V97.8938Z" fill="#222222"/>
<path id="Vector_450" d="M63.958 97.8938H61.3194V100.532H63.958V97.8938Z" fill="#222222"/>
<path id="Vector_451" d="M69.235 97.8938H66.5964V100.532H69.235V97.8938Z" fill="#222222"/>
<path id="Vector_452" d="M77.1512 97.8938H74.512V100.532H77.1512V97.8938Z" fill="#222222"/>
<path id="Vector_453" d="M82.4276 97.8938H79.789V100.532H82.4276V97.8938Z" fill="#222222"/>
<path id="Vector_454" d="M85.0661 97.8938H82.4276V100.532H85.0661V97.8938Z" fill="#222222"/>
<path id="Vector_455" d="M90.3439 97.8938H87.7054V100.532H90.3439V97.8938Z" fill="#222222"/>
<path id="Vector_456" d="M92.9824 97.8938H90.3439V100.532H92.9824V97.8938Z" fill="#222222"/>
<path id="Vector_457" d="M103.537 97.8938H100.899V100.532H103.537V97.8938Z" fill="#222222"/>
<path id="Vector_458" d="M42.8493 100.533H40.2107V103.172H42.8493V100.533Z" fill="#222222"/>
<path id="Vector_459" d="M48.1266 100.533H45.488V103.172H48.1266V100.533Z" fill="#222222"/>
<path id="Vector_460" d="M50.7651 100.533H48.1265V103.172H50.7651V100.533Z" fill="#222222"/>
<path id="Vector_461" d="M53.4033 100.533H50.7647V103.172H53.4033V100.533Z" fill="#222222"/>
<path id="Vector_462" d="M56.0421 100.533H53.4036V103.172H56.0421V100.533Z" fill="#222222"/>
<path id="Vector_463" d="M58.6807 100.533H56.0421V103.172H58.6807V100.533Z" fill="#222222"/>
<path id="Vector_464" d="M61.3191 100.533H58.6806V103.172H61.3191V100.533Z" fill="#222222"/>
<path id="Vector_465" d="M71.8739 100.533H69.2353V103.172H71.8739V100.533Z" fill="#222222"/>
<path id="Vector_466" d="M74.5127 100.533H71.8738V103.172H74.5127V100.533Z" fill="#222222"/>
<path id="Vector_467" d="M79.7898 100.533H77.1512V103.172H79.7898V100.533Z" fill="#222222"/>
<path id="Vector_468" d="M85.0661 100.533H82.4276V103.172H85.0661V100.533Z" fill="#222222"/>
<path id="Vector_469" d="M92.9824 100.533H90.3439V103.172H92.9824V100.533Z" fill="#222222"/>
<path id="Vector_470" d="M98.2595 100.533H95.621V103.172H98.2595V100.533Z" fill="#222222"/>
<path id="Vector_471" d="M33.6097 17.4126H17.7782V33.2441H33.6097V17.4126Z" stroke="#222222" stroke-width="2.9225"/>
<path id="Vector_472" d="M29.6516 21.3701H21.7358V29.2859H29.6516V21.3701Z" fill="#222222"/>
<path id="Vector_473" d="M102.222 17.4126H86.3898V33.2441H102.222V17.4126Z" stroke="#222222" stroke-width="2.9225"/>
<path id="Vector_474" d="M98.2639 21.3701H90.3483V29.2859H98.2639V21.3701Z" fill="#222222"/>
<path id="Vector_475" d="M33.6097 86.024H17.7782V101.856H33.6097V86.024Z" stroke="#222222" stroke-width="2.9225"/>
<path id="Vector_476" d="M29.6516 89.9825H21.7358V97.8982H29.6516V89.9825Z" fill="#222222"/>
</g>
</g>
</g>
</g>
<defs>
<clipPath id="clip0_211_5713">
<rect width="120" height="119.268" fill="white"/>
</clipPath>
</defs>
</svg>
