<svg width="360" height="98" viewBox="0 0 360 98" fill="none" xmlns="http://www.w3.org/2000/svg">
<g clip-path="url(#clip0_211_7195)">
<mask id="mask0_211_7195" style="mask-type:luminance" maskUnits="userSpaceOnUse" x="0" y="5" width="360" height="164">
<path d="M360 5.625H0V168.647H360V5.625Z" fill="white"/>
</mask>
<g mask="url(#mask0_211_7195)">
<path d="M378.739 60.7192L-1.82849 13.4519L-4.24957 32.9449L376.318 80.2123L378.739 60.7192Z" fill="#F2BD49"/>
<path d="M6.699 26.5592C6.55197 27.7467 6.4483 28.9492 6.37479 30.1537L4.86685 29.9652C4.99125 29.4224 5.10623 28.872 5.20236 28.3253C4.46024 28.1049 3.68795 28.0031 2.91407 28.0237C2.86113 28.5876 2.84979 29.1546 2.88014 29.7202L1.35712 29.5317C1.80384 27.8352 1.75861 25.9937 2.28639 24.3142C2.45132 23.7517 2.81071 23.266 3.30047 22.9439C2.98758 22.9778 2.39006 23.2492 2.11109 23.3793L2.51823 22.3708L7.26636 22.9608C7.24562 23.138 6.8479 25.3547 6.699 26.5592ZM5.72637 23.3717L5.45494 23.3359C3.97716 23.1474 3.54928 24.3331 3.26655 25.7128C3.15345 26.2463 3.07805 26.7476 3.00643 27.2792C3.75535 27.5126 4.53944 27.6128 5.323 27.5751C5.55421 26.185 5.68899 24.7805 5.72637 23.3717Z" fill="#F6EFE9"/>
<path d="M13.7148 23.76L13.5263 25.2792C13.0165 24.7104 12.3472 24.3084 11.6056 24.1257C11.133 26.2942 10.8748 28.5039 10.8346 30.7229L9.25505 30.5344C9.75672 28.3689 10.0434 26.1591 10.1108 23.9372C9.42281 23.8882 8.36914 24.1257 7.79047 24.5705L7.97896 23.0513L13.7148 23.76Z" fill="#F6EFE9"/>
<path d="M15.8824 24.5669C15.7712 25.0834 15.643 25.8166 15.5506 26.3444L15.6336 26.3557C16.1406 26.4179 17.3187 26.4462 17.8069 26.0673L17.592 27.7958C17.2433 27.3585 16.069 26.9947 15.5619 26.9306L15.4601 26.9174C15.2552 28.1444 15.1418 29.385 15.1209 30.6288C16.0105 30.7853 17.215 30.6797 18.0236 30.0633L17.8351 31.5713L13.4998 31.0322C14.0465 28.6714 14.3459 26.2602 14.3933 23.8374L18.7286 24.3765L18.5401 25.8845C17.8842 25.0683 16.7852 24.6348 15.8824 24.5669ZM15.577 23.5604L15.315 23.4001L17.3432 22.0977L18.1179 22.5877L17.9897 22.7762C17.2225 22.9949 15.577 23.5604 15.577 23.5604Z" fill="#F6EFE9"/>
<path d="M30.3246 30.1085C30.0702 32.1649 28.4925 33.049 26.7433 32.8322C24.4173 32.5438 24.0799 31.0472 24.1666 29.9407L26.3229 29.8484C26.1344 30.6023 26.0157 32.2196 26.8319 32.3214C27.3973 32.393 27.6952 31.6334 27.861 30.2989C28.2097 27.4979 26.4492 26.5705 24.7038 26.3292L25.1637 22.5198L30.0042 23.1211L29.7328 25.5112C29.0489 24.6599 28.1975 23.958 27.2315 23.449L26.8752 25.8033C28.1475 26.0597 30.6432 27.5506 30.3246 30.1085Z" fill="#F6EFE9"/>
<path d="M38.411 29.1359C38.0641 31.9275 36.4865 34.0367 34.0361 33.7389C31.5857 33.4411 30.5735 30.9963 30.9203 28.2066C31.2671 25.4169 32.858 23.2889 35.2971 23.5923C37.7362 23.8958 38.7597 26.3349 38.411 29.1359ZM35.708 28.8004C36.0228 26.2802 35.7495 24.4651 35.1953 24.401C34.5299 24.318 33.8099 26.005 33.4989 28.5271C33.1878 31.0491 33.4668 32.885 34.1341 32.9679C34.6845 33.0358 35.397 31.3092 35.708 28.8004Z" fill="#F6EFE9"/>
<path d="M40.5521 27.1285C39.8981 27.0475 39.5286 26.4292 39.6323 25.5942C39.736 24.7592 40.2392 24.2427 40.899 24.3238C41.5587 24.4048 41.9281 25.0325 41.8245 25.8675C41.7208 26.7025 41.2043 27.2096 40.5521 27.1285ZM41.5983 30.3895L39.9998 30.201C41.1072 28.4587 42.085 26.6373 42.9252 24.7516L44.5218 24.9401C43.381 26.6623 42.4023 28.4866 41.5983 30.3895ZM40.603 26.7082C40.6841 26.7176 40.8405 26.237 40.9008 25.7525C40.9612 25.2681 40.9272 24.7554 40.8481 24.746C40.7689 24.7366 40.6162 25.2304 40.5559 25.7092C40.4956 26.188 40.5314 26.6988 40.603 26.7082ZM44.8931 29.5017C44.7894 30.3367 44.273 30.8531 43.6189 30.7721C42.9648 30.691 42.5916 30.0634 42.6953 29.2283C42.799 28.3933 43.3173 27.8787 43.9695 27.9598C44.6217 28.0408 44.9968 28.6666 44.8931 29.5017ZM43.962 29.3867C44.0242 28.8872 43.9978 28.3914 43.9167 28.3801C43.8357 28.3688 43.6886 28.8457 43.6264 29.3452C43.5642 29.8447 43.5925 30.3329 43.6736 30.3423C43.7546 30.3518 43.9073 29.8862 43.962 29.3867Z" fill="#F6EFE9"/>
<path d="M54.3177 32.3555C54.0632 34.4138 52.446 35.8765 50.5064 35.6353L48.0861 35.3337C48.628 32.9721 48.9273 30.5613 48.9796 28.1389L51.2245 28.4179C51.6878 28.4694 52.1362 28.6126 52.5435 28.8393C52.9508 29.066 53.3089 29.3715 53.5968 29.738C53.8848 30.1046 54.0968 30.5248 54.2206 30.9742C54.3444 31.4236 54.3774 31.8932 54.3177 32.3555ZM52.9323 32.1821C53.1622 30.3292 52.4252 29.1662 51.0209 28.9947C50.9927 28.9947 50.6063 28.9344 50.3952 28.9004C50.0192 30.8935 49.7674 32.9079 49.6412 34.9322C49.7411 34.9548 50.2312 35.0151 50.2689 35.0208C51.6034 35.1772 52.7023 34.035 52.9323 32.1821Z" fill="#F6EFE9"/>
<path d="M56.8023 29.6487C56.691 30.1651 56.5629 30.8984 56.4686 31.4261H56.478L56.561 31.4375C57.068 31.4997 58.248 31.5279 58.7343 31.1491L58.5213 32.8756C58.1707 32.4402 56.9983 32.0764 56.4894 32.0124L56.3876 31.9992C56.1826 33.2262 56.0692 34.4667 56.0483 35.7106C56.9399 35.867 58.1443 35.7615 58.9511 35.1451L58.7626 36.653L54.4272 36.114C54.9739 33.7532 55.2733 31.3419 55.3207 28.9192L59.656 29.4583L59.4675 30.9662C58.7984 30.1444 57.7032 29.7165 56.8023 29.6487Z" fill="#F6EFE9"/>
<path d="M69.1974 34.2025C68.941 36.2627 67.3238 37.7235 65.3861 37.4823L62.9658 37.1826C63.5065 34.8207 63.8059 32.4101 63.8593 29.9878L66.1023 30.2649C66.5656 30.3166 67.0139 30.46 67.4212 30.6867C67.8285 30.9135 68.1865 31.2189 68.4746 31.5854C68.7627 31.9519 68.9749 32.372 69.099 32.8213C69.2231 33.2706 69.2565 33.7401 69.1974 34.2025ZM67.812 34.031C68.0419 32.1781 67.3049 31.0151 65.9007 30.8435C65.8724 30.8435 65.486 30.7832 65.2749 30.7474C64.898 32.7403 64.6462 34.7548 64.5209 36.7792C64.6208 36.7999 65.1109 36.8602 65.1467 36.8659C66.4831 37.0242 67.582 35.8838 67.812 34.031Z" fill="#F6EFE9"/>
<path d="M71.6797 31.4978C71.5685 32.0124 71.4403 32.7456 71.3461 33.2734H71.3555L71.4384 33.2828C71.9474 33.345 73.1254 33.3733 73.6136 32.9963L73.3987 34.7229C73.05 34.2856 71.8757 33.9218 71.3687 33.8577L71.2669 33.8464C71.0608 35.0733 70.9474 36.3139 70.9276 37.5578C71.8173 37.7143 73.0218 37.6068 73.8285 36.9923L73.64 38.5003L69.3047 37.9631C69.8502 35.6021 70.1496 33.191 70.1981 30.7683L74.5335 31.3055L74.345 32.8135C73.689 31.9916 72.5826 31.5637 71.6797 31.4978Z" fill="#F6EFE9"/>
<path d="M79.3686 37.4106C79.2121 38.6604 78.0491 39.1731 76.5732 38.9902C75.4743 38.8545 74.3471 38.1854 74.4998 36.9884C74.6072 36.1251 75.201 35.7236 75.9587 35.8179C76.1297 35.8309 76.2947 35.8863 76.4389 35.9791C76.583 36.0719 76.7018 36.1992 76.7843 36.3494C76.6613 36.3255 76.5347 36.3273 76.4125 36.3547C76.2902 36.3822 76.175 36.4346 76.074 36.5089C75.9731 36.5831 75.8886 36.6774 75.8259 36.7859C75.7633 36.8944 75.7238 37.0147 75.7099 37.1392C75.6119 37.9309 76.1284 38.3041 76.6637 38.372C77.4686 38.47 77.9699 38.1232 78.0661 37.3579C78.2904 35.5408 74.807 34.9716 75.0804 32.7681C75.1765 31.9953 75.8852 31.279 77.3423 31.4599C79.0048 31.6673 79.689 32.802 79.4402 33.6747L78.1415 33.8632C78.3752 33.3354 78.4638 32.1668 77.2989 32.033C77.1843 32.0144 77.0671 32.0197 76.9548 32.0488C76.8424 32.0778 76.7372 32.1298 76.646 32.2016C76.5547 32.2733 76.4794 32.3632 76.4247 32.4656C76.37 32.568 76.3371 32.6806 76.3282 32.7964C76.0926 34.6304 79.6362 35.2468 79.3686 37.4106Z" fill="#F6EFE9"/>
<path d="M81.4174 35.7388C81.1988 37.5728 81.8151 39.0299 83.0158 39.1788C83.6341 39.2561 84.2335 39.1204 84.405 38.4097C84.4242 38.3078 84.428 38.2036 84.4163 38.1006L85.6717 38.2571C85.6133 39.4012 84.209 39.912 82.9442 39.7537C80.7464 39.4804 79.7398 37.8141 80.032 35.5654C80.3242 33.3167 81.702 32.0839 83.864 32.3516C85.3324 32.5401 86.3653 33.3487 86.1429 34.4702L84.8668 34.3119C84.9105 34.2205 84.9385 34.1224 84.9498 34.0216C85.027 33.4015 84.4936 33.0151 83.7924 32.9284C82.522 32.77 81.6511 33.8953 81.4174 35.7388Z" fill="#F6EFE9"/>
<path d="M93.319 37.2901C93.0645 39.3409 91.4982 40.845 89.4116 40.5849C87.3249 40.3248 86.1733 38.4851 86.4277 36.4381C86.6822 34.391 88.2504 32.8737 90.3371 33.1338C92.4237 33.3939 93.5754 35.2298 93.319 37.2901ZM91.9336 37.1166C92.1635 35.2656 91.4002 33.8557 90.2654 33.7238C89.1307 33.5918 88.045 34.7624 87.815 36.6153C87.5851 38.4681 88.3485 39.8781 89.4851 40.0194C90.6217 40.1608 91.7055 38.962 91.9336 37.1166Z" fill="#F6EFE9"/>
<path d="M100.036 34.4795C99.4965 36.8417 99.1947 39.252 99.1355 41.6743L97.6275 41.4858C97.7113 41.2216 97.7744 40.9512 97.816 40.6772C97.488 39.7686 96.2949 37.2843 95.4957 35.5671C95.1458 37.4079 94.9516 39.275 94.9151 41.1484L93.345 40.9599C93.8822 38.5975 94.1815 36.1872 94.2384 33.7651L95.8086 33.9536V33.9894H95.8368C96.276 35.5143 97.2637 37.601 98.0177 39.0919C98.2864 37.5044 98.4358 35.899 98.4644 34.2891L100.036 34.4795Z" fill="#F6EFE9"/>
<path d="M106.487 35.2807L106.299 36.7999C105.791 36.2284 105.122 35.8237 104.38 35.6388C103.906 37.8072 103.648 40.017 103.609 42.2361L102.029 42.0476C102.53 39.8883 102.816 37.6848 102.883 35.4692C102.195 35.4202 101.143 35.6577 100.563 36.1025L100.751 34.5833L106.487 35.2807Z" fill="#F6EFE9"/>
<path d="M113.047 39.7386C112.792 41.7894 111.226 43.2936 109.139 43.0353C107.052 42.7771 105.901 40.9337 106.155 38.8885C106.41 36.8434 107.978 35.3241 110.065 35.5823C112.151 35.8406 113.303 37.6803 113.047 39.7386ZM111.661 39.5671C111.891 37.7142 111.128 36.3043 109.993 36.1629C108.858 36.0215 107.773 37.2034 107.543 39.0563C107.313 40.9091 108.074 42.3191 109.211 42.4604C110.347 42.6018 111.433 41.4105 111.661 39.5671Z" fill="#F6EFE9"/>
<path d="M126.629 41.4539C126.482 42.6414 126.379 43.8421 126.305 45.0485L124.797 44.86C124.92 44.3171 125.036 43.7667 125.133 43.2201C124.391 42.9989 123.618 42.8971 122.844 42.9185C122.791 43.4824 122.78 44.0494 122.81 44.6149L121.287 44.4265C121.734 42.7206 121.689 40.8885 122.217 39.209C122.381 38.6459 122.741 38.1596 123.231 37.8368C122.918 37.8726 122.32 38.144 122.041 38.2741L122.448 37.2656L127.197 37.8556C127.176 38.0328 126.778 40.2495 126.629 41.4539ZM125.655 38.2627L125.387 38.2288C123.909 38.0403 123.481 39.2259 123.199 40.6057C123.086 41.1391 123.01 41.6405 122.939 42.1721C123.688 42.4046 124.472 42.5048 125.255 42.468C125.486 41.0773 125.62 39.6721 125.655 38.2627Z" fill="#F6EFE9"/>
<path d="M133.645 38.653L133.457 40.1741C132.947 39.6037 132.278 39.2004 131.536 39.0168C131.063 41.1853 130.805 43.395 130.765 45.614L129.185 45.4255C129.691 43.2604 129.98 41.0505 130.049 38.8283C129.363 38.7793 128.309 39.0168 127.728 39.4616L127.917 37.9424L133.645 38.653Z" fill="#F6EFE9"/>
<path d="M135.813 39.4614C135.701 39.9778 135.573 40.7111 135.481 41.237L135.564 41.2464C136.073 41.3105 137.26 41.3388 137.739 40.9599L137.524 42.6865C137.175 42.2511 136.001 41.8854 135.494 41.8232L135.392 41.81C135.186 43.0369 135.073 44.2775 135.053 45.5214C135.943 45.6779 137.147 45.5723 137.956 44.9559L137.767 46.4639L133.432 45.9248C133.979 43.564 134.278 41.1528 134.325 38.73L138.661 39.2672L138.472 40.7752C137.814 39.959 136.715 39.5273 135.813 39.4614ZM135.515 38.4511L135.253 38.2908L137.281 36.9902L138.056 37.4803L137.927 37.6688C137.153 37.8856 135.515 38.4511 135.515 38.4511Z" fill="#F6EFE9"/>
<path d="M150.255 45.0033C150 47.0597 148.423 47.9437 146.673 47.727C144.347 47.4386 144.01 45.942 144.097 44.8355L146.253 44.7413C146.065 45.4952 145.944 47.1144 146.762 47.2162C147.327 47.2859 147.625 46.5282 147.791 45.1936C148.14 42.3908 146.379 41.4653 144.634 41.224L145.094 37.4146L149.934 38.0158L149.663 40.4059C148.979 39.5514 148.128 38.8458 147.162 38.3325L146.805 40.6887C148.078 40.9544 150.573 42.4454 150.255 45.0033Z" fill="#F6EFE9"/>
<path d="M158.341 44.0307C157.994 46.8222 156.417 48.9315 153.966 48.6337C151.516 48.3358 150.504 45.8911 150.849 43.1014C151.193 40.3117 152.788 38.1836 155.225 38.4871C157.663 38.7906 158.699 41.2278 158.341 44.0307ZM155.638 43.6952C155.951 41.175 155.68 39.3598 155.125 39.2939C154.46 39.2109 153.74 40.8998 153.429 43.42C153.118 45.9401 153.397 47.7798 154.064 47.8608C154.615 47.9306 155.327 46.204 155.638 43.6952Z" fill="#F6EFE9"/>
<path d="M160.482 42.0326C159.828 41.9515 159.459 41.3333 159.563 40.4983C159.666 39.6632 160.17 39.1468 160.829 39.2278C161.489 39.3089 161.858 39.9347 161.755 40.7716C161.651 41.6085 161.135 42.1042 160.482 42.0326ZM161.529 45.2935L159.93 45.0956C161.038 43.3533 162.015 41.532 162.856 39.6463L164.452 39.8442C163.31 41.5628 162.331 43.384 161.527 45.2841L161.529 45.2935ZM160.533 41.6123C160.614 41.6217 160.771 41.141 160.831 40.6566C160.891 40.1722 160.858 39.6595 160.778 39.65C160.699 39.6406 160.547 40.1345 160.486 40.6132C160.426 41.092 160.46 41.5934 160.533 41.6028V41.6123ZM164.823 44.4057C164.72 45.2407 164.203 45.7553 163.549 45.6743C162.895 45.5932 162.522 44.9674 162.626 44.1324C162.729 43.2974 163.248 42.7828 163.9 42.8638C164.552 42.9449 164.92 43.5613 164.823 44.3963V44.4057ZM163.892 44.2907C163.954 43.7912 163.928 43.2936 163.847 43.2842C163.766 43.2748 163.619 43.7479 163.557 44.2474C163.495 44.7469 163.523 45.237 163.602 45.2464C163.681 45.2558 163.83 44.7808 163.892 44.2813V44.2907Z" fill="#F6EFE9"/>
<path d="M174.248 47.2481C173.993 49.3084 172.376 50.7692 170.437 50.5298L168.016 50.2282C168.558 47.8666 168.857 45.4558 168.91 43.0334L171.155 43.3124C171.618 43.3639 172.066 43.5071 172.473 43.7337C172.88 43.9602 173.238 44.2656 173.526 44.6319C173.814 44.9983 174.026 45.4183 174.15 45.8675C174.274 46.3166 174.307 46.786 174.248 47.2481ZM172.863 47.0766C173.092 45.2237 172.355 44.0607 170.951 43.8892C170.923 43.8892 170.537 43.8289 170.325 43.7931C169.949 45.786 169.697 47.8005 169.571 49.8248C169.671 49.8475 170.161 49.9078 170.199 49.9115C171.534 50.0718 172.633 48.9295 172.863 47.0766Z" fill="#F6EFE9"/>
<path d="M176.732 44.5431C176.621 45.0596 176.493 45.7928 176.399 46.3187H176.417L176.5 46.3281C177.007 46.3922 178.197 46.4205 178.674 46.0416L178.461 47.7682C178.11 47.3328 176.936 46.9671 176.429 46.9049L176.327 46.8917C176.122 48.1188 176.009 49.3593 175.988 50.6032C176.879 50.7596 178.084 50.654 178.891 50.0377L178.702 51.5456L174.367 51.0065C174.913 48.6458 175.213 46.2345 175.26 43.8118L179.595 44.3509L179.407 45.8588C178.734 45.0483 177.633 44.6091 176.732 44.5431Z" fill="#F6EFE9"/>
<path d="M189.128 49.0972C188.871 51.1555 187.254 52.6182 185.314 52.377L182.896 52.0754C183.437 49.7136 183.736 47.303 183.789 44.8806L186.033 45.1596C186.496 45.2113 186.944 45.3547 187.351 45.5815C187.759 45.8082 188.117 46.1137 188.405 46.4801C188.693 46.8466 188.905 47.2667 189.029 47.716C189.153 48.1653 189.187 48.6348 189.128 49.0972ZM187.742 48.9238C187.972 47.0728 187.235 45.9079 185.831 45.7383L185.205 45.6421C184.829 47.6352 184.577 49.6496 184.451 51.6739C184.553 51.6946 185.043 51.7549 185.079 51.7606C186.408 51.9189 187.512 50.7767 187.742 48.9238Z" fill="#F6EFE9"/>
<path d="M191.61 46.3925C191.499 46.9071 191.371 47.6403 191.276 48.1681L191.359 48.1794C191.868 48.2416 193.046 48.2699 193.534 47.8929L193.32 49.6195C192.971 49.1822 191.797 48.8184 191.288 48.7543L191.188 48.7411C190.981 49.9679 190.867 51.2086 190.848 52.4525C191.738 52.609 192.943 52.5034 193.749 51.887L193.561 53.395L189.225 52.8559C189.771 50.495 190.071 48.0838 190.119 45.6611L194.454 46.2002L194.266 47.7082C193.612 46.8863 192.511 46.4585 191.61 46.3925Z" fill="#F6EFE9"/>
<path d="M199.299 52.3054C199.142 53.5551 197.979 54.0678 196.503 53.885C195.404 53.7493 194.277 53.0782 194.43 51.8832C194.537 51.0199 195.131 50.6184 195.889 50.7127C196.06 50.7253 196.225 50.7805 196.369 50.8734C196.512 50.9663 196.631 51.0938 196.713 51.2442C196.59 51.22 196.463 51.2215 196.341 51.2487C196.219 51.2759 196.104 51.3283 196.003 51.4023C195.902 51.4764 195.818 51.5707 195.755 51.6791C195.693 51.7875 195.654 51.9077 195.64 52.0321C195.542 52.8238 196.059 53.1989 196.594 53.2649C197.397 53.3648 197.9 53.0179 197.996 52.2526C198.221 50.4356 194.737 49.8663 195.011 47.6629C195.107 46.89 195.815 46.1738 197.272 46.3547C198.935 46.5621 199.619 47.6968 199.37 48.5695L198.072 48.758C198.305 48.2283 198.394 47.071 197.229 46.9258C197.114 46.9067 196.996 46.9117 196.883 46.9405C196.77 46.9694 196.664 47.0215 196.572 47.0934C196.48 47.1654 196.405 47.2557 196.35 47.3586C196.295 47.4615 196.262 47.5748 196.253 47.6911C196.021 49.5233 199.566 50.1378 199.299 52.3054Z" fill="#F6EFE9"/>
<path d="M201.344 50.6317C201.125 52.4676 201.742 53.9246 202.942 54.0735C203.56 54.1489 204.16 54.0132 204.331 53.3045C204.351 53.2026 204.354 53.0984 204.343 52.9954L205.598 53.1518C205.54 54.296 204.135 54.8049 202.871 54.6484C200.673 54.3751 199.666 52.707 199.958 50.4601C200.251 48.2133 201.628 46.9787 203.79 47.2558C205.259 47.4443 206.292 48.251 206.067 49.3744L204.793 49.2161C204.837 49.1246 204.865 49.0265 204.876 48.9258C204.953 48.3038 204.42 47.9193 203.719 47.8307C202.452 47.6648 201.581 48.7901 201.344 50.6317Z" fill="#F6EFE9"/>
<path d="M213.249 52.1848C212.995 54.2337 211.428 55.7379 209.342 55.4797C207.255 55.2214 206.103 53.378 206.358 51.3328C206.612 49.2877 208.18 47.7684 210.267 48.0267C212.354 48.2849 213.505 50.1246 213.249 52.1848ZM211.864 52.0114C212.094 50.1585 211.33 48.7486 210.194 48.6072C209.057 48.4659 207.973 49.6477 207.743 51.5006C207.513 53.3535 208.277 54.7634 209.413 54.9048C210.55 55.0461 211.634 53.8549 211.864 52.0114Z" fill="#F6EFE9"/>
<path d="M219.959 49.3837C219.423 51.7463 219.123 54.1565 219.066 56.5785L217.558 56.39C217.642 56.1258 217.705 55.8554 217.746 55.5814C217.418 54.6729 216.225 52.1885 215.426 50.4713C215.075 52.312 214.881 54.1791 214.846 56.0526L213.275 55.8641C213.813 53.5011 214.112 51.0902 214.169 48.6675L215.739 48.856V48.8918H215.767C216.206 50.4167 217.194 52.5033 217.946 53.9943C218.217 52.4064 218.366 50.8002 218.393 49.1896L219.959 49.3837Z" fill="#F6EFE9"/>
<path d="M226.411 50.1755L226.223 51.6947C225.715 51.1232 225.046 50.7184 224.304 50.5336C223.831 52.7019 223.572 54.9117 223.533 57.1308L221.954 56.9423C222.454 54.783 222.74 52.5795 222.807 50.3639C222.119 50.3149 221.068 50.5524 220.487 50.9973L220.676 49.478L226.411 50.1755Z" fill="#F6EFE9"/>
<path d="M232.976 54.6332C232.722 56.684 231.156 58.1882 229.069 57.93C226.982 57.6717 225.831 55.8283 226.085 53.7831C226.34 51.738 227.908 50.2206 229.995 50.4789C232.081 50.7371 233.233 52.5749 232.976 54.6332ZM231.591 54.4617C231.821 52.6088 231.058 51.1989 229.921 51.0575C228.784 50.9162 227.701 52.098 227.471 53.9509C227.241 55.8038 228.004 57.2118 229.141 57.3438C230.277 57.4757 231.363 56.3052 231.591 54.4617Z" fill="#F6EFE9"/>
<path d="M246.559 56.358C246.41 57.5456 246.309 58.7463 246.233 59.9526L244.725 59.7641C244.848 59.2231 244.965 58.6709 245.059 58.1261C244.317 57.9037 243.545 57.8019 242.771 57.8245C242.718 58.3884 242.707 58.9555 242.738 59.521L241.215 59.3325C241.662 57.636 241.617 55.7945 242.145 54.115C242.31 53.5519 242.669 53.0656 243.159 52.7428C242.846 52.7767 242.248 53.05 241.969 53.1801L242.377 52.1716L247.123 52.7616C247.102 52.9275 246.708 55.1423 246.559 56.358ZM245.594 53.1537L245.326 53.1197C243.849 52.9313 243.421 54.1169 243.136 55.4966C243.025 56.0301 242.948 56.5315 242.878 57.063C243.627 57.2955 244.411 57.3957 245.195 57.3589C245.424 55.9681 245.558 54.563 245.594 53.1537Z" fill="#F6EFE9"/>
<path d="M253.575 53.5476L253.386 55.0687C252.879 54.496 252.21 54.091 251.468 53.9076C250.995 56.0761 250.737 58.2858 250.697 60.5048L249.117 60.3164C249.618 58.1571 249.904 55.9536 249.971 53.738C249.283 53.689 248.231 53.9265 247.651 54.3732L247.839 52.8521L253.575 53.5476Z" fill="#F6EFE9"/>
<path d="M255.743 54.356C255.631 54.8725 255.503 55.6057 255.409 56.1316L255.492 56.1411C256.001 56.2052 257.188 56.2315 257.667 55.8546L257.469 57.583C257.12 57.1476 255.946 56.7819 255.439 56.7197L255.337 56.7065C255.13 57.9333 255.017 59.174 254.998 60.418C255.888 60.5744 257.092 60.4689 257.899 59.8525L257.71 61.3604L253.375 60.8232C253.921 58.4623 254.22 56.0511 254.269 53.6285L258.604 54.1657L258.415 55.6736C257.744 54.8499 256.644 54.422 255.743 54.356ZM255.437 53.3495L255.175 53.1893L257.203 51.8887L257.976 52.3788L257.85 52.5672C257.092 52.7878 255.437 53.3419 255.437 53.3419V53.3495Z" fill="#F6EFE9"/>
<path d="M270.185 59.8978C269.93 61.9524 268.353 62.8383 266.603 62.6215C264.277 62.3331 263.94 60.8365 264.027 59.7282L266.181 59.6358C265.993 60.3898 265.874 62.0089 266.692 62.1107C267.257 62.1804 267.555 61.4227 267.721 60.0882C268.07 57.2853 266.307 56.3579 264.564 56.1166L265.024 52.3091L269.864 52.9104L269.593 55.3005C268.909 54.4482 268.058 53.7457 267.092 53.2365L266.735 55.5907C268.008 55.849 270.503 57.34 270.185 59.8978Z" fill="#F6EFE9"/>
<path d="M278.271 58.9252C277.924 61.7149 276.347 63.8261 273.896 63.5263C271.446 63.2266 270.434 60.7857 270.779 57.9941C271.124 55.2025 272.718 53.0782 275.156 53.3817C277.593 53.6852 278.62 56.1224 278.271 58.9252ZM275.565 58.5897C275.877 56.0677 275.606 54.2544 275.052 54.1884C274.386 54.1055 273.666 55.7944 273.355 58.3145C273.044 60.8347 273.323 62.6725 273.991 62.7554C274.545 62.8252 275.257 61.0986 275.565 58.5897Z" fill="#F6EFE9"/>
<path d="M280.411 56.9235C279.758 56.8424 279.389 56.2241 279.493 55.3891C279.596 54.5541 280.1 54.0376 280.759 54.1187C281.419 54.1997 281.788 54.8255 281.685 55.6606C281.581 56.4956 281.063 56.9989 280.411 56.9235ZM281.459 60.1844L279.86 59.9959C280.967 58.2538 281.944 56.4324 282.784 54.5466L284.382 54.7445C283.241 56.4614 282.263 58.2806 281.459 60.1787V60.1844ZM280.465 56.4975C280.546 56.5069 280.703 56.0262 280.763 55.5418C280.823 55.0574 280.789 54.5447 280.708 54.5334C280.627 54.5221 280.478 55.0197 280.418 55.4985C280.358 55.9772 280.39 56.488 280.465 56.4975ZM284.755 59.2909C284.652 60.1259 284.133 60.6405 283.481 60.5595C282.829 60.4784 282.454 59.8526 282.558 59.0176C282.661 58.1826 283.178 57.668 283.83 57.7491C284.482 57.8301 284.857 58.4559 284.753 59.2909H284.755ZM283.824 59.1741C283.886 58.6746 283.858 58.1788 283.779 58.1694C283.7 58.16 283.549 58.6331 283.487 59.1326C283.425 59.6321 283.455 60.1222 283.534 60.1316C283.613 60.141 283.76 59.6736 283.822 59.1741H283.824Z" fill="#F6EFE9"/>
<path d="M294.178 62.1427C293.922 64.2029 292.307 65.6637 290.367 65.4224L287.947 65.1227C288.488 62.7611 288.788 60.3504 288.84 57.928L291.085 58.2069C291.548 58.2585 291.996 58.4017 292.404 58.6282C292.811 58.8547 293.169 59.1601 293.457 59.5264C293.745 59.8928 293.957 60.3128 294.081 60.762C294.204 61.2112 294.238 61.6805 294.178 62.1427ZM292.793 61.9711C293.023 60.1183 292.286 58.9553 290.881 58.7837C290.853 58.7837 290.467 58.7234 290.256 58.6876C289.879 60.6805 289.627 62.695 289.502 64.7194C289.602 64.7401 290.092 64.8023 290.129 64.8061C291.464 64.9663 292.563 63.824 292.793 61.9711Z" fill="#F6EFE9"/>
<path d="M296.662 59.438C296.551 59.9544 296.421 60.6877 296.329 61.2136L296.412 61.223C296.919 61.2871 298.097 61.3135 298.585 60.9365L298.372 62.6631C298.021 62.2277 296.847 61.862 296.34 61.7998L296.238 61.7866C296.033 63.0136 295.92 64.2542 295.899 65.498C296.789 65.6544 297.993 65.547 298.802 64.9325L298.613 66.4405L294.278 65.9033C294.825 63.5425 295.124 61.1313 295.171 58.7085L299.507 59.2457L299.318 60.7536C298.664 59.9394 297.563 59.5039 296.662 59.438Z" fill="#F6EFE9"/>
<path d="M309.058 63.992C308.801 66.0503 307.184 67.5111 305.245 67.2717L302.824 66.9701C303.367 64.6087 303.666 62.1979 303.718 59.7754L305.963 60.0544C306.426 60.1061 306.874 60.2495 307.282 60.4762C307.689 60.7029 308.047 61.0084 308.335 61.3749C308.623 61.7414 308.835 62.1615 308.959 62.6108C309.083 63.0601 309.117 63.5296 309.058 63.992ZM307.672 63.8186C307.902 61.9657 307.163 60.8027 305.759 60.6311C305.733 60.6311 305.344 60.5708 305.133 60.535C304.759 62.5282 304.507 64.5426 304.379 66.5668C304.481 66.5894 304.969 66.6497 305.007 66.6535C306.343 66.8137 307.441 65.6714 307.672 63.8186Z" fill="#F6EFE9"/>
<path d="M311.54 61.2851C311.429 61.8016 311.301 62.5348 311.207 63.0626H311.216L311.299 63.0739C311.808 63.1361 312.995 63.1644 313.474 62.7855L313.259 64.5121C312.911 64.0767 311.736 63.7129 311.227 63.6488L311.126 63.6356C310.92 64.8626 310.808 66.1032 310.788 67.3471C311.678 67.5035 312.882 67.3979 313.689 66.7816L313.501 68.2895L309.165 67.7504C309.711 65.3895 310.01 62.9784 310.059 60.5557L314.394 61.0948L314.206 62.6027C313.542 61.7809 312.441 61.353 311.54 61.2851Z" fill="#F6EFE9"/>
<path d="M319.229 67.2003C319.072 68.45 317.909 68.9627 316.433 68.7798C315.334 68.6441 314.207 67.9731 314.36 66.778C314.467 65.9147 315.061 65.5132 315.819 65.6075C315.99 65.6198 316.155 65.6749 316.299 65.7678C316.443 65.8607 316.561 65.9884 316.643 66.139C316.52 66.1148 316.393 66.1163 316.271 66.1435C316.149 66.1708 316.034 66.2231 315.933 66.2972C315.832 66.3713 315.748 66.4655 315.685 66.5739C315.623 66.6823 315.584 66.8025 315.57 66.9269C315.472 67.7186 315.988 68.0937 316.524 68.1597C317.327 68.2596 317.83 67.9109 317.924 67.1475C318.15 65.3304 314.667 64.7612 314.94 62.5577C315.037 61.783 315.743 61.0686 317.202 61.2495C318.865 61.455 319.549 62.5916 319.3 63.4643L318.002 63.6528C318.235 63.125 318.322 61.9677 317.159 61.8226C317.044 61.8034 316.926 61.8084 316.813 61.8372C316.7 61.8661 316.594 61.9182 316.502 61.9902C316.41 62.0621 316.335 62.1525 316.28 62.2554C316.225 62.3583 316.192 62.4715 316.183 62.5878C315.953 64.4181 319.496 65.0288 319.229 67.2003Z" fill="#F6EFE9"/>
<path d="M321.274 65.5264C321.055 67.3623 321.672 68.8175 322.872 68.9664C323.491 69.0437 324.088 68.908 324.262 68.1993C324.281 68.0974 324.284 67.993 324.271 67.8901L325.528 68.0466C325.47 69.1888 324.066 69.6997 322.801 69.5432C320.603 69.2699 319.596 67.6017 319.889 65.3549C320.181 63.1081 321.559 61.8734 323.721 62.1411C325.189 62.3296 326.222 63.1363 325.998 64.2598L324.723 64.1014C324.766 64.0097 324.794 63.9117 324.806 63.8111C324.884 63.1891 324.35 62.8046 323.649 62.716C322.382 62.5596 321.511 63.6849 321.274 65.5264Z" fill="#F6EFE9"/>
<path d="M333.179 67.0776C332.925 69.1284 331.358 70.6325 329.272 70.3743C327.185 70.1161 326.033 68.2726 326.288 66.2275C326.542 64.1823 328.109 62.665 330.197 62.9232C332.286 63.1814 333.432 65.0287 333.179 67.0776ZM331.794 66.906C332.024 65.0532 331.26 63.6432 330.124 63.5019C328.987 63.3605 327.903 64.5424 327.673 66.3952C327.443 68.2481 328.207 69.6562 329.343 69.7975C330.48 69.9389 331.564 68.7495 331.794 66.9136V66.906Z" fill="#F6EFE9"/>
<path d="M339.895 64.2747C339.357 66.637 339.058 69.0474 339.002 71.4695L337.494 71.281C337.578 71.0169 337.641 70.7465 337.682 70.4723C337.354 69.5638 336.163 67.0795 335.364 65.3623C335.013 67.203 334.819 69.0701 334.783 70.9436L333.213 70.7551C333.749 68.3925 334.049 65.9823 334.106 63.5603L335.677 63.7488V63.7846H335.707C336.146 65.3095 337.134 67.3961 337.886 68.8852C338.156 67.2978 338.305 65.6923 338.332 64.0824L339.895 64.2747Z" fill="#F6EFE9"/>
<path d="M346.342 65.0702L346.153 66.5895C345.645 66.0177 344.976 65.613 344.234 65.4284C343.761 67.5967 343.502 69.8065 343.463 72.0256L341.884 71.8371C342.384 69.6777 342.67 67.4742 342.738 65.2587C342.05 65.2097 340.998 65.4472 340.417 65.8921L340.606 64.3728L346.342 65.0702Z" fill="#F6EFE9"/>
<path d="M352.907 69.5281C352.652 71.5789 351.086 73.0831 348.999 72.8249C346.913 72.5666 345.761 70.7232 346.015 68.678C346.27 66.6329 347.836 65.1136 349.925 65.3738C352.013 65.6339 353.163 67.4792 352.907 69.5281ZM351.527 69.3641C351.757 67.5113 350.994 66.1013 349.857 65.96C348.72 65.8186 347.637 67.0004 347.407 68.8514C347.177 70.7024 347.94 72.1143 349.077 72.2556C350.213 72.397 351.291 71.2001 351.527 69.3641Z" fill="#F6EFE9"/>
<path d="M412.757 35.628L-78.2705 70.1362L-76.9607 88.7736L414.067 54.2654L412.757 35.628Z" fill="#E78941"/>
<path d="M274.88 52.1997C274.893 52.3712 274.929 54.5125 275.01 55.6642C275.091 56.8159 275.214 57.9393 275.365 59.0778L273.927 59.1796C273.942 58.6518 273.949 58.1146 273.938 57.5887C273.204 57.5183 272.464 57.5647 271.746 57.7263C271.8 58.2615 271.894 58.792 272.026 59.3134L270.569 59.4171C270.673 57.7414 270.296 56.0393 270.481 54.3749C270.533 53.8195 270.779 53.3003 271.176 52.9084C270.81 53.0754 270.464 53.2855 270.147 53.5342L270.336 52.5183L274.875 52.1997H274.88ZM273.517 52.8651L273.261 52.8839C271.847 52.982 271.665 54.1619 271.651 55.5021C271.651 56.0223 271.651 56.5049 271.697 57.01C272.438 57.0908 273.189 57.041 273.913 56.863C273.874 55.5228 273.742 54.187 273.517 52.8651Z" fill="#F6EFE9"/>
<path d="M281.046 51.7664L281.148 53.2196C280.569 52.7788 279.871 52.5232 279.144 52.4864C279.099 54.5946 279.262 56.7021 279.63 58.7783L278.123 58.8857C278.193 56.7782 278.056 54.6688 277.714 52.5882C277.061 52.6673 276.125 53.0877 275.663 53.6042L275.561 52.1509L281.046 51.7664Z" fill="#F6EFE9"/>
<path d="M283.218 52.1225C283.218 52.6239 283.218 53.3327 283.233 53.8416H283.312C283.796 53.8077 284.903 53.6192 285.287 53.1762L285.404 54.8274C284.999 54.4844 283.836 54.3581 283.349 54.3939H283.253C283.287 55.5769 283.408 56.7557 283.617 57.9206C284.477 57.9036 285.581 57.5832 286.222 56.865L286.324 58.3089L282.177 58.601C282.254 56.2971 282.092 53.9914 281.693 51.7211L285.839 51.4289L285.941 52.8746C285.178 52.2111 284.071 52.0226 283.218 52.1225ZM282.748 51.2404L282.475 51.1386L284.128 49.5515L284.94 49.8663L284.857 50.0717C284.181 50.4129 282.748 51.2404 282.748 51.2404Z" fill="#F6EFE9"/>
<path d="M297.714 54.6483C297.852 56.6143 296.542 57.7302 294.87 57.8527C292.648 58.0091 292.058 56.6746 291.935 55.6247L293.931 55.1441C293.886 55.898 294.078 57.4154 294.861 57.3607C295.402 57.3211 295.541 56.5596 295.451 55.2873C295.262 52.6069 293.449 52.0641 291.777 52.1583L291.507 48.5204L296.135 48.1943L296.323 50.4751C295.53 49.8049 294.606 49.3057 293.611 49.0086L293.711 51.2705C294.94 51.2687 297.541 52.2111 297.714 54.6483Z" fill="#F6EFE9"/>
<path d="M305.083 52.2601C305.271 54.9292 304.185 57.193 301.842 57.3494C299.499 57.5059 298.108 55.4249 297.92 52.7559C297.731 50.0868 298.828 47.8117 301.16 47.6477C303.492 47.4837 304.894 49.5722 305.083 52.2601ZM302.498 52.4486C302.329 50.0397 301.744 48.3979 301.215 48.4356C300.578 48.4808 300.214 50.1886 300.383 52.5975C300.553 55.0065 301.152 56.6727 301.791 56.6275C302.319 56.5823 302.668 54.85 302.498 52.4411V52.4486Z" fill="#F6EFE9"/>
<path d="M306.713 49.9945C306.089 50.0378 305.631 49.5289 305.582 48.7297C305.533 47.9305 305.901 47.3575 306.524 47.3122C307.148 47.267 307.614 47.7853 307.67 48.5827C307.727 49.38 307.337 49.9492 306.713 49.9945ZM306.685 49.5911C306.762 49.5911 306.82 49.1086 306.786 48.6486C306.753 48.1887 306.63 47.7062 306.553 47.7194C306.475 47.7326 306.426 48.2151 306.458 48.6713C306.491 49.1274 306.615 49.5968 306.685 49.5911ZM308.287 52.8464L306.76 52.9538C307.474 51.1246 308.052 49.2452 308.49 47.3311L310.019 47.2236C309.269 49.0403 308.689 50.9226 308.287 52.8464ZM311.201 51.4138C311.258 52.2111 310.867 52.7879 310.245 52.8313C309.623 52.8746 309.154 52.3601 309.099 51.5608C309.045 50.7616 309.431 50.1867 310.055 50.1434C310.679 50.1 311.144 50.6146 311.201 51.4138ZM310.311 51.476C310.277 50.9991 310.16 50.5336 310.083 50.5449C310.006 50.5562 309.955 51.0218 309.989 51.4986C310.023 51.9755 310.138 52.4279 310.215 52.4223C310.292 52.4166 310.345 51.9529 310.311 51.476Z" fill="#F6EFE9"/>
<path d="M320.52 52.3507C320.66 54.3185 319.419 55.9792 317.564 56.1092L315.25 56.2732C315.323 53.9694 315.16 51.6641 314.765 49.3932L316.912 49.2424C317.354 49.2057 317.799 49.2573 318.22 49.3943C318.642 49.5312 319.032 49.7508 319.368 50.0401C319.704 50.3295 319.979 50.6828 320.176 51.0795C320.374 51.4762 320.491 51.9083 320.52 52.3507ZM319.201 52.4431C319.076 50.6712 318.175 49.7231 316.831 49.8173C316.805 49.8173 316.434 49.8381 316.23 49.8437C316.246 51.7704 316.381 53.6942 316.635 55.6041C316.733 55.6041 317.201 55.5739 317.237 55.572C318.505 55.4815 319.321 54.2149 319.197 52.4431H319.201Z" fill="#F6EFE9"/>
<path d="M322.343 49.3689C322.333 49.8722 322.343 50.579 322.358 51.0879H322.437C322.921 51.054 324.028 50.8636 324.414 50.4226L324.529 52.0737C324.124 51.7307 322.961 51.6044 322.475 51.6383H322.378C322.412 52.8207 322.533 53.9989 322.742 55.1631C323.602 55.1462 324.706 54.8276 325.347 54.1076L325.449 55.5533L321.302 55.8436C321.379 53.5397 321.217 51.234 320.818 48.9636L324.965 48.6733L325.066 50.1172C324.303 49.465 323.197 49.2671 322.343 49.3689Z" fill="#F6EFE9"/>
<path d="M334.751 51.3477C334.891 53.3175 333.648 54.9781 331.794 55.1082L329.481 55.2722C329.553 52.9683 329.391 50.6632 328.996 48.3922L331.142 48.2414C331.583 48.2044 332.028 48.2557 332.45 48.3924C332.871 48.5292 333.262 48.7485 333.598 49.0377C333.934 49.3269 334.209 49.6801 334.407 50.0767C334.605 50.4733 334.722 50.9054 334.751 51.3477ZM333.432 51.442C333.307 49.6702 332.406 48.722 331.064 48.8163C331.038 48.8163 330.667 48.837 330.463 48.8427C330.479 50.7693 330.614 52.6931 330.868 54.603C330.966 54.603 331.434 54.5729 331.469 54.571C332.73 54.473 333.547 53.2138 333.432 51.442Z" fill="#F6EFE9"/>
<path d="M336.57 48.3679C336.561 48.8712 336.57 49.578 336.585 50.087H336.664C337.151 50.053 338.255 49.8626 338.642 49.4197L338.758 51.0709C338.351 50.7278 337.19 50.6034 336.704 50.6373H336.606C336.639 51.8197 336.761 52.9979 336.97 54.1622C337.829 54.1452 338.934 53.8266 339.576 53.1066L339.678 54.5523L335.531 54.8426C335.609 52.5388 335.447 50.2331 335.049 47.9626L339.196 47.6724L339.297 49.1162C338.521 48.464 337.424 48.2661 336.57 48.3679Z" fill="#F6EFE9"/>
<path d="M344.83 52.4809C344.913 53.676 343.914 54.3659 342.509 54.4676C341.46 54.5412 340.285 54.1227 340.204 52.9786C340.146 52.153 340.626 51.6704 341.352 51.6195C341.514 51.5997 341.678 51.6209 341.83 51.6812C341.981 51.7415 342.115 51.8389 342.219 51.9645C342.1 51.9643 341.982 51.9889 341.873 52.0367C341.764 52.0846 341.666 52.1546 341.585 52.2423C341.504 52.3301 341.443 52.4336 341.404 52.5464C341.366 52.6592 341.351 52.7788 341.361 52.8975C341.361 53.0382 341.39 53.1774 341.448 53.3056C341.506 53.4339 341.59 53.5482 341.696 53.6408C341.802 53.7335 341.927 53.8022 342.061 53.8424C342.196 53.8826 342.338 53.8934 342.477 53.8739C343.246 53.8192 343.652 53.4008 343.608 52.6713C343.488 50.9334 340.131 51.0408 339.982 48.9335C339.931 48.1927 340.46 47.3954 341.855 47.2974C343.444 47.1862 344.293 48.1192 344.219 48.9806L343.041 49.3915C343.163 48.8562 343.041 47.7592 341.91 47.8365C341.799 47.8396 341.69 47.8659 341.59 47.9135C341.489 47.9612 341.4 48.0292 341.328 48.1133C341.255 48.1973 341.201 48.2956 341.168 48.4017C341.136 48.5079 341.126 48.6197 341.139 48.7299C341.262 50.4848 344.683 50.4075 344.83 52.4809Z" fill="#F6EFE9"/>
<path d="M346.438 50.5432C346.57 52.298 347.412 53.544 348.56 53.4629C349.152 53.4214 349.691 53.1839 349.718 52.4903C349.716 52.3918 349.7 52.2941 349.67 52.2L350.871 52.1152C351.026 53.1934 349.81 53.9285 348.609 54.0133C346.506 54.1603 345.265 52.7881 345.122 50.6374C344.979 48.4867 346.044 47.0806 348.11 46.9354C349.514 46.8374 350.628 47.4066 350.626 48.4961L349.407 48.581C349.43 48.4873 349.438 48.3906 349.431 48.2944C349.39 47.7007 348.82 47.4387 348.149 47.4858C346.924 47.5706 346.317 48.7808 346.438 50.5432Z" fill="#F6EFE9"/>
<path d="M357.828 49.8117C357.968 51.7721 356.782 53.4628 354.786 53.6023C352.79 53.7418 351.378 52.2357 351.241 50.2754C351.103 48.3151 352.289 46.6149 354.285 46.4735C356.281 46.3322 357.691 47.842 357.828 49.8117ZM356.509 49.9041C356.385 48.1323 355.414 46.9561 354.328 47.0334C353.242 47.1106 352.443 48.4093 352.569 50.1812C352.696 51.953 353.665 53.1292 354.75 53.0519C355.836 52.9746 356.63 51.6665 356.505 49.9041H356.509Z" fill="#F6EFE9"/>
<path d="M363.59 45.957C363.521 48.2607 363.683 50.5655 364.073 52.837L362.635 52.9388C362.663 52.6772 362.671 52.4138 362.659 52.1509C362.186 51.363 360.618 49.2613 359.557 47.8061C359.567 49.5883 359.728 51.3665 360.037 53.1216L358.529 53.2272C358.597 50.9235 358.435 48.6187 358.045 46.3472L359.553 46.2417V46.2756L359.577 46.2662C360.267 47.6082 361.572 49.3744 362.548 50.6279C362.508 49.0966 362.353 47.5706 362.084 46.0626L363.59 45.957Z" fill="#F6EFE9"/>
<path d="M1.92642 76.6906C2.00936 77.8857 1.01035 78.5756 -0.393919 78.6773C-1.44382 78.7509 -2.61813 78.3324 -2.69918 77.1883C-2.75762 76.3627 -2.27696 75.8801 -1.55126 75.8292C-1.38944 75.8099 -1.22537 75.8314 -1.07395 75.8916C-0.92253 75.9519 -0.788557 76.049 -0.684198 76.1742C-0.803375 76.174 -0.921287 76.1986 -1.03044 76.2464C-1.1396 76.2943 -1.23762 76.3643 -1.31827 76.452C-1.39892 76.5398 -1.46044 76.6433 -1.49893 76.7561C-1.53742 76.8689 -1.55203 76.9885 -1.54184 77.1072C-1.54265 77.2479 -1.51318 77.3871 -1.45543 77.5153C-1.39768 77.6436 -1.31299 77.7579 -1.20713 77.8505C-1.10128 77.9432 -0.97672 78.0119 -0.841929 78.0521C-0.707138 78.0923 -0.56527 78.1031 -0.425963 78.0836C0.343086 78.0289 0.748346 77.6105 0.704992 76.881C0.584357 75.1431 -2.7727 75.2506 -2.9216 73.1432C-2.9725 72.4043 -2.44283 71.6051 -1.04799 71.5071C0.541004 71.3959 1.38922 72.3308 1.31571 73.1903L0.13763 73.6012C0.26015 73.0659 0.13763 71.9689 -0.983901 72.0462C-1.09622 72.0479 -1.20691 72.0734 -1.30875 72.1208C-1.41058 72.1682 -1.50128 72.2366 -1.57491 72.3214C-1.64854 72.4063 -1.70347 72.5057 -1.73609 72.6132C-1.76872 72.7207 -1.77832 72.8338 -1.76426 72.9453C-1.64174 74.6945 1.7794 74.6172 1.92642 76.6906Z" fill="#F6EFE9"/>
<path d="M3.52841 74.7549C3.66036 76.5078 4.50292 77.7538 5.65084 77.6727C6.2427 77.6313 6.78179 77.3956 6.80818 76.702C6.80637 76.6029 6.79051 76.5045 6.76106 76.4098L7.96176 76.3269C8.11632 77.4032 6.89866 78.1383 5.69985 78.2231C3.59627 78.3702 2.35599 76.9979 2.21273 74.8472C2.06948 72.6965 3.13446 71.2904 5.20034 71.1452C6.59519 71.0472 7.71672 71.6259 7.71672 72.706L6.49717 72.7908C6.5204 72.6972 6.52867 72.6005 6.52167 72.5043C6.4802 71.9105 5.91096 71.6485 5.23992 71.6956C4.02038 71.7805 3.41343 72.9906 3.52841 74.7549Z" fill="#F6EFE9"/>
<path d="M14.9247 74.0217C15.0642 75.982 13.8786 77.6728 11.8824 77.8142C9.88628 77.9555 8.47071 76.4457 8.33688 74.4854C8.20305 72.5251 9.38489 70.8249 11.381 70.6835C13.3772 70.5421 14.7871 72.0519 14.9247 74.0217ZM13.6052 74.1141C13.4808 72.3422 12.5101 71.166 11.4225 71.2433C10.3349 71.3206 9.53757 72.6193 9.66575 74.3911C9.79392 76.163 10.7609 77.3392 11.8466 77.2638C12.9323 77.1884 13.7259 75.8783 13.6015 74.1141H13.6052Z" fill="#F6EFE9"/>
<path d="M20.6811 70.167C20.6121 72.4707 20.7738 74.7755 21.1637 77.047L19.7255 77.1488C19.7539 76.8871 19.7621 76.6237 19.75 76.3609C19.2769 75.573 17.7086 73.4713 16.6474 72.0161C16.6575 73.7983 16.8183 75.5765 17.128 77.3316L15.6201 77.4371C15.6877 75.1334 15.5254 72.8287 15.1357 70.5572L16.6436 70.4516V70.4855L16.6681 70.4761C17.358 71.8182 18.6624 73.5844 19.6388 74.8378C19.599 73.3072 19.444 71.7818 19.1751 70.2744L20.6811 70.167Z" fill="#F6EFE9"/>
<path d="M26.845 69.741L26.9468 71.1942C26.3675 70.7547 25.6693 70.4999 24.9431 70.4629C24.9008 72.5687 25.0656 74.6736 25.435 76.7472L23.9271 76.8547C23.9986 74.7472 23.8622 72.6378 23.52 70.5571C22.8678 70.6363 21.931 71.0566 21.4692 71.5731L21.3674 70.1198L26.845 69.741Z" fill="#F6EFE9"/>
<path d="M33.7889 72.6945C33.9265 74.6549 32.7409 76.3456 30.7448 76.4851C28.7487 76.6246 27.3387 75.1186 27.1992 73.1582C27.0598 71.1979 28.2473 69.4977 30.2434 69.3563C32.2395 69.215 33.6495 70.7248 33.7889 72.6945ZM32.4695 72.7869C32.3451 71.0151 31.3744 69.8389 30.2886 69.9162C29.2029 69.9934 28.4037 71.2922 28.53 73.064C28.6563 74.8358 29.6251 76.012 30.7127 75.9366C31.8003 75.8612 32.5977 74.5493 32.4638 72.7869H32.4695Z" fill="#F6EFE9"/>
<path d="M46.6519 68.3403C46.6651 68.5119 46.699 70.6531 46.78 71.8048C46.8611 72.9565 46.9855 74.0818 47.1363 75.2203L45.6962 75.3221C45.7132 74.7924 45.7188 74.2571 45.7094 73.7312C44.9761 73.6602 44.2362 73.706 43.5172 73.8669C43.5717 74.4022 43.6656 74.9326 43.7981 75.454L42.341 75.5577C42.4447 73.882 42.0677 72.1799 42.2525 70.5174C42.3027 69.9615 42.5492 69.4416 42.948 69.0509C42.5805 69.2164 42.2348 69.4266 41.9188 69.6767L42.1073 68.6589L46.6462 68.3403H46.6519ZM45.2891 69.0076L45.0327 69.0246C43.619 69.1245 43.4362 70.3044 43.423 71.6446C43.423 72.163 43.423 72.6455 43.4682 73.1525C44.2102 73.2317 44.9602 73.1813 45.6849 73.0036C45.6447 71.6641 45.5124 70.329 45.2891 69.0076Z" fill="#F6EFE9"/>
<path d="M52.8158 67.9067L52.9195 69.36C52.3409 68.9192 51.6423 68.6642 50.9158 68.6287C50.8704 70.7369 51.0333 72.8444 51.4021 74.9206L49.8942 75.0261C49.966 72.9186 49.829 70.8091 49.4852 68.7286C48.8349 68.8096 47.8962 69.23 47.4363 69.7464L47.3345 68.2932L52.8158 67.9067Z" fill="#F6EFE9"/>
<path d="M54.989 68.263C54.9795 68.7663 54.989 69.4731 55.004 69.9821H55.0851C55.5695 69.9481 56.676 69.7577 57.0605 69.3148L57.1774 70.966C56.7721 70.6229 55.6091 70.4985 55.1228 70.5325H55.0267C55.0602 71.7147 55.1812 72.8929 55.3886 74.0573C56.25 74.0403 57.3545 73.7199 57.9954 73.0017L58.0972 74.4456L53.9504 74.7377C54.0274 72.4338 53.865 70.1281 53.4659 67.8577L57.6128 67.5675L57.7146 69.0113C56.9493 68.3591 55.8428 68.1593 54.989 68.263ZM54.5196 67.3809L54.2444 67.2791L55.8994 65.6938L56.7118 66.0086L56.6288 66.2122C55.9522 66.5534 54.5196 67.3809 54.5196 67.3809Z" fill="#F6EFE9"/>
<path d="M69.4839 70.7908C69.6233 72.7568 68.3133 73.8708 66.6414 73.9952C64.4191 74.1516 63.8291 72.8171 63.7066 71.7672L65.7027 71.2847C65.6575 72.0292 65.8497 73.5466 66.632 73.5013C67.1729 73.4636 67.3124 72.7002 67.222 71.4279C67.0335 68.7475 65.2202 68.2047 63.5463 68.2989L63.2787 64.6516L67.9062 64.3274L68.0947 66.6063C67.3005 65.9368 66.3773 65.4377 65.3823 65.1398L65.4822 67.4017C66.7149 67.4092 69.3123 68.3442 69.4839 70.7908Z" fill="#F6EFE9"/>
<path d="M76.8541 68.4008C77.0426 71.0698 75.9568 73.3336 73.6139 73.4901C71.2709 73.6465 69.878 71.5656 69.6914 68.8984C69.5047 66.2312 70.5999 63.9542 72.9315 63.7903C75.2632 63.6263 76.6656 65.7223 76.8541 68.4008ZM74.2698 68.5893C74.1002 66.1785 73.5159 64.5386 72.9862 64.5744C72.3491 64.6196 71.9853 66.3274 72.1549 68.7382C72.3246 71.149 72.924 72.8115 73.5611 72.7663C74.0908 72.7248 74.4432 70.9831 74.2698 68.5836V68.5893Z" fill="#F6EFE9"/>
<path d="M78.4842 66.1352C77.8603 66.1804 77.4022 65.6696 77.3532 64.8723C77.3042 64.0749 77.6718 63.4982 78.2957 63.4548C78.9196 63.4114 79.3852 63.926 79.4417 64.7234C79.4983 65.5207 79.1081 66.0918 78.4842 66.1352ZM78.4559 65.7337C78.5332 65.7337 78.5916 65.2511 78.5577 64.7912C78.5238 64.3313 78.4013 63.8488 78.324 63.8619C78.2467 63.8751 78.1977 64.3577 78.2297 64.8157C78.2618 65.2738 78.3862 65.7374 78.4559 65.7337ZM80.0581 68.9871L78.5313 69.0945C79.245 67.2658 79.8234 65.3871 80.2617 63.4737L81.7904 63.3662C81.0402 65.1822 80.4603 67.0639 80.0581 68.9871ZM82.9722 67.5545C83.0287 68.3537 82.6386 68.9286 82.0147 68.9739C81.3907 69.0191 80.9252 68.5007 80.8705 67.7034C80.8158 66.9061 81.2023 66.3293 81.8262 66.2841C82.4501 66.2388 82.9251 66.7572 82.9722 67.5545ZM82.0825 67.6167C82.0486 67.1398 81.9317 66.6743 81.8544 66.6874C81.7772 66.7006 81.7263 67.1625 81.7602 67.6393C81.7941 68.1162 81.9091 68.5686 81.9864 68.563C82.0637 68.5573 82.1164 68.0955 82.0825 67.6167Z" fill="#F6EFE9"/>
<path d="M92.2914 68.4913C92.4309 70.4611 91.1887 72.1198 89.334 72.2517L87.0212 72.4138C87.0941 70.11 86.9318 67.8047 86.5367 65.5339L88.6837 65.3831C89.1254 65.3463 89.5701 65.3979 89.9917 65.5349C90.4133 65.6718 90.8034 65.8914 91.1393 66.1807C91.4751 66.4701 91.75 66.8234 91.9478 67.2201C92.1456 67.6168 92.2624 68.049 92.2914 68.4913ZM90.972 68.5837C90.8457 66.8118 89.9447 65.8656 88.6026 65.9599C88.5762 65.9599 88.2049 65.9787 88.0013 65.9844C88.0172 67.9116 88.1525 69.8361 88.4066 71.7466C88.5046 71.7466 88.9721 71.7145 89.0079 71.7126C90.2764 71.6259 91.0926 70.3555 90.9682 68.5837H90.972Z" fill="#F6EFE9"/>
<path d="M94.1142 65.5112C94.1048 66.0126 94.1142 66.7213 94.1293 67.2303H94.1387H94.2179C94.7023 67.1963 95.8069 67.006 96.1933 66.5649L96.3102 68.2161C95.9049 67.873 94.7419 67.7467 94.2556 67.7807H94.1595C94.1921 68.9636 94.313 70.1425 94.5214 71.3074C95.3828 71.2904 96.4874 70.97 97.1282 70.2518L97.23 71.6957L93.0832 71.9878C93.1603 69.6839 92.998 67.3782 92.5988 65.1078L96.7456 64.8157L96.8474 66.2614C96.0746 65.6073 94.9681 65.4057 94.1142 65.5112Z" fill="#F6EFE9"/>
<path d="M106.519 67.4903C106.658 69.4601 105.416 71.1188 103.562 71.2508L101.247 71.4129C101.32 69.1091 101.159 66.8038 100.764 64.5329L102.909 64.3821C103.351 64.3453 103.796 64.3969 104.218 64.5339C104.639 64.6708 105.03 64.8903 105.366 65.1797C105.702 65.469 105.977 65.8223 106.175 66.219C106.373 66.6157 106.49 67.0479 106.519 67.4903ZM105.2 67.5827C105.075 65.8109 104.174 64.8646 102.832 64.9589C102.806 64.9589 102.434 64.9777 102.231 64.9834C102.246 66.9107 102.381 68.8352 102.636 70.7456C102.732 70.7456 103.201 70.7136 103.237 70.7117C104.502 70.6212 105.318 69.364 105.194 67.5827H105.2Z" fill="#F6EFE9"/>
<path d="M108.342 64.5102C108.332 65.0116 108.342 65.7185 108.355 66.2293H108.372H108.451C108.937 66.1954 110.042 66.005 110.428 65.5639L110.545 67.2151C110.138 66.872 108.975 66.7458 108.491 66.7797H108.393C108.423 67.9625 108.542 69.1413 108.749 70.3064C109.608 70.2894 110.713 69.969 111.356 69.2489L111.458 70.6947L107.311 70.9868C107.389 68.6829 107.226 66.3771 106.826 64.1069L110.973 63.8147L111.075 65.2604C110.3 64.6064 109.196 64.4066 108.342 64.5102Z" fill="#F6EFE9"/>
<path d="M116.599 68.6213C116.684 69.8163 115.685 70.5062 114.281 70.608C113.231 70.6815 112.057 70.2631 111.976 69.1189C111.917 68.2933 112.398 67.8108 113.122 67.7599C113.284 67.7403 113.448 67.7616 113.6 67.8218C113.752 67.8821 113.886 67.9794 113.991 68.1048C113.872 68.1049 113.754 68.1297 113.645 68.1777C113.536 68.2256 113.438 68.2956 113.357 68.3833C113.277 68.471 113.215 68.5744 113.176 68.6871C113.138 68.7997 113.123 68.9192 113.133 69.0379C113.186 69.7918 113.736 70.0501 114.249 70.0143C115.018 69.9596 115.423 69.543 115.38 68.8117C115.259 67.0738 111.902 67.1812 111.753 65.0739C111.702 64.335 112.232 63.5377 113.627 63.4378C115.216 63.3265 116.064 64.2615 115.991 65.121L114.812 65.5338C114.935 64.9966 114.812 63.8996 113.681 63.9787C113.571 63.9816 113.462 64.0076 113.361 64.0551C113.261 64.1025 113.172 64.1704 113.099 64.2543C113.027 64.3382 112.972 64.4363 112.94 64.5424C112.907 64.6485 112.897 64.7601 112.911 64.8703C113.033 66.6252 116.454 66.5479 116.599 68.6213Z" fill="#F6EFE9"/>
<path d="M118.204 66.6854C118.336 68.4384 119.178 69.6843 120.326 69.6033C120.918 69.5618 121.457 69.3262 121.481 68.6326C121.482 68.5339 121.466 68.4359 121.434 68.3423L122.637 68.2575C122.791 69.3356 121.574 70.0689 120.364 70.1537C118.262 70.3026 117.02 68.9285 116.878 66.7778C116.737 64.6271 117.796 63.2228 119.87 63.0758C121.274 62.9778 122.388 63.547 122.386 64.6365L121.167 64.7232C121.189 64.6288 121.197 64.5316 121.191 64.4348C121.15 63.843 120.58 63.5791 119.909 63.6281C118.696 63.7091 118.089 64.9211 118.204 66.6854Z" fill="#F6EFE9"/>
<path d="M129.6 65.9522C129.739 67.9125 128.554 69.6033 126.558 69.7447C124.561 69.886 123.15 68.3762 123.012 66.4159C122.874 64.4556 124.06 62.7554 126.056 62.6159C128.052 62.4764 129.462 63.9825 129.6 65.9522ZM128.28 66.0465C128.154 64.2746 127.185 63.0984 126.098 63.1738C125.01 63.2492 124.213 64.5517 124.341 66.3235C124.469 68.0954 125.436 69.2697 126.522 69.1943C127.607 69.1189 128.399 67.8089 128.277 66.0465H128.28Z" fill="#F6EFE9"/>
<path d="M135.355 62.0994C135.286 64.4031 135.449 66.7079 135.839 68.9793L134.401 69.0792C134.43 68.8177 134.437 68.5542 134.424 68.2913C133.952 67.5034 132.384 65.4018 131.323 63.9466C131.333 65.7288 131.494 67.507 131.803 69.2621L130.296 69.3676C130.365 67.064 130.203 64.7591 129.813 62.4877L131.321 62.3821V62.4179L131.347 62.4066C132.037 63.7506 133.342 65.5167 134.318 66.7702C134.278 65.2377 134.123 63.7104 133.854 62.2012L135.355 62.0994Z" fill="#F6EFE9"/>
<path d="M141.52 61.6658L141.622 63.119C141.043 62.6786 140.345 62.4242 139.618 62.3896C139.573 64.4978 139.736 66.6053 140.105 68.6815L138.597 68.787C138.668 66.6796 138.532 64.5702 138.19 62.4895C137.537 62.5705 136.601 62.9909 136.139 63.5055L136.037 62.0522L141.52 61.6658Z" fill="#F6EFE9"/>
<path d="M148.464 64.6252C148.602 66.5855 147.416 68.2763 145.42 68.4177C143.424 68.5591 142.014 67.0492 141.874 65.0889C141.735 63.1286 142.922 61.4284 144.919 61.287C146.915 61.1456 148.332 62.6555 148.464 64.6252ZM147.145 64.7176C147.02 62.9476 146.049 61.7714 144.964 61.8468C143.878 61.9222 143.079 63.2247 143.205 64.9947C143.331 66.7646 144.3 67.9427 145.386 67.8673C146.472 67.7919 147.263 66.4819 147.139 64.7176H147.145Z" fill="#F6EFE9"/>
<path d="M161.327 60.2712C161.34 60.4447 161.374 62.584 161.455 63.7376C161.536 64.8912 161.66 66.0127 161.811 67.1512L160.371 67.253C160.388 66.7252 160.394 66.188 160.384 65.6621C159.651 65.5908 158.911 65.6372 158.192 65.7997C158.247 66.3349 158.341 66.8654 158.473 67.3868L157.016 67.4886C157.12 65.8148 156.743 64.1127 156.927 62.4483C156.978 61.8924 157.224 61.3725 157.623 60.9819C157.256 61.1481 156.91 61.3582 156.594 61.6077L156.782 60.5917L161.321 60.2712H161.327ZM159.962 60.9385L159.708 60.9555C158.294 61.0554 158.111 62.2353 158.098 63.5755C158.098 64.0939 158.107 64.5783 158.143 65.0835C158.885 65.1642 159.635 65.1144 160.36 64.9364C160.32 63.5962 160.187 62.2603 159.962 60.9385Z" fill="#F6EFE9"/>
<path d="M167.491 59.8374L167.594 61.2907C167.015 60.8504 166.316 60.5955 165.589 60.5593C165.545 62.6676 165.709 64.775 166.077 66.8512L164.569 66.9568C164.642 64.8494 164.507 62.7401 164.166 60.6592C163.515 60.7403 162.577 61.1606 162.117 61.6771L162.015 60.2238L167.491 59.8374Z" fill="#F6EFE9"/>
<path d="M169.664 60.1958C169.664 60.6972 169.664 61.404 169.679 61.913H169.758C170.244 61.879 171.349 61.6887 171.735 61.2476L171.852 62.8988C171.445 62.5557 170.284 62.4294 169.798 62.4634H169.7C169.733 63.6463 169.854 64.8252 170.063 65.9901C170.923 65.9731 172.028 65.6527 172.67 64.9326L172.772 66.3784L168.625 66.6686C168.703 64.3648 168.541 62.0591 168.143 59.7887L172.29 59.4984L172.391 60.9422C171.622 60.29 170.518 60.0921 169.664 60.1958ZM169.193 59.3118L168.919 59.21L170.574 57.6248L171.387 57.9395L171.304 58.1431C170.627 58.4862 169.193 59.3118 169.193 59.3118Z" fill="#F6EFE9"/>
<path d="M184.159 62.7215C184.299 64.6875 182.987 65.8034 181.317 65.9259C179.092 66.0824 178.504 64.7478 178.382 63.6979L180.376 63.2116C180.331 63.9543 180.523 65.4735 181.303 65.4264C181.844 65.3887 181.984 64.6272 181.895 63.353C181.707 60.6726 179.893 60.1298 178.22 60.224L177.952 56.5861L182.58 56.26L182.768 58.5408C181.973 57.8717 181.05 57.3721 180.056 57.0724L180.156 59.3343C181.384 59.3419 183.988 60.2749 184.159 62.7215Z" fill="#F6EFE9"/>
<path d="M191.529 60.3331C191.718 63.0003 190.632 65.2641 188.289 65.4224C185.946 65.5807 184.553 63.4979 184.366 60.8288C184.18 58.1598 185.275 55.8847 187.607 55.7207C189.938 55.5567 191.341 57.6527 191.529 60.3331ZM188.945 60.5216C188.775 58.1108 188.191 56.4709 187.659 56.5086C187.022 56.5519 186.66 58.2597 186.83 60.6705C187 63.0813 187.599 64.7438 188.236 64.7005C188.766 64.6515 189.115 62.9135 188.945 60.514V60.5216Z" fill="#F6EFE9"/>
<path d="M193.159 58.0677C192.535 58.1111 192.077 57.6003 192.028 56.8029C191.979 56.0056 192.347 55.4288 192.971 55.3855C193.595 55.3421 194.06 55.8567 194.117 56.6559C194.173 57.4551 193.783 58.0225 193.159 58.0677ZM193.131 57.6643C193.208 57.6643 193.267 57.1818 193.233 56.7219C193.199 56.262 193.076 55.7794 192.999 55.7907C192.922 55.802 192.871 56.2865 192.903 56.7445C192.935 57.2025 193.061 57.6775 193.131 57.6643ZM194.733 60.9177L193.204 61.0252C193.92 59.197 194.499 57.3182 194.937 55.4043L196.465 55.2969C195.715 57.1126 195.135 58.9944 194.733 60.9177ZM197.647 59.4852C197.704 60.2844 197.314 60.8612 196.69 60.9045C196.066 60.9479 195.6 60.4314 195.544 59.6341C195.487 58.8368 195.877 58.26 196.501 58.2147C197.125 58.1695 197.591 58.6879 197.647 59.4852ZM196.758 59.5493C196.724 59.0705 196.607 58.6068 196.529 58.6181C196.452 58.6294 196.401 59.0931 196.435 59.5719C196.469 60.0507 196.584 60.5012 196.661 60.4955C196.739 60.4898 196.791 60.0262 196.758 59.5493Z" fill="#F6EFE9"/>
<path d="M206.967 60.4217C207.106 62.3915 205.864 64.0521 204.009 64.1822L201.696 64.3443C201.769 62.0404 201.607 59.7352 201.212 57.4643L203.357 57.3135C203.799 57.2767 204.244 57.3283 204.665 57.4653C205.087 57.6022 205.477 57.8217 205.813 58.1111C206.149 58.4004 206.424 58.7537 206.622 59.1504C206.82 59.5471 206.937 59.9793 206.967 60.4217ZM205.647 60.516C205.523 58.7441 204.622 57.796 203.28 57.8903C203.253 57.8903 202.882 57.9091 202.678 57.9148C202.694 59.8421 202.83 61.7665 203.084 63.677C203.182 63.677 203.649 63.6468 203.685 63.6431C204.952 63.5545 205.768 62.2859 205.634 60.516H205.647Z" fill="#F6EFE9"/>
<path d="M208.789 57.4419C208.789 57.9433 208.789 58.652 208.805 59.1609H208.884C209.37 59.127 210.475 58.9366 210.861 58.4937L210.978 60.1449C210.573 59.8018 209.41 59.6774 208.923 59.7113H208.827C208.86 60.8943 208.981 62.0731 209.189 63.238C210.049 63.2211 211.155 62.9006 211.796 62.1825L211.898 63.6263L207.751 63.9185C207.829 61.6146 207.667 59.3089 207.268 57.0385L211.415 56.7463L211.517 58.1921C210.748 57.538 209.643 57.3382 208.789 57.4419Z" fill="#F6EFE9"/>
<path d="M221.194 59.421C221.332 61.3907 220.091 63.0514 218.237 63.1814L215.922 63.3435C215.995 61.0398 215.834 58.7345 215.439 56.4636L217.584 56.3128C218.026 56.276 218.471 56.3276 218.893 56.4645C219.314 56.6015 219.705 56.821 220.041 57.1103C220.377 57.3996 220.652 57.753 220.85 58.1497C221.048 58.5464 221.165 58.9786 221.194 59.421ZM219.875 59.5152C219.75 57.7434 218.849 56.7953 217.507 56.8895C217.481 56.8895 217.109 56.9084 216.904 56.9141C216.921 58.8413 217.056 60.7657 217.309 62.6763C217.407 62.6763 217.875 62.6461 217.91 62.6423C219.177 62.5537 219.993 61.2852 219.869 59.5152H219.875Z" fill="#F6EFE9"/>
<path d="M223.017 56.4409C223.017 56.9423 223.017 57.651 223.03 58.16H223.109C223.596 58.126 224.7 57.9356 225.086 57.4927L225.201 59.1439C224.796 58.8008 223.633 58.6764 223.149 58.7104H223.051C223.084 59.8933 223.206 61.0722 223.415 62.237C224.274 62.2201 225.379 61.8996 226.021 61.1815L226.123 62.6253L221.976 62.9175C222.054 60.6136 221.892 58.3078 221.492 56.0375L225.639 55.7454L225.741 57.1911C224.975 56.5465 223.871 56.3372 223.017 56.4409Z" fill="#F6EFE9"/>
<path d="M231.269 60.5521C231.354 61.749 230.355 62.437 228.95 62.5388C227.901 62.6142 226.726 62.1957 226.645 61.0516C226.587 60.226 227.067 59.7416 227.791 59.6907C227.953 59.6711 228.118 59.6924 228.27 59.7526C228.421 59.8129 228.556 59.9102 228.66 60.0356C228.541 60.0357 228.423 60.0605 228.314 60.1084C228.205 60.1564 228.107 60.2264 228.027 60.3141C227.946 60.4018 227.885 60.5052 227.846 60.6179C227.807 60.7305 227.793 60.85 227.803 60.9686C227.855 61.7226 228.406 61.9809 228.918 61.945C229.686 61.8904 230.093 61.4738 230.049 60.7425C229.927 59.0064 226.572 59.112 226.423 57.0046C226.372 56.2658 226.902 55.4684 228.296 55.3704C229.885 55.2573 230.732 56.1922 230.66 57.0537L229.482 57.4646C229.605 56.9293 229.482 55.8322 228.351 55.9095C228.24 55.9127 228.131 55.9389 228.031 55.9865C227.93 56.0342 227.841 56.1022 227.769 56.1863C227.696 56.2703 227.642 56.3686 227.609 56.4748C227.577 56.5809 227.567 56.6927 227.58 56.803C227.708 58.5559 231.129 58.4805 231.269 60.5521Z" fill="#F6EFE9"/>
<path d="M232.879 58.6197C233.011 60.3727 233.853 61.6186 235.001 61.5376C235.593 61.4961 236.132 61.2605 236.157 60.5668C236.156 60.4682 236.141 60.3702 236.109 60.2766L237.31 60.1917C237.467 61.2699 236.249 62.0031 235.048 62.0898C232.947 62.2369 231.704 60.8646 231.563 58.7139C231.422 56.5632 232.485 55.1571 234.551 55.012C235.955 54.9121 237.069 55.4832 237.065 56.5708L235.847 56.6575C235.87 56.5637 235.878 56.4672 235.872 56.371C235.829 55.7772 235.261 55.5152 234.59 55.5624C233.371 55.6434 232.764 56.8535 232.879 58.6197Z" fill="#F6EFE9"/>
<path d="M244.275 57.8829C244.412 59.8451 243.227 61.5359 241.231 61.6753C239.235 61.8148 237.825 60.3088 237.687 58.3466C237.549 56.3844 238.733 54.686 240.729 54.5466C242.725 54.4071 244.137 55.9131 244.275 57.8829ZM242.955 57.9771C242.831 56.2053 241.86 55.0291 240.775 55.1064C239.689 55.1837 238.89 56.4824 239.018 58.2542C239.146 60.026 240.113 61.2022 241.199 61.1249C242.284 61.0477 243.074 59.7395 242.955 57.9771Z" fill="#F6EFE9"/>
<path d="M250.029 54.03C249.961 56.3338 250.123 58.6386 250.514 60.91L249.074 61.0118C249.103 60.7502 249.111 60.4868 249.098 60.2239C248.627 59.436 247.059 57.3343 245.998 55.8791C246.008 57.6613 246.169 59.4395 246.478 61.1946L244.97 61.3002C245.039 58.9965 244.878 56.6917 244.488 54.4202L245.996 54.3147V54.3486H246.022C246.712 55.6906 248.016 57.4568 248.993 58.7103C248.953 57.1791 248.798 55.653 248.529 54.145L250.029 54.03Z" fill="#F6EFE9"/>
<path d="M256.193 53.5967L256.297 55.05C255.717 54.6096 255.018 54.3547 254.291 54.3186C254.247 56.4268 254.411 58.5342 254.779 60.6105L253.271 60.716C253.343 58.6085 253.206 56.499 252.862 54.4185C252.212 54.4996 251.273 54.9199 250.813 55.4364L250.712 53.9831L256.193 53.5967Z" fill="#F6EFE9"/>
<path d="M263.139 56.556C263.277 58.5163 262.091 60.2071 260.095 60.3484C258.099 60.4898 256.687 58.98 256.549 57.0197C256.412 55.0593 257.597 53.3591 259.594 53.2197C261.59 53.0802 263 54.5862 263.139 56.556ZM261.82 56.6502C261.695 54.8784 260.724 53.7022 259.637 53.7776C258.549 53.853 257.752 55.1555 257.88 56.9273C258.008 58.6991 258.975 59.8753 260.061 59.798C261.147 59.7208 261.938 58.4126 261.814 56.6502H261.82Z" fill="#F6EFE9"/>
<path d="M431.872 17.6427L-32.9686 40.2959L-31.8814 62.6039L432.959 39.9508L431.872 17.6427Z" fill="#CA2128"/>
<path d="M8.43112 51.7153C8.4971 53.0743 8.61962 54.439 8.76852 55.8037L7.0457 55.8885C7.07775 55.2571 7.10037 54.6162 7.10037 53.9866C6.2262 53.8837 5.34124 53.9199 4.47843 54.0941C4.52984 54.7356 4.62812 55.3725 4.77248 55.9997L3.02893 56.0846C3.1948 54.0847 2.78766 52.0414 3.05155 50.0528C3.12638 49.39 3.43436 48.7754 3.9205 48.3187C3.57555 48.4167 2.96107 48.8389 2.67456 49.0387L2.9328 47.8305L8.36704 47.5647C8.37646 47.7758 8.36327 50.3355 8.43112 51.7153ZM6.71961 48.3319L6.41237 48.3469C4.71593 48.428 4.47089 49.8341 4.42189 51.4363C4.39927 52.0565 4.40681 52.6333 4.43697 53.2402C5.3218 53.3551 6.2199 53.315 7.09094 53.1215C7.07772 51.5183 6.95365 49.9179 6.71961 48.3319Z" fill="#F6EFE9"/>
<path d="M15.7448 47.2104L15.8296 48.9484C15.1486 48.4075 14.3201 48.0849 13.4527 48.0229C13.3449 50.5438 13.4857 53.0692 13.873 55.5626L12.0654 55.6511C12.2055 53.1334 12.0969 50.6079 11.7412 48.1114C10.9608 48.1906 9.82798 48.6675 9.26439 49.2744L9.17957 47.5347L15.7448 47.2104Z" fill="#F6EFE9"/>
<path d="M18.3309 47.6873C18.3083 48.2867 18.3064 49.133 18.3045 49.7418H18.3158H18.4101C18.9925 49.7136 20.3176 49.5138 20.7907 48.9973L20.8868 50.9727C20.41 50.5523 19.0245 50.3714 18.4364 50.4072H18.3215C18.3299 51.8212 18.4445 53.2326 18.6645 54.6294C19.6918 54.6294 21.0207 54.277 21.8067 53.4344L21.8915 55.1629L16.9379 55.4155C17.0895 52.6639 16.955 49.904 16.5364 47.1802L21.4938 46.9389L21.5786 48.6674C20.6701 47.8569 19.3544 47.5911 18.3309 47.6873ZM17.7918 46.6185L17.4676 46.4903L19.4863 44.6375L20.4495 45.0352L20.344 45.2783C19.5259 45.6742 17.7918 46.6242 17.7918 46.6242V46.6185Z" fill="#F6EFE9"/>
<path d="M35.5913 51.0801C35.7063 53.4325 34.1116 54.7331 32.1117 54.8292C29.4502 54.9593 28.7792 53.3495 28.6604 52.0923L31.058 51.5683C30.9864 52.4561 31.1768 54.2864 32.1117 54.2411C32.7582 54.2091 32.9448 53.2987 32.8657 51.7738C32.7092 48.5694 30.5548 47.872 28.553 47.9417L28.3268 43.5856L33.8647 43.3142L34.0268 46.0455C33.0947 45.2245 32.0041 44.6035 30.8224 44.2209L30.8827 46.9295C32.3624 46.9729 35.448 48.1566 35.5913 51.0801Z" fill="#F6EFE9"/>
<path d="M44.4599 48.4185C44.6163 51.6116 43.261 54.2901 40.4563 54.4258C37.6515 54.5615 36.0418 52.0225 35.8853 48.837C35.7289 45.6515 37.0992 42.9504 39.8889 42.8052C42.6786 42.6601 44.3034 45.2104 44.4599 48.4185ZM41.3667 48.5693C41.2253 45.6835 40.5675 43.7081 39.9341 43.7383C39.1802 43.776 38.6939 45.8117 38.8352 48.6918C38.9766 51.572 39.6495 53.5813 40.4129 53.5436C41.0463 53.5135 41.5081 51.4401 41.3667 48.5693Z" fill="#F6EFE9"/>
<path d="M46.4669 45.7515C45.713 45.7892 45.1852 45.1672 45.138 44.2115C45.0909 43.2559 45.5546 42.5792 46.3086 42.5415C47.0626 42.5038 47.5998 43.1352 47.6469 44.089C47.694 45.0428 47.2134 45.7157 46.4669 45.7515ZM46.4424 45.2709C46.5348 45.2709 46.6158 44.696 46.5894 44.1399C46.5631 43.5838 46.4255 43.0184 46.3331 43.0221C46.2407 43.0259 46.1691 43.6121 46.1955 44.1531C46.2219 44.6941 46.3576 45.2746 46.4424 45.2709ZM48.2746 49.1953L46.4462 49.2839C47.3465 47.1163 48.0862 44.8855 48.6591 42.6093L50.4875 42.5208C49.5452 44.6725 48.8044 46.9068 48.2746 49.1953ZM51.7937 47.5573C51.8408 48.5129 51.3602 49.1915 50.6138 49.2292C49.8673 49.2669 49.3226 48.6355 49.2773 47.6817C49.2321 46.7279 49.709 46.0474 50.4573 46.0098C51.2056 45.9721 51.7466 46.6073 51.7937 47.5629V47.5573ZM50.7287 47.6101C50.7005 47.0446 50.5723 46.4791 50.4799 46.4923C50.3876 46.5055 50.3141 47.0578 50.3423 47.6232C50.3706 48.1887 50.4969 48.7372 50.5893 48.7316C50.6816 48.7259 50.7551 48.1868 50.7287 47.6157V47.6101Z" fill="#F6EFE9"/>
<path d="M62.9076 48.9219C63.0225 51.278 61.4976 53.2308 59.2772 53.3401L56.5082 53.474C56.6544 50.7217 56.5192 47.9617 56.1049 45.2368L58.674 45.1106C59.2033 45.078 59.7338 45.1512 60.2345 45.326C60.7352 45.5007 61.1961 45.7734 61.5902 46.1283C61.9843 46.4831 62.3038 46.9129 62.53 47.3925C62.7562 47.8722 62.8845 48.3921 62.9076 48.9219ZM61.3223 48.9992C61.2187 46.8786 60.1669 45.7232 58.559 45.7948C58.527 45.7948 58.084 45.808 57.839 45.8099C57.8086 48.1136 57.9213 50.417 58.1764 52.7068C58.2933 52.7068 58.8531 52.6842 58.8946 52.6823C60.4176 52.6126 61.426 51.1197 61.3223 49.0067V48.9992Z" fill="#F6EFE9"/>
<path d="M65.1618 45.4067C65.1392 46.0061 65.1373 46.8524 65.1354 47.4612H65.1448H65.241C65.8215 47.433 67.1485 47.235 67.6197 46.7167L67.7178 48.6921C67.2409 48.2717 65.8555 48.0927 65.2674 48.1266H65.1505C65.1605 49.5413 65.2758 50.9532 65.4954 52.3507C66.5227 52.3507 67.8516 51.9982 68.6376 51.1557L68.7205 52.8842L63.7632 53.1254C63.9149 50.3745 63.7803 47.6152 63.3617 44.8921L68.3191 44.6489L68.4114 46.368C67.501 45.5707 66.1853 45.3049 65.1618 45.4067Z" fill="#F6EFE9"/>
<path d="M79.9359 48.0905C80.0509 50.4466 78.526 52.3994 76.3055 52.5087L73.5347 52.6426C73.6821 49.8916 73.5476 47.1328 73.1332 44.4092L75.7023 44.2829C76.2313 44.2504 76.7615 44.3235 77.262 44.498C77.7624 44.6725 78.2231 44.9449 78.6172 45.2993C79.0113 45.6537 79.3308 46.0831 79.5572 46.5623C79.7836 47.0415 79.9124 47.561 79.9359 48.0905ZM78.3507 48.1678C78.247 46.0472 77.1952 44.8918 75.5874 44.9634C75.5553 44.9634 75.1105 44.9747 74.8673 44.9766C74.8341 47.2827 74.9442 49.5886 75.1972 51.8811C75.314 51.8811 75.8739 51.8584 75.9153 51.8566C77.4459 51.7812 78.4543 50.2883 78.3507 48.1678Z" fill="#F6EFE9"/>
<path d="M82.19 44.5754C82.1655 45.1748 82.1655 46.0211 82.1636 46.6299H82.1711H82.2673C82.8478 46.6017 84.1748 46.4037 84.646 45.8854L84.7422 47.8608C84.2672 47.4405 82.8799 47.2614 82.2918 47.2953H82.1749C82.1849 48.71 82.3002 50.1219 82.5198 51.5194C83.5471 51.5194 84.876 51.1669 85.6601 50.3244L85.7449 52.0529L80.7876 52.2941C80.9393 49.5432 80.8048 46.7839 80.3861 44.0608L85.3435 43.8176L85.4283 45.548C84.5292 44.7412 83.2135 44.483 82.19 44.5754Z" fill="#F6EFE9"/>
<path d="M91.9561 49.7022C92.0258 51.1329 90.8138 51.934 89.1287 52.0169C87.8714 52.0772 86.4785 51.5475 86.4125 50.1791C86.3635 49.1895 86.9516 48.624 87.8168 48.5826C88.0111 48.5631 88.2071 48.5927 88.387 48.6688C88.5668 48.7449 88.7246 48.865 88.8459 49.018C88.222 49.0481 87.7659 49.4836 87.796 50.1112C87.8413 51.016 88.4916 51.3346 89.106 51.3063C90.0259 51.261 90.5197 50.771 90.4783 49.8964C90.3765 47.8229 86.3616 47.8587 86.2391 45.3367C86.1957 44.4527 86.8498 43.5121 88.5198 43.4311C90.4217 43.3387 91.4113 44.4753 91.302 45.5045L89.8826 45.9663C90.0429 45.3292 89.9147 44.0135 88.5839 44.0814C88.4514 44.0826 88.3205 44.1113 88.1997 44.1658C88.0789 44.2203 87.9707 44.2994 87.882 44.398C87.7934 44.4965 87.7263 44.6124 87.6848 44.7384C87.6434 44.8643 87.6286 44.9974 87.6415 45.1294C87.7451 47.2254 91.8335 47.2216 91.9561 49.7022Z" fill="#F6EFE9"/>
<path d="M93.92 47.429C94.0331 49.5269 95.0076 51.0386 96.3817 50.9708C97.0904 50.9368 97.7351 50.6673 97.7897 49.8398C97.7912 49.7217 97.7747 49.6042 97.7407 49.4911L99.1789 49.4213C99.3373 50.7125 97.8595 51.5589 96.4138 51.6305C93.8993 51.753 92.4554 50.0792 92.3348 47.5063C92.2141 44.9333 93.5279 43.2803 96.001 43.1596C97.6823 43.0767 98.998 43.7854 98.9678 45.0879L97.5089 45.1595C97.5381 45.0476 97.5502 44.932 97.5447 44.8165C97.5089 44.1059 96.836 43.7779 96.0368 43.8175C94.5854 43.8872 93.8276 45.3179 93.92 47.429Z" fill="#F6EFE9"/>
<path d="M107.561 46.8448C107.676 49.1915 106.215 51.1801 103.825 51.2988C101.435 51.4176 99.7895 49.5779 99.6783 47.2312C99.5671 44.8844 101.024 42.8827 103.412 42.7658C105.801 42.6489 107.446 44.483 107.561 46.8448ZM105.976 46.922C105.872 44.8015 104.741 43.3727 103.442 43.4349C102.144 43.4971 101.156 45.0315 101.26 47.1539C101.363 49.2763 102.493 50.7032 103.793 50.641C105.094 50.5788 106.078 49.0332 105.976 46.922Z" fill="#F6EFE9"/>
<path d="M114.537 42.3887C114.396 45.1396 114.531 47.8978 114.939 50.622L113.216 50.7068C113.258 50.3945 113.274 50.0793 113.265 49.7644C112.72 48.8219 110.901 46.2584 109.67 44.4866C109.637 46.6169 109.783 48.7463 110.108 50.852L108.311 50.9406C108.452 48.189 108.317 45.4302 107.91 42.7053L109.706 42.6186V42.6601L109.738 42.6469C110.526 44.2698 112.042 46.4168 113.175 47.9379C113.167 46.1075 113.021 44.2802 112.739 42.4716L114.537 42.3887Z" fill="#F6EFE9"/>
<path d="M121.915 42.0325L122 43.7704C121.319 43.2292 120.49 42.9065 119.623 42.8449C119.516 45.3659 119.657 47.8913 120.045 50.3846L118.238 50.4732C118.376 47.9553 118.267 45.4299 117.911 42.9335C117.131 43.0107 116 43.4895 115.435 44.0946L115.35 42.3567L121.915 42.0325Z" fill="#F6EFE9"/>
<path d="M130.139 45.7438C130.254 48.0905 128.793 50.0791 126.403 50.1978C124.013 50.3166 122.367 48.475 122.256 46.1283C122.145 43.7816 123.602 41.7798 125.99 41.6648C128.378 41.5498 130.024 43.3857 130.139 45.7438ZM128.554 45.821C128.45 43.7005 127.319 42.2698 126.02 42.3339C124.722 42.398 123.734 43.9305 123.838 46.051C123.941 48.1716 125.07 49.6022 126.371 49.5381C127.672 49.474 128.656 47.9303 128.554 45.821Z" fill="#F6EFE9"/>
<path d="M145.693 45.0144C145.761 46.3735 145.882 47.74 146.031 49.1047L144.308 49.1896C144.342 48.5581 144.363 47.9172 144.365 47.2877C143.49 47.1847 142.604 47.2209 141.741 47.3951C141.792 48.0368 141.891 48.6738 142.037 49.3008L140.291 49.3856C140.459 47.3857 140.052 45.3424 140.316 43.3538C140.391 42.691 140.699 42.0764 141.185 41.6197C140.84 41.7177 140.225 42.1399 139.937 42.3397L140.197 41.1296L145.629 40.8657C145.635 41.0768 145.622 43.6366 145.693 45.0144ZM143.982 41.6329L143.675 41.648C141.978 41.729 141.735 43.1352 141.686 44.7355C141.663 45.3575 141.669 45.9343 141.699 46.5412C142.584 46.6563 143.482 46.6161 144.353 46.4225C144.339 44.8191 144.213 43.2187 143.976 41.6329H143.982Z" fill="#F6EFE9"/>
<path d="M153.001 40.5115L153.086 42.2494C152.406 41.7085 151.578 41.3859 150.711 41.3239C150.603 43.8448 150.744 46.3702 151.131 48.8636L149.324 48.9522C149.463 46.4343 149.354 43.9089 148.997 41.4125C148.217 41.4916 147.086 41.9685 146.523 42.5736L146.438 40.8357L153.001 40.5115Z" fill="#F6EFE9"/>
<path d="M155.589 40.9939C155.565 41.5933 155.565 42.4396 155.563 43.0485H155.659C156.239 43.0202 157.564 42.8204 158.038 42.2945L158.134 44.2718C157.659 43.8514 156.271 43.6705 155.683 43.7063H155.566C155.575 45.121 155.691 46.533 155.911 47.9304C156.939 47.9304 158.267 47.5779 159.052 46.7354L159.136 48.4639L154.179 48.707C154.338 45.9562 154.21 43.1963 153.798 40.4718L158.756 40.2305L158.841 41.959C157.928 41.1579 156.613 40.9015 155.589 40.9939ZM155.05 39.9252L154.726 39.797L156.743 37.9441L157.706 38.3418L157.6 38.5831C156.782 38.9751 155.05 39.9252 155.05 39.9252Z" fill="#F6EFE9"/>
<path d="M172.847 44.3848C172.962 46.7372 171.368 48.0378 169.368 48.1339C166.706 48.264 166.037 46.6542 165.918 45.397L168.312 44.873C168.239 45.7608 168.429 47.591 169.364 47.5439C170.012 47.5138 170.199 46.6015 170.118 45.0784C169.961 41.8741 167.807 41.1748 165.807 41.2445L165.579 36.8903L171.119 36.6189L171.281 39.3502C170.349 38.5289 169.258 37.9079 168.077 37.5255L168.137 40.2342C169.618 40.2738 172.706 41.4669 172.847 44.3848Z" fill="#F6EFE9"/>
<path d="M181.718 41.7197C181.873 44.9128 180.519 47.5912 177.713 47.7269C174.906 47.8627 173.298 45.3312 173.144 42.1381C172.989 38.9451 174.356 36.2515 177.147 36.1158C179.939 35.9801 181.562 38.5115 181.718 41.7197ZM178.625 41.8705C178.484 38.9847 177.824 37.0093 177.192 37.0394C176.429 37.0771 175.952 39.1128 176.092 41.993C176.231 44.8732 176.908 46.8825 177.669 46.8448C178.303 46.8146 178.764 44.7412 178.625 41.8705Z" fill="#F6EFE9"/>
<path d="M183.724 39.0525C182.97 39.0902 182.442 38.4682 182.404 37.5125C182.367 36.5569 182.821 35.8802 183.577 35.8425C184.333 35.8048 184.868 36.4343 184.913 37.39C184.958 38.3457 184.47 39.0167 183.724 39.0525ZM183.701 38.5718C183.793 38.5718 183.875 38.0064 183.846 37.4409C183.818 36.8754 183.682 36.3099 183.59 36.3231C183.498 36.3363 183.426 36.9131 183.452 37.4541C183.479 37.9951 183.616 38.5756 183.701 38.5718ZM185.531 42.5019L183.703 42.5905C184.604 40.423 185.344 38.1921 185.918 35.916L187.746 35.8274C186.802 37.9786 186.061 40.2131 185.531 42.5019ZM189.047 40.8639C189.094 41.8196 188.615 42.4981 187.867 42.534C187.118 42.5698 186.578 41.9421 186.53 40.9864C186.483 40.0308 186.964 39.3522 187.71 39.3164C188.457 39.2806 189.005 39.9083 189.047 40.8639ZM187.982 40.9167C187.953 40.3512 187.827 39.7857 187.735 39.7989C187.642 39.8121 187.567 40.3644 187.595 40.9299C187.624 41.4954 187.752 42.0439 187.844 42.0382C187.937 42.0326 188.014 41.4878 187.986 40.9167H187.982Z" fill="#F6EFE9"/>
<path d="M200.168 42.221C200.283 44.5771 198.756 46.5299 196.535 46.6374L193.766 46.7731C193.913 44.0221 193.778 41.2634 193.365 38.5397L195.934 38.4134C196.463 38.3811 196.993 38.4544 197.494 38.629C197.994 38.8036 198.454 39.076 198.848 39.4304C199.242 39.7848 199.562 40.214 199.789 40.6931C200.015 41.1722 200.144 41.6916 200.168 42.221ZM198.581 42.2983C198.477 40.1777 197.425 39.0223 195.819 39.0939C195.787 39.0939 195.342 39.1071 195.099 39.109C195.069 41.4127 195.181 43.716 195.435 46.0059C195.552 46.0059 196.111 45.9833 196.155 45.9814C197.674 45.9135 198.682 44.4207 198.579 42.3001L198.581 42.2983Z" fill="#F6EFE9"/>
<path d="M202.418 38.7074C202.396 39.3069 202.394 40.1532 202.392 40.762H202.403H202.497C203.08 40.7337 204.405 40.5358 204.878 40.0175L204.974 41.9929C204.497 41.5725 203.112 41.3935 202.524 41.4274H202.409C202.418 42.842 202.533 44.2539 202.752 45.6515C203.781 45.6515 205.108 45.299 205.894 44.4546L205.979 46.1849L201.02 46.4262C201.173 43.6753 201.039 40.9158 200.618 38.1929L205.577 37.9497L205.66 39.6801C204.759 38.8714 203.442 38.6057 202.418 38.7074Z" fill="#F6EFE9"/>
<path d="M217.194 41.3915C217.309 43.7477 215.783 45.7004 213.562 45.8079L210.793 45.9436C210.94 43.1926 210.805 40.4339 210.392 37.7102L212.959 37.584C213.488 37.5514 214.018 37.6245 214.519 37.799C215.019 37.9735 215.48 38.2458 215.874 38.6002C216.269 38.9546 216.588 39.3839 216.815 39.8632C217.042 40.3424 217.171 40.8619 217.194 41.3915ZM215.607 41.4688C215.504 39.3482 214.452 38.1928 212.846 38.2644C212.814 38.2644 212.369 38.2776 212.126 38.2795C212.095 40.5832 212.207 42.8866 212.461 45.1764C212.578 45.1764 213.138 45.1538 213.181 45.1519C214.702 45.0822 215.711 43.5893 215.607 41.4669V41.4688Z" fill="#F6EFE9"/>
<path d="M219.449 37.8857C219.424 38.4851 219.422 39.3314 219.42 39.9402H219.432H219.526C220.108 39.912 221.433 39.714 221.907 39.1957L222.003 41.1711C221.526 40.7508 220.14 40.5717 219.552 40.6056H219.437C219.447 42.0202 219.561 43.4322 219.78 44.8297C220.81 44.8297 222.136 44.4773 222.923 43.6328L223.007 45.3632L218.05 45.6044C218.201 42.8534 218.066 40.0942 217.647 37.3711L222.606 37.1279L222.689 38.8583C221.788 38.0402 220.47 37.7745 219.449 37.8857Z" fill="#F6EFE9"/>
<path d="M229.213 43.0013C229.282 44.4338 228.082 45.2349 226.385 45.3179C225.128 45.3782 223.735 44.8485 223.667 43.4782C223.62 42.4905 224.206 41.925 225.073 41.8835C225.267 41.864 225.463 41.8937 225.643 41.9698C225.822 42.0459 225.98 42.166 226.101 42.319C225.477 42.3491 225.022 42.7827 225.053 43.4103C225.096 44.317 225.748 44.6355 226.361 44.6054C227.281 44.562 227.776 44.0719 227.733 43.1973C227.631 41.1239 223.618 41.1597 223.496 38.6377C223.452 37.7537 224.104 36.8131 225.775 36.732C227.678 36.6378 228.666 37.7763 228.557 38.8055L227.139 39.2673C227.298 38.6302 227.171 37.3145 225.839 37.3823C225.706 37.383 225.575 37.4113 225.454 37.4655C225.333 37.5197 225.225 37.5986 225.136 37.6971C225.047 37.7956 224.98 37.9115 224.939 38.0374C224.898 38.1634 224.883 38.2966 224.896 38.4285C225.002 40.5245 229.092 40.5245 229.213 43.0013Z" fill="#F6EFE9"/>
<path d="M231.179 40.7283C231.292 42.8281 232.266 44.3398 233.64 44.2719C234.349 44.238 234.992 43.9684 235.046 43.141C235.05 43.0228 235.033 42.9049 234.997 42.7923L236.436 42.7225C236.594 44.0137 235.116 44.86 233.672 44.9316C231.156 45.0542 229.714 43.3804 229.593 40.8074C229.473 38.2345 230.785 36.5795 233.26 36.4589C234.939 36.3779 236.257 37.0866 236.225 38.3891L234.766 38.4588C234.796 38.3478 234.808 38.2325 234.801 38.1176C234.767 37.407 234.095 37.079 233.293 37.1186C231.835 37.1884 231.081 38.619 231.179 40.7283Z" fill="#F6EFE9"/>
<path d="M244.818 40.1475C244.933 42.4942 243.472 44.4828 241.084 44.6016C238.696 44.7203 237.046 42.8787 236.937 40.532C236.828 38.1853 238.283 36.1854 240.673 36.0685C243.063 35.9516 244.703 37.7894 244.818 40.1475ZM243.233 40.2248C243.129 38.1042 242 36.6736 240.699 36.7377C239.399 36.8017 238.415 38.3342 238.518 40.4547C238.622 42.5753 239.751 44.0059 241.052 43.9437C242.352 43.8815 243.332 42.334 243.233 40.2229V40.2248Z" fill="#F6EFE9"/>
<path d="M251.794 35.6897C251.652 38.4387 251.785 41.1949 252.191 43.9174L250.469 44.0022C250.509 43.6898 250.526 43.3747 250.518 43.0598C249.973 42.1173 248.152 39.5538 246.921 37.782C246.888 39.9123 247.035 42.0417 247.36 44.1474L245.562 44.2359C245.704 41.4844 245.57 38.7254 245.161 36.0007L246.957 35.914V35.9555L246.987 35.9423C247.777 37.5652 249.291 39.7121 250.425 41.2333C250.417 39.4028 250.271 37.5755 249.988 35.767L251.794 35.6897Z" fill="#F6EFE9"/>
<path d="M259.166 35.3296L259.251 37.0675C258.57 36.5266 257.741 36.204 256.874 36.142C256.766 38.6629 256.907 41.1884 257.294 43.6817L255.486 43.7703C255.627 41.2524 255.517 38.7269 255.16 36.2306C254.382 36.3098 253.249 36.7961 252.685 37.3936L252.601 35.6557L259.166 35.3296Z" fill="#F6EFE9"/>
<path d="M267.395 39.0451C267.51 41.3919 266.05 43.3805 263.661 43.4992C261.273 43.618 259.624 41.7764 259.515 39.4296C259.405 37.0829 260.859 35.0811 263.249 34.9643C265.639 34.8474 267.28 36.6871 267.395 39.0451ZM265.81 39.1224C265.707 37.0019 264.577 35.5712 263.277 35.6353C261.976 35.6994 260.992 37.2318 261.096 39.3524C261.2 41.4729 262.329 42.9036 263.629 42.8395C264.93 42.7754 265.914 41.2316 265.81 39.1224Z" fill="#F6EFE9"/>
<path d="M282.946 38.3155C283.012 39.6746 283.134 41.0411 283.283 42.4058L281.56 42.4906C281.592 41.8592 281.615 41.2183 281.615 40.5888C280.741 40.4858 279.856 40.522 278.993 40.6962C279.043 41.3378 279.142 41.9748 279.287 42.6019L277.543 42.6867C277.709 40.6868 277.302 38.6435 277.566 36.6549C277.642 35.9925 277.95 35.3783 278.435 34.9208C278.09 35.0207 277.476 35.4429 277.189 35.6427L277.447 34.4326L282.882 34.1687C282.891 34.3779 282.878 36.9433 282.946 38.3155ZM281.232 34.934L280.927 34.9472C279.23 35.0301 278.985 36.4363 278.936 38.0366C278.914 38.6567 278.921 39.2354 278.951 39.8423C279.836 39.9573 280.734 39.9171 281.605 39.7236C281.593 38.1203 281.468 36.5199 281.232 34.934Z" fill="#F6EFE9"/>
<path d="M290.267 33.8123L290.352 35.5502C289.671 35.0093 288.842 34.6867 287.975 34.6247C287.867 37.1456 288.008 39.671 288.395 42.1644L286.588 42.253C286.728 39.7352 286.619 37.2097 286.264 34.7133C285.483 34.7905 284.35 35.2693 283.787 35.8744L283.702 34.1365L290.267 33.8123Z" fill="#F6EFE9"/>
<path d="M292.846 34.293C292.823 34.8943 292.821 35.7388 292.819 36.3476H292.83H292.925C293.507 36.3193 294.832 36.1195 295.305 35.5936L295.401 37.5709C294.925 37.1506 293.539 36.9696 292.951 37.0054H292.834C292.844 38.4201 292.959 39.832 293.179 41.2296C294.208 41.2296 295.535 40.8771 296.321 40.0345L296.406 41.763L291.447 42.0062C291.599 39.2546 291.464 36.4947 291.045 33.7709L296.003 33.5296L296.088 35.2581C295.185 34.4589 293.869 34.1931 292.846 34.293ZM292.306 33.2262L291.982 33.098L294.001 31.2451L294.964 31.6428L294.859 31.8841C294.037 32.2762 292.306 33.2262 292.306 33.2262Z" fill="#F6EFE9"/>
<path d="M310.106 37.6858C310.221 40.0382 308.626 41.3369 306.626 41.4349C303.965 41.565 303.296 39.9553 303.175 38.698L305.573 38.174C305.501 39.0618 305.692 40.8921 306.626 40.8449C307.273 40.8148 307.46 39.9025 307.38 38.3795C307.224 35.1751 305.07 34.4758 303.068 34.5455L302.842 30.1913L308.379 29.9199L308.542 32.6493C307.609 31.8294 306.519 31.2091 305.337 30.8266L305.398 33.5333C306.877 33.5748 309.963 34.7585 310.106 37.6858Z" fill="#F6EFE9"/>
<path d="M318.974 35.0207C319.131 38.2137 317.775 40.8903 314.971 41.0279C312.166 41.1655 310.556 38.6397 310.4 35.4354C310.243 32.231 311.612 29.5487 314.403 29.4036C317.195 29.2585 318.818 31.8125 318.974 35.0207ZM315.881 35.1715C315.74 32.2857 315.082 30.3102 314.449 30.3404C313.695 30.3781 313.208 32.4138 313.35 35.294C313.491 38.1742 314.164 40.1835 314.927 40.1458C315.561 40.1156 316.021 38.0422 315.881 35.1715Z" fill="#F6EFE9"/>
<path d="M320.991 32.3535C320.237 32.3893 319.709 31.7691 319.672 30.8135C319.634 29.8578 320.088 29.1811 320.842 29.1434C321.596 29.1057 322.133 29.7353 322.18 30.691C322.228 31.6466 321.728 32.3176 320.991 32.3535ZM320.967 31.8709C321.059 31.8709 321.14 31.3054 321.114 30.74C321.087 30.1745 320.95 29.609 320.857 29.6222C320.765 29.6354 320.691 30.2103 320.72 30.7532C320.748 31.296 320.874 31.8766 320.957 31.8709H320.967ZM322.799 35.801L320.97 35.8915C321.868 33.723 322.604 31.4916 323.174 29.2151L325.002 29.1265C324.059 31.2778 323.318 33.5123 322.789 35.801H322.799ZM326.318 34.1649C326.363 35.1205 325.884 35.7991 325.138 35.8349C324.391 35.8707 323.847 35.243 323.801 34.2874C323.756 33.3317 324.233 32.6532 324.981 32.6173C325.73 32.5815 326.269 33.2092 326.308 34.1649H326.318ZM325.253 34.2176C325.225 33.6522 325.096 33.0867 325.004 33.0999C324.912 33.1131 324.838 33.6654 324.866 34.2308C324.895 34.7963 325.021 35.3448 325.113 35.3392C325.206 35.3335 325.27 34.7888 325.243 34.2176H325.253Z" fill="#F6EFE9"/>
<path d="M337.422 35.5238C337.537 37.88 336.012 39.8328 333.792 39.9402L331.023 40.0759C331.169 37.3249 331.034 34.5662 330.619 31.8426L333.189 31.7163C333.718 31.6837 334.248 31.7568 334.748 31.9313C335.249 32.1058 335.709 32.3782 336.103 32.7327C336.497 33.0871 336.817 33.5164 337.043 33.9956C337.27 34.4748 337.399 34.9943 337.422 35.5238ZM335.837 35.6011C335.733 33.4806 334.681 32.3251 333.074 32.3967C333.042 32.3967 332.599 32.4099 332.354 32.4118C332.323 34.7149 332.436 37.0177 332.691 39.3069C332.808 39.3069 333.368 39.2843 333.409 39.2824C334.94 39.2145 335.941 37.7217 335.837 35.6011Z" fill="#F6EFE9"/>
<path d="M339.676 32.0085C339.652 32.6079 339.652 33.4542 339.65 34.063H339.746C340.327 34.0348 341.654 33.8369 342.125 33.3185L342.223 35.2939C341.746 34.8736 340.359 34.6945 339.773 34.7284H339.656C339.666 36.1431 339.781 37.555 340.001 38.9525C341.028 38.9525 342.357 38.5982 343.141 37.7556L343.226 39.486L338.268 39.7272C338.42 36.9757 338.286 34.2158 337.867 31.492L342.824 31.2507L342.909 32.9811C342.016 32.1725 340.7 31.9067 339.676 32.0085Z" fill="#F6EFE9"/>
<path d="M354.451 34.6925C354.565 37.0487 353.041 39.0015 350.82 39.1089L348.049 39.2446C348.196 36.4937 348.061 33.7349 347.648 31.0113L350.217 30.885C350.746 30.8524 351.276 30.9255 351.777 31.1C352.277 31.2745 352.738 31.5469 353.132 31.9014C353.526 32.2558 353.845 32.6851 354.072 33.1643C354.298 33.6435 354.427 34.163 354.451 34.6925ZM352.865 34.7698C352.762 32.6493 351.71 31.4938 350.102 31.5654C350.07 31.5654 349.627 31.5786 349.382 31.5805C349.352 33.8843 349.464 36.1877 349.719 38.4775C349.836 38.4775 350.396 38.4548 350.438 38.453C351.961 38.3832 352.969 36.8904 352.865 34.7698Z" fill="#F6EFE9"/>
<path d="M356.705 31.1774C356.68 31.7768 356.68 32.6232 356.678 33.232H356.688H356.784C357.365 33.2037 358.69 33.0058 359.163 32.4874L359.261 34.4628C358.784 34.0425 357.397 33.8634 356.81 33.8974H356.694C356.704 35.312 356.819 36.7239 357.039 38.1215C358.066 38.1215 359.395 37.7671 360.179 36.9246L360.264 38.6549L355.306 38.8962C355.458 36.1452 355.323 33.386 354.905 30.6628L359.862 30.4197L359.947 32.15C359.044 31.3414 357.728 31.0756 356.705 31.1774Z" fill="#F6EFE9"/>
</g>
<path d="M231.193 46.7511L132.374 52.9336C127.445 53.2419 123.699 57.4878 124.008 62.4168L124.773 74.6542C125.082 79.5832 129.327 83.3291 134.257 83.0207L233.075 76.8382C238.004 76.5298 241.75 72.284 241.442 67.3549L240.676 55.1176C240.368 50.1885 236.122 46.4427 231.193 46.7511Z" fill="#F2BD49"/>
<path d="M226.391 23.1397L138.498 18.395C133.48 18.1241 129.193 21.9719 128.923 26.9893L128.25 39.4452C127.979 44.4626 131.827 48.7495 136.844 49.0203L224.738 53.7651C229.755 54.036 234.042 50.1882 234.313 45.1708L234.986 32.7149C235.257 27.6975 231.409 23.4106 226.391 23.1397Z" fill="#E78941"/>
<path d="M228.606 20.0094L140.713 15.2646C135.695 14.9937 131.408 18.8415 131.138 23.8589L130.465 36.3148C130.194 41.3322 134.042 45.6191 139.059 45.89L226.953 50.6347C231.97 50.9056 236.257 47.0578 236.528 42.0404L237.201 29.5845C237.471 24.5671 233.624 20.2802 228.606 20.0094Z" fill="white"/>
<path d="M231.193 45.1307L132.374 51.3132C127.445 51.6216 123.699 55.8674 124.008 60.7965L124.773 73.0338C125.082 77.9629 129.327 81.7087 134.257 81.4003L233.075 75.2178C238.004 74.9094 241.75 70.6636 241.442 65.7345L240.676 53.4972C240.368 48.5681 236.122 44.8223 231.193 45.1307Z" fill="white"/>
<path d="M132.432 56.3844L145.048 55.6006L145.312 59.8075L137.74 60.2758L138.004 64.4828L144.283 64.0894L144.546 68.2963L138.267 68.6897L138.732 76.1216L133.687 76.4445L132.432 56.3844Z" fill="#141515"/>
<path d="M148.246 55.3953L155.419 54.9461C157.521 54.814 158.538 54.8918 159.453 55.1722C161.84 55.8959 163.438 57.8511 163.62 60.7678C163.754 62.8991 162.863 65.2918 160.88 66.4294V66.4852C161.188 66.8528 161.473 67.2396 161.733 67.6433L166.176 74.3956L160.558 74.7479L156.482 68.2246L154.119 68.3714L154.543 75.131L149.501 75.4466L148.246 55.3953ZM156.046 64.0294C157.661 63.9281 158.612 63.0019 158.512 61.3975C158.417 59.8826 157.778 59.021 155.25 59.1795L153.551 59.2867L153.856 64.1659L156.046 64.0294Z" fill="#141515"/>
<path d="M167.891 54.1652L172.932 53.8496L174.187 73.9024L169.152 74.218L167.891 54.1652Z" fill="#141515"/>
<path d="M177.772 53.5457L185.088 53.0878C191.57 52.6812 195.95 56.0955 196.344 62.4059C196.737 68.7163 192.821 72.7339 186.344 73.1405L179.027 73.5985L177.772 53.5457ZM185.886 68.9468C189.371 68.7295 191.376 66.5762 191.137 62.7347C190.898 58.9182 188.556 57.0951 185.157 57.3035L183.084 57.4342L183.818 69.073L185.886 68.9468Z" fill="#141515"/>
<path d="M210.45 67.4099L204.026 67.8121L203.052 72.0954L197.866 72.4198L203.611 51.9311L208.912 51.5994L217.165 71.2147L211.981 71.5391L210.45 67.4099ZM206.519 56.3348C206.519 56.3348 206.194 58.5498 205.899 59.8357L204.969 63.8107L209.03 63.5567L207.634 59.7314C207.171 58.4926 206.583 56.3348 206.583 56.3348H206.519Z" fill="#141515"/>
<path d="M221.923 62.6657L214.384 51.2558L220.109 50.8962L222.751 55.5743C223.499 56.9072 224.17 58.3853 224.17 58.3853H224.229C224.229 58.3853 224.71 56.8338 225.286 55.4187L227.29 50.45L233.014 50.0918L226.964 62.353L227.479 70.5732L222.437 70.8829L221.923 62.6657Z" fill="#141515"/>
<path d="M139.233 34.4719C139.233 34.4719 141.468 36.7456 144.077 36.8865C145.122 36.9438 146.278 36.593 146.343 35.3497C146.477 32.8836 137.125 32.4653 137.47 26.08C137.677 22.2488 141.035 19.8972 145.157 20.1189C149.627 20.3596 151.705 22.8301 151.705 22.8301L149.336 26.8653C149.336 26.8653 147.346 24.9218 144.849 24.7897C143.804 24.7325 142.617 25.1347 142.556 26.2958C142.409 28.9086 151.786 28.9482 151.432 35.5082C151.246 38.9621 148.443 41.8098 143.77 41.5573C138.893 41.2946 136.354 38.1812 136.354 38.1812L139.233 34.4719Z" fill="#141515"/>
<path d="M155.561 21.0291L160.639 21.3035L159.93 34.4235C159.812 36.6004 161.173 37.8393 163.35 37.9567C165.527 38.0741 167.011 36.9894 167.128 34.8125L167.84 21.6925L172.919 21.9656L172.212 35.0855C171.959 39.7593 168.356 42.8844 163.131 42.6025C157.847 42.3163 154.601 38.8227 154.854 34.149L155.561 21.0291Z" fill="#141515"/>
<path d="M177.651 22.2209L186.272 22.6863C190.306 22.9035 192.878 26.0125 192.65 30.1916C192.423 34.3706 189.533 37.2374 185.499 37.026L181.957 36.8352L181.61 43.2499L176.531 42.9768L177.651 22.2209ZM184.689 32.615C186.459 32.7104 187.394 31.5684 187.478 29.9127C187.561 28.2569 186.757 27.0796 185.073 26.9886L182.49 26.8418L182.186 32.4741L184.689 32.615Z" fill="#141515"/>
<path d="M196.2 23.2222L209.204 23.9238L208.969 28.2776L201.042 27.8504L200.84 31.6243L207.171 31.9678L206.936 36.3216L200.609 35.981L200.395 39.8944L208.725 40.345L208.49 44.6988L195.08 43.9751L196.2 23.2222Z" fill="#141515"/>
<path d="M213.412 24.1514L220.64 24.5404C222.759 24.6549 223.766 24.856 224.649 25.2523C226.95 26.2798 228.318 28.4816 228.154 31.4967C228.035 33.6985 226.861 36.0559 224.743 36.9895V37.0467C225.008 37.4616 225.247 37.8925 225.459 38.337L229.102 45.8115L223.442 45.5061L220.133 38.3135L217.753 38.1858L217.372 45.1788L212.293 44.9058L213.412 24.1514ZM220.191 33.948C221.817 34.0361 222.881 33.1921 222.971 31.5363C223.055 29.9701 222.53 29.0086 219.97 28.8721L218.257 28.7796L217.984 33.8291L220.191 33.948Z" fill="#141515"/>
</g>
<defs>
<clipPath id="clip0_211_7195">
<rect width="360" height="96.75" fill="white" transform="translate(0 0.625)"/>
</clipPath>
</defs>
</svg>
